<?xml version="1.0" encoding="utf-8"?>
<!-- Generator: Adobe Illustrator 24.1.0, SVG Export Plug-In . SVG Version: 6.00 Build 0)  -->
<svg version="1.1" id="Layer_1" xmlns="http://www.w3.org/2000/svg" xmlns:xlink="http://www.w3.org/1999/xlink" x="0px" y="0px"
	 viewBox="0 0 400.3 218.4" style="enable-background:new 0 0 400.3 218.4;" xml:space="preserve">
<style type="text/css">
	.st0{fill:#FFFFFF;}
</style>
<path class="st0" d="M400.3,168.2h-1.2v1.4l-2.3,2.4l0.3,0.2c-0.7,0.2-1.8-0.6-1.9,1h-10.5l-2.7,2.9l-0.7,0.1l-0.1,0.9
	c-1.3,0-2.5,0-3.8,0c-0.2,0-0.6-0.1-0.6-0.2c-0.4-1-1.3-0.7-2-0.8s-1.5,0.3-1.7-0.8c0-0.1-0.4-0.2-0.6-0.2c-1,0-2,0-3.1,0
	c-0.2-1.4-1.2-0.9-2.1-1c0,1.4-0.4,2.9,0.1,4s0.4,2.4,0.9,3.3s1.8,1.3,2.8,2l0.2,1.7h0.8v9.8c0.7,0.1,1.4,0.2,1,1.2
	c1.5,0.3,3.1-0.3,4.1,1.3v1.8l-0.8,0v0.9h-2l0.1-0.3c-0.5-0.3-1-0.5-1.6-0.6c-1.3-0.1-2.6,0-4,0c-0.6,0-1.3-0.2-1.5,0.7
	c0,0.1-0.4,0.2-0.6,0.2h-8.4v-2.8c1.5-0.1,0.7-1.3,1-2.1l0.9-0.3v-1.5c1.2-0.5,2-1.7,1.9-3l0.9-0.2v-3.6l-2.8-2.7
	c-0.1-0.5,0.3-1.5-0.8-1.9c-0.2-0.1-0.1-1-0.2-1.7c-1.3,0.1-2.6-0.6-3.2-1.8c-0.6-0.3-1.5,0.2-1.8-1.1c-0.1-0.9-1.1-1.6-1.9-2.8
	v-2.9c-0.6-0.6-1-1-1.4-1.3s-3.2-0.1-3.7,0.4c-0.2,0.2-0.5,0.3-0.8,0.3c-0.7,0.1-1.5,0.1-2.2,0.1l0.1,1.1l-1.9,0.1
	c-0.3,0.9-0.3,0.9-2,1l-0.3,0.9h-7.9c-0.2-0.5,0-1.4-1-0.9v-5.9l-0.7-0.1l-1-1.4h-0.1l-1.5-1.9l-1-0.1v-0.9l-0.9-0.1v-0.9l-1-0.1
	v-0.9l-1-0.1v-0.9l-1-0.1c0.3-0.8,0.2-1.3-0.8-1.2c0-1.4,0-2.7,0-3.9c0-0.4,0.4-0.7,0.6-1.1l0.3,0.1v-1.8c1.2-0.8,2.1-1.6,2-2.7
	l2.2-2.4l-0.2-0.2l2-0.2l0.2-0.8h1.7l-0.1-0.4c0.4-0.2,0.9-0.4,1.4-0.5c0.4,0,0.9,0,1.3,0c2-0.1,3.6-0.7,4.6-2.6
	c0.2-0.4,0.8-0.6,1.1-1l-0.2-0.2l2-0.3l0.2-0.7c1.6-0.4,3.4,0.2,4.9-0.9c0.5-0.4,1.3-0.2,2-0.2c4.3,0,8.6,0,13,0
	c0.6,0.1,1.2,0.4,1.7,0.7c0.2,0.1,0.4,0.2,0.6,0.2c0.7,0,1.5-0.2,1.9,0.8c0.1,0.3,1,0.2,1.6,0.3l0.1,0.7c0.5,0.5,0.9,0.8,1.2,1.1
	l-0.2,0.2l1,0.1v0.9h2l0.1,0.9l1,0.1l0.2,0.9h1.7c0,0.3,0,0.6,0,0.9h3.5l4.2-2.8h3l2.3,2.4v1.6c1.9-0.4,0.9,1.1,1.3,1.9l0.8,0.2v1.9
	l0.9,0.1c0.3,1-0.5,2.3,1,2.9c0.3,1.4-0.3,2.9,0.6,4.1l0.3-0.1c-0.1,0.7-0.1,1.5,0,2.2c0.3,0.7,0.7,1.3,1.2,1.8l4.6,1.2l1,1
	c0.1,0.5,0.2,1.1,0.4,2l0.9-0.7L400.3,168.2z M360.2,170.2l-2.9-1.4l0,0l-1.2-0.7c0,1.4,0,2.6,0,3.8c0,0.4,0.1,0.9,0.3,1.3
	c0.2,0.3,0.5,0.6,0.9,0.8v0.1l1.7,1.2c0.2-0.9,0.1-1.9,0.5-2.3C360.5,172.2,360.2,171.2,360.2,170.2L360.2,170.2z"/>
<path class="st0" d="M87.2,148c1.8,0.1,3.5,0.2,5.2,0.3c1.3,0,2.5,0.1,3.8,0.3c0.3,0.2,0.6,0.5,1,0.5c1.5,0.1,3.4-0.2,4.6,0.4
	c1.6,0.8,3.3,0.4,4.9,0.9c0.2,0,0.3,0.3,0.5,0.4c0.2,0.2,0.4,0.3,0.6,0.4c0.6,0,1.2,0,1.9,0.1c0.4,0.1,0.7,0.5,1.1,0.6
	c0.8,0.2,1.6,0.2,2.4,0.4c0.5,0.1,1.2-0.4,1.3,0.7c0,0.1,0.8,0.2,1.2,0.3c0.6,0.1,1.5-0.4,1.7,0.8c0.1,0.2,1,0.3,1.5,0.4
	c0.4,0,0.8,0,1.3,0l0.2,0.9h2.5c0.7,2,2.4,0.5,3.5,1.2l0,0.8h2.8l-0.1,0.9c0.4,0,0.7,0.1,1.1,0.1c1,0,2-0.1,2.9,0.8
	c0.2,0.3,0.9,0.1,1.4,0.1c1,0,2,0,3,0v1c0.3,0.1,0.7,0.2,1,0.2c0.8,0,1.6,0,2.4,0c0.8-0.1,1.6,0.1,2.2,0.6c0.4,0.4,1.3,0.3,2,0.3
	c2.5-0.1,5,0,7.5,0.2c1.6,0.3,3.2,0.4,4.7,0.4h0.2c3.4-0.9,6.9-0.4,10.4-0.5c0.6-0.1,1.2-0.3,1.8-0.5c0.7-0.2,1.4-0.3,2.1-0.4
	c1.3-0.1,2.6-0.2,4-0.3l0.2-0.2l-0.2-0.3c0.4-0.2,0.7-0.4,1.1-0.5c1.5-0.3,3.1,0.6,4.4-0.9c0.2-0.3,1.1-0.1,1.6-0.1h2.5l0.1-0.9h3.8
	l0.1-1h3.8l0.1-0.9c1.4-0.1,2.8-0.1,4.1-0.2c0.1,0,0.2-0.5,0.3-0.8h3.6v-1.2c1.2,0,2.3,0,3.5,0c0.4,0,0.7-0.5,1.1-0.6
	c0.4-0.2,0.9-0.2,1.4-0.3c2-0.1,4-0.2,6-0.3h0.1h0.4l0.2-0.2c0-0.1,0-0.1,0-0.2h8.4c0,0.1,0,0.1,0,0.2l0.2,0.2c2,0.1,4,0.2,6,0.3
	c0.6,0,1.5-0.4,1.6,0.7c0,0.1,0.3,0.2,0.4,0.2h3.8v1.2h2.7c0,1.8,1.4,0.5,2.1,1l0.3,1h1.4c0.5,0.6,1,1.2,1.2,1.5
	c-1,0.5-1.9,1-2.9,1.3c-0.5,0.1-1,0.1-1.4,0c-0.9-0.1-1.2,0.3-1,1.2h-2.5v0.9c-1,0.6-2.6-0.6-3.4,0.8c-0.9,0.4-1.7,0.8-2.6,1
	c-0.6,0.2-1.2,0.3-1.9,0.3c-0.5,1.8-2.1,0.3-3.1,1.1v0.7c-0.5,0-1,0-1.5,0c-0.9,0-0.7,0.4-0.3,1c-0.8,0.1-1.5,0.1-2.2,0.2
	s-1.3-0.3-1.4,0.7c0,0.1-0.4,0.2-0.6,0.2c-0.8,0-1.8-0.2-2.2,0.9c0,0.1-0.4,0.1-0.6,0.1c-0.8,0-1.6-0.2-2.2,0.7
	c-0.1,0.2-0.5,0.2-0.8,0.2c-0.5,0.1-1.3-0.3-1.4,0.7c0,0.1-0.8,0.2-1.3,0.2c-0.7,0.2-1.3,0.4-1.9,0.6c-1.3,0.3-2.3,1.1-3.5,1.5
	c-0.7,0.2-1.5-0.2-1.8,0.9c0,0.1-0.3,0.1-0.4,0.1c-1.8,0.4-3.6,0.7-5.5,1.1c-0.3,0.1-0.7,0.3-1,0.5l0,0.3h-2.8l-0.1,0.9h-3.8l-0.1,1
	h-3.7l-0.3,1.1l-3.6,0.2c-0.2,0-0.4,0-0.5,0.1c-0.9,1.1-2.1,0.6-3.2,0.8c-0.7,0.2-1.5,0.4-2.2,0.6c-0.4,0.2-0.9,0.3-1.4,0.3
	c-1.5,0.1-2.9,0-4.4,0.1c-0.3,0-1-0.3-0.8,0.6c-0.4,0.1-0.9,0.2-1.3,0.3c-3,0.1-5.9,0.1-8.9,0.2c-0.6,0.1-1.1,0.2-1.7,0.3H156l0,0
	l-0.3-0.3l-0.2,0.2l0,0l-0.2,0.1c-3.4,0.1-6.7,0.2-10.1,0.3c-0.5,0-1-0.1-1.4-0.1c0-0.1,0-0.1,0-0.2l-0.2-0.2h-0.8
	c-0.1,0-0.1,0-0.2,0c-1.5-0.1-3.1-0.2-4.7-0.3c-2.4-0.1-4.8-0.1-7.2-0.2c-0.1,0-0.3,0.1-0.3,0c-0.7-1.5-2.1-0.6-3.1-0.8
	c-1.2-0.1-2.4-0.2-3.6-0.2c-0.2,0-0.4-0.1-0.6-0.1c0.1-0.9-0.7-0.6-1-0.7c-1.3-0.1-2.6-0.1-4-0.1c-0.3,0-1,0.2-0.8-0.6
	c-0.2-0.1-0.4-0.1-0.6-0.1c-1.2-0.1-2.5-0.2-3.7-0.3c-0.2,0-0.4-0.1-0.6-0.2c0.2-1.1-0.7-0.8-1.1-0.8c-1.2-0.2-2.5,0.1-3.5-0.4
	c-1.1-0.4-2.3-0.6-3.5-0.6c-0.2,0-0.6-0.1-0.6-0.2c-0.4-1-1.2-0.7-1.9-0.7c-1.3,0-2.7,0.2-3.8-0.9c-0.3-0.3-1.2,0-1.8-0.1
	c-0.8-0.1-1.6,0.4-2.2-0.6c-0.2-0.3-1.1-0.3-1.6-0.3c-1.4-0.1-2.8,0.4-3.9-0.9c-0.1-0.1-0.5-0.1-0.8-0.1c-1.1,0-2.2,0-3.4,0
	c-0.3,0-0.9-0.2-0.9-0.4c-0.2-0.9-0.9-0.8-1.5-0.8h-2.2c-0.7,0.1-1.5-0.1-2-0.6c-0.4-0.4-1.4-0.3-2.1-0.3c-1.5-0.1-3.1,0-4.7-0.1
	c-0.8-0.1-1.5-0.6-2.2-0.7c-2.5-0.2-5.1-0.2-7.7-0.3c-0.2,0-0.6,0.1-0.7,0c-2.2-1.3-4.7-0.8-7.1-0.8c-4.1-0.1-8.3,0-12.4,0.1
	c-0.1,0-0.2,0-0.3,0.1c-1.6,1.2-3.4,0.7-5.1,0.8c-0.7,0-1.4-0.1-2.1,0c-0.3,0.1-1.1-0.3-0.9,0.6c-0.2,0.1-0.4,0.1-0.6,0.1
	c-1.1,0.1-2.1,0.1-3.1,0.2c-0.6,0.1-1.5-0.4-1.7,0.8c0,0.1-0.4,0.2-0.6,0.2c-1,0-1.9,0-2.9,0l-0.1,1.2c-0.9,0-1.9,0-2.8,0
	c-0.2,0-0.3-0.6-0.3-0.8l2.4-2l-0.1-0.2h1.6c0-0.3,0.1-0.6,0-0.5l2.3-2.2l-0.1-0.2h1.9c0.3-1.1,1.1-2,2.1-2.3c0.6-0.3,1.3-0.6,1.8-1
	c0.4-0.2,0.8-0.6,1.2-0.9c0.8-0.4,1.5-1,2.2-1.5c1.6-0.2,1.6-0.2,1.9-1.5h1.6l0.1-0.9l2.2-0.1l0.1-0.6L45,156
	c0.1-1.2,1.3-0.5,2.2-0.7c0-1.4,1.2-0.7,2-1l0.1-1.1c0.9,0,1.8,0,2.7,0c0.2,0,0.4-0.5,0.7-0.9l2.5-0.2l0.2-0.8c0.5,0.1,1,0.1,1.6,0
	c0.5-0.1,1.4,0.5,1.4-0.7c0.5-0.1,1.1-0.2,1.7-0.2c0.6,0,1.4,0.2,1.7-0.1c1.3-1.5,3-0.5,4.5-0.9c0.4-0.1,1.2,0.2,1.2-0.7
	c0.4-0.2,0.8-0.2,1.3-0.2c2.8,0,5.7-0.1,8.5-0.1c0.2,0,0.4-0.1,0.6-0.2l0.3-0.2l0,0l0.2-0.3c2.2-0.8,4.6-0.8,6.8,0
	c0,0.1,0,0.1,0,0.2l0.2,0.2L87.2,148L87.2,148z"/>
<path class="st0" d="M209.8,92.4c-0.1,1.4-0.1,2.9-0.2,4.3c0,0.2-0.5,0.6-0.8,0.6c-5.2,0-10.4,0-15.6,0h-4.9v-7
	c0.7-0.7,1.7-1.1,2.6-1c1.1,0.1,2.1,0.1,3.2,0v-2.1c-1.2,0-0.8-1-0.9-1.7s0.3-1.4-0.9-1.4l-0.1-3l-0.9-0.2v-1.8l-1-0.1l-0.1-0.8
	h-20.8c-0.4,0.5-0.8,1-1,1.6c-0.1,0.8-0.1,1.5,0,2.3l-0.8,0.1c-0.6,1,0.8,2.5-1.1,3v2.8l-1,0.1c-0.2,1.3-0.2,1.2,1.1,1
	c1.4-0.1,2.8-0.1,4.1,0c0.2,0,0.3,0,0.5,0.1c0.3,0.3,0.6,0.6,0.9,0.9l0.3-0.2v7h-22v-6.8l1.2-0.9l-0.1-0.2h4.8v-1.9
	c1.9-0.5,0.6-2,1.2-3l0.4-0.1c0.4-1,0.6-1.9,0.9-2.7c0.2-0.4,0.3-0.9,0.3-1.4c0-0.9,0.2-1.3,1.2-0.9l0.1-2.8l0.9-0.2
	c0-0.4,0-0.7,0-1.1c0.1-0.6-0.3-1.5,0.8-1.8c0.2-0.1,0.2-1.1,0.2-1.9l0.9-0.3v-2.9l1-0.2c-0.1-0.5-0.1-1,0-1.6
	c0.1-0.4-0.3-1.1,0.7-1.2c0.2,0,0.3-1.3,0.4-2c1.6-0.4,0.9-1.8,1.1-2.8c1.7-0.6,0.5-2.2,1.1-3.3h0.7c0-0.3,0-0.6,0.1-0.9
	c0.2-0.6,0.5-1.2,0.7-1.9c0-0.1,0.2-0.1,0.2-0.1c-0.4-1.8,2-3,0.9-4.8c1-0.4,1-0.4,1.1-2.1c-1.4,0.1-2.7,0.1-4.1,0.2
	s-1.9-0.3-1.9-1.6v-5.5l1.5-1.3h27.3l0.9,1.2l0.4-0.2v7.1h-5.9v2.8l1.1,0.2V53l0.4-0.1c0.2,0.5,0.4,0.9,0.6,1.4c0.1,0.3,0,0.8,0.2,1
	c1,0.8,0.6,1.8,0.8,2.8c1.2,0.3,0.9,1.4,0.9,2.1s0,0.8,1,1.1v1.1c0,0.3-0.1,0.6,0,0.8c0.5,0.9,1.2,1.7,1.1,2.9
	c0.3,0.1,0.7,0.2,1,0.3v2.6c0.8-0.2,1.1,0,1,0.8c-0.1,0.4-0.1,0.9,0,1.3c0.2,0.5,0.4,0.9,0.6,1.4c0.3,0.7,0.7,1.4,1,2.2
	c0.2,0.5,0.1,1.1,0.2,1.6c0.1,0.4,0.3,0.8,0.5,1.2l0.5-0.1c-0.1,0.6-0.1,1.2,0,1.8c0.1,0.4,0.4,0.7,0.6,1c0.2,0.2,0.3,0.5,0.3,0.8
	c0,0.9,0,1.7,0.9,2.3c0.4,0.2,0.3,1.1,0.5,1.9l0.8,0.2v2.4c0.3,0.4,0.6,0.8,1,1.2c0.3,0.2,0.6,0.4,1,0.4c1.3,0,2.6,0,4.1,0l0.5,2.3
	l-0.1,0.2l0,0l-0.2,0.1l0.2,0.2l0,0L209.8,92.4z M176,60.2h-0.7c-0.1,0.7,0.1,1.7-0.3,2c-1,0.9-0.6,2-0.8,3l-0.9,0.2
	c0,0.5,0,1-0.1,1.4s0,0.9,0,1.3c-1.1,0.3-1.2,1-0.8,3.2h16l-1.1-1.4l-0.2-2.5l-0.8-0.1l-0.2-2.8c-1,0.2-0.9-0.5-0.9-1.1
	c0-0.9,0.3-1.9-0.7-2c-0.2-0.8-0.2-1.8-0.6-2c-0.5-0.2-0.8-0.7-0.8-1.2c0-0.6-0.1-1.2-0.1-1.8l-0.9-0.2v-2.6l-0.6-0.1
	c-0.5-1.5-1-2.8-1.4-4.3c-0.3,0.2-0.8,0.4-0.8,0.6c0,0.8-0.2,1.6-0.7,2.2c-0.5,0.5-0.3,1.6-0.4,2.5l-0.9,0.1l-0.2,2.6
	C175.3,57.6,176.6,59.1,176,60.2z"/>
<path class="st0" d="M124.2,39.8c1.8,0.2,3.6,0.3,5.4,0.5c0.6,0.1,1.5-0.3,1.8,0.8c0,0.1,0.4,0.1,0.6,0.1c0.9,0.2,1.9-0.2,2.7,0.8
	c0.4,0.5,1.6,0.3,2.6,0.4l0.1,0.7c0.7,0.4,1.9-0.5,1.9,1.1h1.7l-0.1,0.3l1.5,1.1l0.1,0.8h1.7l-0.2,0.2l5.3,5.1l0.1,1.6l0.8,0.2
	c0.3,0.6-0.3,1.6,0.9,1.8c0.1,0,0.1,0.5,0.2,0.7c0.1,0.4-0.2,1.2,0.7,1.1c0.1,0,0.2,0.1,0.2,0.3c-0.2,1.9,1.5,3.4,1,5.4
	c-0.1,1,0.1,2.1,0.7,3c0.4,1.1,0.5,2.3,0.3,3.5c-0.1,1.2-0.7,2.3-1,3.5c-0.1,0.8-0.1,1.7-0.1,2.5c0,0.8,0.1,1.6-0.8,2.4
	c-0.5,0.4-0.2,1.7-0.2,2.5c-0.9,0-0.9,0-1.2,2c-0.2,0.4-0.5,0.8-0.7,1.1c-0.1,0.3-0.3,0.6-0.5,0.8c-0.5,0.6-1,1.1-1.4,1.7
	c-0.3,0.3-0.6,0.6-0.9,0.8c-0.4,1.3-1.9,2.9-2.8,3l-2.7,2.8h-1.6c-0.1,1.5-1.2,0.8-2,1c0.3,0.9-0.1,1.2-1,1.2c-0.3,0-0.6,0.4-1,0.6
	c-0.3,0.2-0.6,0.3-0.9,0.3c-0.8,0-1.6-0.1-2.1,0.8c-0.1,0.1-0.2,0.2-0.3,0.1c-2.5-0.5-4.6,1.1-7.1,1.1c-8.5-0.2-17,0-25.5,0.1
	c-0.8-0.1-1.5-0.2-2.3-0.3c0-2.1,0-4.2,0-6.3c0-0.2,0.1-0.4,0.3-0.6c0.4-0.3,0.8-0.6,1.2-0.9h5.4v-42h-6.9c0-2.2,0-4.2,0-6.2
	c0-0.3,0.4-0.5,0.6-0.8c0.2-0.4,0.3-0.7,0.5-1.1h0.5c7.6,0,15.2,0,22.8,0c0.4,0.1,0.8,0.2,1.1,0.5l0.2,0.2L124.2,39.8z M120.8,47.7
	l-0.2-0.2h-0.3c-0.1,0-0.1,0-0.2,0h-5.7v41.7c4.2,0,8.5,0,12.7,0c0.5,0,1.3,0,1.5-0.3c0.5-0.7,1.1-0.6,1.8-0.6s1.2-0.1,1.8-0.1v-1.1
	h1.9c0.1-1.7,1.5-0.6,2-1.2l2.3-2.1v-0.5l0.9-0.1c0-1,2.1-3.2,2.9-3.2c0.3-0.7-0.5-1.9,1.1-1.9v-2.9l1-0.2v-1.9c0-3.3,0-6.6,0-10
	c0-0.7,0.3-1.7-0.8-2c-0.1,0-0.1-0.4-0.1-0.6c0-0.4,0-0.9,0-1.3l-1-0.1v-1.9l-1.1-0.1c-0.7-2.6-2.6-4-4.9-4.9l-0.2-1l-2-0.1
	l-0.2-0.8c-0.7-0.3-2,0.5-1.9-1.1h-2.8l0.1-0.3c-0.3-0.2-0.7-0.4-1.1-0.5c-0.7-0.1-1.5-0.1-2.2-0.2l-5.4-0.3
	C120.8,47.9,120.7,47.8,120.8,47.7L120.8,47.7z M123.3,39.6L123.3,39.6l0,0.2C123.3,39.8,123.4,39.8,123.3,39.6
	C123.4,39.6,123.3,39.7,123.3,39.6L123.3,39.6z"/>
<path class="st0" d="M231,113.3h-5.9c-1.5,0-2-0.6-1.9-2c0-1,0-2,0-3v-3.1h22.9v8h-6.9v38c-1.1-0.2-2.3,0.4-3.1-0.9
	c-0.1-0.2-0.8-0.1-1.2-0.1s-1,0-1.5,0l-0.1-0.9h-5.2l-0.1-1h-5.3c-0.5-0.4-0.9-0.9-1.3-1.4c-0.2-0.3-0.1-0.7-0.2-1
	c-0.2-0.3-0.3-0.5-0.5-0.8l-0.3,0.2l-0.1-0.7l-1.9-1.4c-0.7-1-0.7-2.5-2-3.2c-0.5-0.3-0.7-1.4-1.2-1.6c-1.2-0.3-0.8-1.2-1-2
	l-0.7-0.1c-0.5-0.8-0.9-1.8-1.5-2c-1.1-0.4-0.6-1.2-0.9-1.9h-0.5c-0.8-0.9-1.4-1.6-2.3-2.6c-0.1-1-0.1-1-1.2-1
	c0.1-1.3-0.7-2-1.6-2.6c-0.5-0.3-0.9-0.7-1.2-1.2c-0.2-0.5-0.2-1-0.2-1.6l-1.5-1.4l-0.3,0.2v27c-0.6,0.2-1.5-0.1-1,1h-2.8l0.1,0.4
	c-0.4,0.3-0.9,0.5-1.4,0.6c-1.3,0.1-2.6,0-4,0v-37.9h-7v-8.1H201l0.1,1l0.7,0.1c0.5,0.8,0.9,1.4,1.3,2c0.1,0.2,1.5,1.6,1.7,1.8
	c0.7,0.8,1.5,1.7,1.3,2.6l1.4,1.4l0.7,0l0.1,1.1c1-0.5,0.8,0.2,0.9,0.8c0.1,0.3,0.5,0.5,0.7,0.8s0.2,0.7,0.6,0.9l3.1,4.2
	c0.9,0.2,2.5,2.3,2.6,3.7c0.7,0.8,1.3,1.4,1.9,2c0.7,0.4,1,1.2,1,2c0.6,0.8,1.4,1.5,2.1,2.1c1.1,0.8,1.2,2.2,2,3.1
	c0.1,0.2,0.5,0.1,0.4,0.1l1,1.4l0.3-0.1l0.1,1.1l0.9-0.1c0.2,0.6,0.3,1.2,0.5,1.8c0.1,0,0.3,0,0.4-0.1c0.5,0.7,0.8,1.7,1.4,1.9
	c1.3,0.4,0.6,1.4,0.8,1.9l1.8,1.6L231,113.3z"/>
<path class="st0" d="M58.1,131.3l-2.8,1.3l-0.1,1.5h2l0.1,1h1.8l-0.2,0.3l2,2l0.2-0.2l0.1,0.9h0.6l0.9,1.1L63,139
	c0.2,0.6-0.1,1.8,1.2,1.2v2.9l1,0.3v1.3c-1,0.5-1.9,0.9-2.8,1.3c-0.3,0.1-0.6,0.2-0.9,0.2c-0.8,0.1-1.6,0.1-2.4,0.1
	c-0.6,0-1.2-0.1-0.9,0.8h-2.1v-2.7l-1-0.1c0-0.5,0-0.9,0-1.3c0-0.2,0-0.5-0.1-0.6c-1.4-0.3-0.6-1.5-1-2.2h-1.7l0.1-0.6
	c-0.8-0.4-1.4-0.8-2.1-1.1c-0.4-0.2-0.9-0.2-1.4-0.2c-0.9-0.1-1.8,0.2-2.4-0.7c-0.2-0.2-0.5-0.3-0.8-0.2H35.4v19l-0.9-0.1l-0.2,0.9
	c-1.4,0.1-2.6,0.8-3.3,2c-0.4,0.3-1.9-0.5-1.6,0.9l-1.2,0.9l0.2,0.3h-1.7l-1.7,2H21c-1.3,0-1.7-0.4-1.7-1.7c0-2,0-4.1,0-6.2h6.9
	v-41.9h-6.9v-6c0-2,0.2-2.2,2.2-2.2h27.7c-0.1,1.2,0.7,1.3,1.6,1.2s1.7,0,2.6,0v0.9l1.8,0.1c0,1.5,1.2,0.7,1.8,1.3
	c0.4,0.2,0.8,0.4,1.1,0.6c0.4,0.3,0.7,0.6,1,1c0.5,0.6,1,1.3,1.6,2.1h0.5c0.3,0.4-0.4,1.6,0.6,1.2c0.4,0.9,0.8,1.7,1.2,2.5
	c0.1,0.3,0.2,0.6,0.2,0.9c0,2.5,0,5,0,7.4c-0.1,0.5-0.3,0.9-0.6,1.3l-0.3-0.1v1.5l-0.3-0.2c-0.6,0.8-1.5,1.6-1.7,2.5s-0.6,0.8-1,1.1
	S58.5,131,58.1,131.3L58.1,131.3z M53.3,125.9v-1.4c0.3-0.2,0.9-0.3,0.9-0.5c0.1-1.8,0-3.7,0-5.5c0,0,0-0.1-0.1-0.1
	c-1.4-0.2-0.7-1.4-0.8-1.8l-1.5-1.4h-1.6c-0.1-1.7-1.4-0.6-2.1-1.1l-0.1-0.8H35.4v16.9h11c-0.4-1,0.1-1.2,0.9-1.1
	c0.6,0.1,1.2,0,1.8,0l0.1-0.6c0.7-0.6,2,0.3,2-0.9L53.3,125.9z"/>
<path class="st0" d="M16.8,47.3v-4.1l0.1-0.3l0,0l0.2-0.2v-0.3c0-0.1,0-0.1,0-0.2v-0.3l-0.2-0.2l0,0l-0.1-0.2l0.7-2.4h1
	c15.3,0,30.5,0,45.8,0c0.4,0.1,0.9,0.2,1.2,0.5l0.2,0.2H66c0.1,0.4,0.2,0.8,0.3,1.1c0,5,0,10,0,15.2h-6.8c-1.2,0-2.2-0.9-2.3-2.1
	c0-0.1,0-0.3,0-0.4c0.1-1.9,0-3.8,0-5.7c0-0.2-0.4-0.6-0.6-0.6c-3.4,0-6.7,0-10.1,0v42.1h6.9v7.9h-4.9c-5,0-10.1,0-15.1,0
	c-1,0-2,0.1-3,0.1c-0.8,0-1.1-0.6-1.1-1.3v-5.6l1.2-0.9l-0.1-0.2h6.8V47.3H25.2v8.9c-2.6,0-5.1,0-7.5,0c-0.3-0.1-0.6-0.3-0.7-0.6
	c-0.1-0.9-0.2-1.9-0.3-2.8c-0.1-1.2,0-2.5-0.1-3.7l0.1-0.3l0,0l0.2-0.2v-0.3c0-0.1,0-0.1,0-0.2v-0.3l-0.2-0.2l0,0L16.8,47.3z"/>
<path class="st0" d="M75.2,134.2v-2.8l1.1-0.2v-2.2h1v-2.7l0.9,0.1l0.2-3l0.8-0.1c0-0.4,0-0.8,0-1.2s0-1,0.2-1.2
	c1-0.5,0.6-1.4,0.7-2.1c1.9-0.5,0.4-2.1,1.2-3.2l0.9-0.2v-1.8h-5.9v-8.2h29.8v8.1h-5.9v2l1,0.1v2.8l0.9,0.1l0.3,2.8l0.7,0.1v1.6
	c1.8,0.7,0.6,2.2,1.2,3.3l0.7,0.1v2.7c0.9-0.2,1.3,0.1,1.2,1c-0.1,0.6,0.1,1.3,0.6,1.8c0.4,0.4,0.4,1.4,0.6,2.2l0.7,0.1v3h0.9
	c0.2,2.7,0.2,2.7,1,3v1.9c0.8,0.3,0.8,0.3,1,3.1l1.1,0.1v3.1c-0.9-0.4-2.1,0.8-2.4-1.1c0-0.1-0.5-0.2-0.7-0.2c-0.8,0-1.6,0-2.3,0
	c-0.1,0-0.3,0-0.4,0c-1.2-1.5-3-0.6-4.5-1c-0.4-0.1-0.7-0.3-1-0.5l0.1-0.5c-1.8,0-3.5,0.1-5.3,0c-0.6,0-1.6,0.5-2-0.8
	c0-0.2-1.2-0.1-1.9-0.1H71.4v-1.7c1.8-0.5,0.4-2.1,1-3.1h0.8c0.1-1.1-0.2-2.3,0.9-3.1c0.2-0.1,0.1-0.8,0-1.2
	C74.2,134.5,74.1,133.9,75.2,134.2z M97.2,132v-2.8l-0.9-0.1c0-0.6,0.1-1.5-0.1-1.6c-1.3-0.7-0.7-1.9-1.1-2.9
	c-0.3-0.4-0.6-0.8-0.7-1.3c-0.1-0.3-0.1-0.7,0-1c0.1-0.9-0.3-1.3-1.2-1v-2.8l-1-0.1c0.5-1.8-0.6-3-1.6-4.2c-0.2,1.1,0,2.4-0.5,3
	c-0.5,0.7-0.8,1.6-0.8,2.4c0,0.3-0.4,0.6-0.6,0.9l-0.3-0.2v2.3c-0.6,0.4-1.1,0.6-1.2,0.9c-0.1,0.9-0.2,1.8-0.2,2.7h-0.8
	c0,0.6,0.1,1.6-0.2,1.8c-1,0.6-0.8,1.4-0.8,2.2c0,0.4,0,0.8,0,1.1l-1,0v2.7c-1,0-1.3,0.9-0.7,2.4h15.5c0.1-0.8,0.2-1.5-0.8-1.5
	C97.9,133.9,98.7,132.6,97.2,132L97.2,132z"/>
<path class="st0" d="M297.4,188.6c-0.3,0.2-0.7,0.5-1,0.5c-2.8,0-5.5,0-8.3,0c-0.4,0-0.8,0.4-1.3,0.5c-0.7,0.3-1.4,0.5-2.2,0.6
	c-1.8,0.1-3.5,0.1-5.3,0.2c-0.1,0-0.3,0-0.4,0.1c-1.4,1.3-3.2,0.5-4.8,0.8c-0.6,0.1-1.3-0.1-1.8,0.6c-0.3,0.4-1.2,0.3-1.9,0.3
	c-0.9,0-1.9,0-2.8,0c-0.2,0-0.5,0.1-0.6,0.2c-0.9,0.9-1.9,0.7-3,0.7c-0.9,0-1.7,0.1-2.5,0.4c-0.3,0.2-0.6,0.3-1,0.4
	c-0.7,0.1-1.5,0-2.2,0.1c-0.4,0-0.6,0.4-1,0.6c-0.4,0.2-0.9,0.3-1.3,0.4c-1.2,0-2.3,0-3.6,0l-0.2,1.2h-3.8l-0.1,1
	c-0.7,0-1.5,0-2.2,0c-0.5,0.1-0.9,0.3-1.4,0.5c-0.5,0.2-1,0.4-1.5,0.5c-0.1,0-0.3-0.4-0.3-0.6c0.1-0.4,0.2-0.8,0.4-1.2l2-0.2l0.1-1
	h2l0-1l2.9-0.2l0.1-0.8h1.8l-0.1-0.4c0.5-0.2,0.9-0.4,1.4-0.6s0.8,0,1-0.2c0.9-1,2-0.7,3.1-0.7v-0.9h2.7l0.1-1.1
	c0.5-0.1,1.1-0.1,1.7-0.2s1.3,0.4,1.3-0.6c0-0.1,0.5-0.2,0.8-0.2c0.8,0,1.6,0.1,2.1-0.8c0.1-0.2,0.7-0.1,1-0.2
	c0.7-0.2,1.4-0.5,2.1-0.7c0.9-0.2,1.9-0.4,2.8-0.5l0.1-0.7c0.4,0,0.8,0,1.2,0c0.6-0.1,1.4,0.4,1.8-0.7c0.1-0.3,1.4-0.3,2.1-0.3
	c0.9,0,1-0.4,0.7-1.1c1.4-0.4,3.1,0.5,4.7-1h3.3l0.1-1h3.9v-1.1c1.7,0,3.4,0,5.1,0c0.1,0,0.1-0.5,0.3-0.8h4.7v-0.9h6.2v-1.2
	c2,0,4,0,6,0c0.9,0.1,1.8-0.1,2.6-0.6c0.7-0.5,1.9-0.3,2.9-0.3c5.9,0,11.7,0,17.6,0c1,0,2,0.7,3.1,0.7c2.5,0.1,4.9,0.1,7.4,0.2
	c0.5,0,1.2-0.2,1.3,0.7c0,0.2,0.6,0.4,1,0.5c0.6,0,1.2,0,1.8,0l-0.2,0.3l1.8,1.9c0,0.1,0,0.1,0,0.2l0.2,0.2c0.5,0.4,1.5-0.1,1.5,1.1
	c0,0.1,0.6,0.2,1,0.3v0.8h0.6l1.9,2.5h0.1c0.3,0.5,0.6,0.9,1.1,1.3c0.7,0.5,1.4,1,1.3,2.1l-0.9,0.2l-0.1,0.8
	c-0.5,0.4-0.7,0.7-1.1,0.8c-0.7,0.2-2,0.5-2.1,0.3c-0.6-1-1.6-0.6-2.4-0.8c-1.7-0.2-3.4-0.1-5-0.2c-0.3,0-0.8,0-0.8-0.2
	c-0.5-1-1.4-0.8-2.2-0.8c-2.2,0-4.3,0-6.5,0c-0.5-0.1-1.1-0.2-1.6-0.5c-0.5-0.2-1.1-0.4-1.7-0.5c-11.9,0-23.7,0-35.6,0
	c-0.5,0.1-1,0.2-1.5,0.4l-0.3-0.2L297.4,188.6z"/>
<path class="st0" d="M253.2,97.3h-32c-2.7,0-5.4-0.1-8.1,0c-0.9,0-0.9-0.3-0.9-0.9c0-2.3,0-4.7,0-7.1h7c0-3.7,0-7.4,0-11
	c0-2.8-0.1-5.6-0.1-8.4s0.1-5.9,0.1-8.8s-0.1-5.6-0.1-8.4c0-0.9,0-1.8,0-2.7c0.1-0.8,0.5-1.6-0.8-1.8c-0.1,0-0.1-0.5-0.1-0.6h-5
	c-0.7,0-1.1-0.2-1-1.1c0.1-2.4,0-4.7,0-7.1h23.2c0,1.9,0,3.9,0,5.9c0,0.8,0,1.9-0.4,2.2s-1.5,0.1-2.3,0.1h-4.5v3.8
	c0,2.5,0,4.9,0,7.4c0,2.8,0.1,5.6,0.1,8.3c0,2.3,0,4.6,0,6.9c0,2.1,0,4.2,0,6.3c0,2.4,0,4.7,0,7c0,0.2,0,0.4,0,0.5
	c0.2,1.8,0.2,1.8,2.5,1.8c4.3,0,8.6,0,12.9,0c0.6,0,1.2-0.1,1.7-0.2v-8h7.9V97.3z"/>
<path class="st0" d="M147.4,157.5c-1.7-0.1-3.5-0.1-5.2-0.3c-0.5-0.1-1-0.3-1.5-0.5c-0.6-0.2-1.2-0.2-1.8-0.4
	c-0.2-0.1-0.4-0.3-0.5-0.5c0-0.1,0.2-0.3,0.4-0.5s0.4-0.5,0.8-0.9l1.5-0.1l0.2-1l0.2,0.2c0.4-0.4,0.6-1.1,1.1-1.2
	c1-0.3,0.6-1.1,0.8-1.7s-0.5-1.4,0.7-1.5c0.4,0,0-2.5-0.3-2.8c-0.3-0.5-0.4-1-0.6-1.6l-1.1-1.4l-1.5-1l-1.6-2.1
	c-1.6-0.1-1.6-0.1-1.8-0.8c-1-0.7-2.6,0.8-3.2-1.1h-1.8l-0.1-1h-2.9l-0.2-1h-1.7l-0.1-1l-2-0.2l0.1-0.7l-2.1-0.2l-0.2-0.8
	c-0.7-0.3-1.5,0.2-2-0.9c-0.4-0.9-1.7-1.4-2.5-2.1c-0.2-0.2-0.2-0.7-0.4-1.1l-1-0.1v-1.8c-1,0.3-1-0.2-1-0.9s0.2-1.4-1-1
	c0-3.2,0-6.3,0-9.4c0-0.2,0.1-0.5,0.2-0.5c1.3-0.4,0.6-1.4,0.9-2.2h0.9v-1.9l0.2,0.2l4.4-4.2h1.2l0.1-0.9h2.1l0.2-1.1
	c1-0.1,1.9-0.2,2.9-0.4c0-0.2,0-0.5,0-0.7h10.4c0.2,0,0.4,0,0.5,0.1c0.6,1.6,2.1,0.5,3.1,1c0.2,2,1.9,0.7,2.8,1.2l-0.1,0.5l1.5,1
	l-0.1,0.3h1.6l2.1,2.2c0.4,0.6-0.3,1.8,1.1,2c0.1,0.8-0.3,1.7,0.9,2.1c0.2,0.1,0.1,1.4,0,2.1s0.6,1.7-0.8,2c-0.2,0-0.2,1-0.2,1.2
	l-2.3,2.3h-5.1l-2.3-2.1l-0.3,0.2v-1.7l-1-0.3c0-0.6,0-1.1,0-1.6s-0.1-1.1,0.7-1.4c0.2-0.1,0.2-1.1,0.3-1.8h-2.6l0.1-0.4
	c-0.5-0.3-1-0.5-1.5-0.6c-2.3-0.1-4.6-0.1-7,0c-0.5,0.1-0.9,0.3-1.4,0.5l0.1,0.4h-1.3l-3.2,3.2v5.9c0,0.4-0.2,0.9,0.5,0.8
	c0.1,0,0.3,0.2,0.3,0.3c0.1,1.1,1,1.3,1.7,1.9c0.2,0.2,0.3,0.5,0.6,1c0.3,0.2,1.6-0.6,1.7,0.9h2c0,1.7,1.3,0.6,1.9,1.1
	c0.7,1.6,2.2,0.4,3.3,1.2l0.1,0.8h1.9l0.1,1h2.5c0.1,1.6,1.4,0.7,2.1,1.1c0,1.4,1.2,0.7,2,0.9v0.5l2.1,1.6l0,0.8c0.1,0,0.3,0,0.3,0
	c0.6,0.3,1.1,0.6,1.6,1c0.5,0.5,0.8,1.3,1.2,1.8c0.1,0.2,0.6,0.2,0.9,0.2v1.9h1c0,0.9,0,1.7,0,2.5c-0.1,0.8,0.2,1.7,0.7,2.3
	c0.3,0.7,0.3,1.6-0.1,2.3c-0.5,0.6-0.7,1.3-0.6,2.1c0,0.8,0,1.7,0,2.6c-1.7,0.1-0.7,1.4-1.1,2.2l-0.9,0.2v1.6l-1.7,0.5
	c-0.1,0-0.1,0-0.2,0h-0.8C147.6,157.4,147.5,157.4,147.4,157.5z"/>
<path class="st0" d="M93.4,96c-0.3,1.4-0.3,1.4-2.6,1.4c-6.3,0-12.7,0-19-0.1c-0.5,0-0.9-0.1-1.4-0.1v-7.8h6.9V47.4h-6.8v-8.2H93
	l0.6,2.8l0.3,0.3l0,0v0.3l0,0l-0.3,0.3l0,0L93.5,43l0,0.9v2.2c-0.2,1.1-0.8,1.4-2,1.3c-1.8-0.1-3.6,0-5.4,0v41.9H91c2,0,2,0,2.3,2.1
	c0.1,0.2,0.1,0.4,0.2,0.5v2.2l0,1.4L93.4,96C93.3,95.9,93.4,96,93.4,96z"/>
<path class="st0" d="M233,11.8l1.2,0.7c0,2,0,4.1,0,6.2c0,0.8-0.6,1.4-1.3,1.4c0,0-0.1,0-0.1,0c-3.6,0-7.2,0-10.8,0
	c-0.4-0.1-0.7-0.2-1-0.4c-0.1,0-0.2,0-0.2,0l-0.7,2.5h15.1v8.9h-24.6l-1.3-1.3V1.2h25.8v9h-14.8v1.9c1.3-0.1,2.6-0.2,3.9-0.2
	c2.5,0,5,0,7.6,0c0.2,0,0.3-0.1,0.4-0.2l0.3,0.2h0.2L233,11.8z"/>
<path class="st0" d="M195.6,21.4l-0.8-1.2h-6.6v9.4l-1.1,1.4h-9.9V1.3h10.9v10.1l7.5-0.4l0.2-0.2l0.2-0.2v-0.3c0-0.1,0-0.1,0-0.2
	V9.8c0-0.1,0-0.1,0-0.2V9.3l-0.2-0.2c0-0.1,0-0.2,0-0.2l-0.2-0.3V8.4l0.2-0.3V7.9l0,0l0.2-0.2V7.4l-0.2-0.2l0,0V6.9l-0.2-0.3V6.4
	l0.2-0.3V5.9l0,0l0.2-0.2V5.4l-0.2-0.2l0,0V4.9l-0.2-0.3V4.4l0.2-0.3V3.9l0,0l0.2-0.2V3.4l-0.2-0.2l0,0V2.9l-0.2-0.3l1-1.6h9.4v29.9
	h-9.6l-0.9-1.6l0.4-0.5c0-0.1,0-0.1,0-0.2v-0.3l-0.2-0.2l0,0v-0.2l-0.2-0.3v-0.2l0.2-0.3v-0.2l0,0l0.2-0.2v-0.3l-0.2-0.2l0,0v-0.2
	l-0.2-0.3v-0.2l0.2-0.3v-0.2l0,0l0.2-0.2v-0.3l-0.2-0.2l0,0v-0.2l-0.2-0.3v-0.2l0.2-0.3v-0.2l0,0l0.2-0.2v-0.3c0-0.1,0-0.1,0-0.2
	v-0.3c0-0.1,0-0.1,0-0.2v-0.3l-0.2-0.2L195.6,21.4z"/>
<path class="st0" d="M134.6,26.2c0.1,1.3,0.3,2.6,0.4,4h-0.9l-0.1,1h-24.9c-0.1-1.3-0.1-2.6-0.2-3.8c-0.1-0.8-0.2-1.6-0.3-2.4v-0.3
	c0.1-2.1,0.3-4.2,0.4-6.3c0.1-1,0.1-1.9,0-2.9c-0.1-0.7-0.2-1.3-0.4-2v-0.3c0.1-2.1,0.3-4.1,0.3-6.2c-0.1-0.4-0.2-0.8-0.3-1.2V5.5
	l0.5-4.2h24.8v9h-14.7V12h3.5c2.5,0,5.1,0,7.6,0c0.3,0,0.7-0.1,1-0.2h0.2l1.4,0.6c0,2,0.1,4.3-0.1,6.6c0,0.8-0.9,1.2-1.8,1.2h-11.9
	v2.2h13.8c1.5,0,2.1,0.9,1.7,2.4c-0.1,0.4-0.2,0.8-0.2,1.2L134.6,26.2z"/>
<path class="st0" d="M34.8,22.8l1.4-0.6v-0.9h-3v-1c-0.9,0.1-1.8,0.1-2.8,0c-0.6-0.2-1.3-0.4-1.9-0.7c-0.4-0.1-0.8-0.2-1.2-0.2
	c-0.4,0-0.9,0-1.4,0l0.1-0.9l-0.6-0.1c-0.6,0-1.1,0.2-1.5-0.6c-0.1-0.3-0.9-0.3-1.2-0.5l-1.3-1c-0.3-0.5-0.7-1.1-1-1.7
	c-0.1-0.2-0.1-0.4-0.1-0.7c0-2.4,0-4.8,0-7.3l0.9-0.2l0.1-1c1.7,0.1,1-1.2,1.2-1.9l1.9-0.2l-0.1-0.6l1.3-0.9
	c0.1-0.1,0.2-0.1,0.3-0.1c1.5,0,2.8-0.9,4.2-1.1c2.3-0.2,4.7-0.2,7-0.1l0.1,0.8h4l0.4,1.1h1.9l-0.1,0.9l1.9,0.1l0.1,1.1l1.1,0.1
	l-0.2,1.8l-0.6,0.1l-2.3,2.4v1.2l-1.4,1.5c-0.4,0-1.1,0-1.8,0c-0.5,0-0.9,0.1-1.1-0.6c-0.1-0.3-1.3-0.2-2.1-0.4c-0.2,0-0.3,0-0.5,0
	l-0.1-1.1h-4.9l-0.1,1l1.1,0.2l-0.1,0.8c0.1,0,0.2,0.1,0.4,0.1c1,0,1.9,0,2.9,0c0.3,0,0.8,0,1,0.2c0.8,0.9,1.8,0.6,2.8,0.7
	c0.5,0.1,0.9,0.3,1.4,0.5l-0.1,0.4h1.8l0.1,0.9h1.4l1.1,1.2c0.4,0.4-0.1,1.5,1.1,1.4c0.1,0,0.3,0.6,0.3,0.9c0,0.4,0,0.9,0,1.3
	l0.3-0.1c0.3,0.4,0.5,0.9,0.6,1.3c0.1,0.7,0.1,1.3,0,2c0,0.3-0.1,0.8-0.2,0.8c-1.2,0.4-0.7,1.3-0.8,2.1c-0.1,0.9,0,0.9-0.9,0.9
	l-0.9,1.4h-0.1L43,29.2c-1.3-0.2-2.1,1.8-3.7,0.9l0.1,0.5c-0.4,0.3-0.9,0.5-1.4,0.6c-3.3,0.1-6.6,0-10,0c-0.6,0-1.2,0.1-1.4-0.7
	c-0.1-0.1-0.4-0.2-0.7-0.3c-0.6,0-1.2,0-1.8,0v-0.9c-0.4,0-0.9-0.1-1.4,0c-0.6,0-1.2,0.1-1.4-0.7c-0.1-0.2-0.6-0.3-1.1-0.4l-0.1-1
	c-1.3,0.1-2-0.4-1.9-1.6c0.7-0.5,1.3-1,1.9-1.6c0.6-0.6,1.1-1.4,1.3-2.3c0.1-0.6,1-1,1.6-1.5c0.2-0.3,0.4-0.6,0.5-1l3,1.6l-0.2,0.3
	h1.9l0.3,1.3c1.3,0,2.7,0,4.1,0c0.3,0.1,0.7,0.2,0.9,0.3l0.2,0.1l0,0l0.2,0.2h0.3l0.2-0.2l0,0L34.8,22.8z"/>
<path class="st0" d="M67.6,0.7l1.4,0.8l0.1,1.4C71,3.4,70,5.1,70.4,6.2l0.8-0.1V8l0.4-0.1c0.3,0.4,0.4,0.8,0.6,1.3
	c0.1,0.8,0,1.5,0.8,2.1c0.3,0.3,0.2,1.1,0.4,1.8l0.8,0.3v1.6c1.7,0.6,0.6,2.2,1.1,3.2c0.7-0.1,1.2,0,1.1,1c0,0.4,0.4,0.7,0.6,1.1
	c0.2,0.2,0.3,0.5,0.3,0.8c0.1,0.8-0.1,1.6,0.8,2.2c0.4,0.3,0.2,1.2,0.4,2l0.8,0.2l0.1,1.7l0.8,0.2c0.1,1,0.2,2,0.2,2.9
	c0,0.7-0.2,1.1-1.1,1.1c-2.7-0.1-5.4,0-8.2,0c-1,0.1-1.8-0.5-2-1.5c-0.1-0.3-0.5-0.4-0.8-0.8l-0.1-1.8h-9.7v1.9l-1,0.1l-0.6,1.9H47
	c-0.2,0-0.4,0-0.6-0.1c-0.5-0.5,0.1-2.8,0.7-3c0-0.4,0.1-0.9,0.1-1.3s0-0.9,0-1.4l0.9-0.3v-1.6l0.5-0.1c0.5-1.1,0.9-1.9,1.2-2.8
	c0.1-0.6,0.3-1.3,0.5-1.9c0.3-0.4,0.5-0.8,0.6-1.3c0-0.8,0-1.5,1.2-1l0.2-3.1l0.8,0.1v-1.9l0.9-0.2V9.1L55.2,9c0.3-1-0.5-2.3,1-2.9
	c0.2-0.7-0.5-1.9,1-1.9c0-1.2-0.2-2.3,1.3-3c1.3-0.5,2.8-0.8,4.2-0.7c1.6,0,3.2,0.1,4.8,0.2L67.6,0.7z M64.4,15.1l-2.2,0.2v2.6
	l-1,1.1l0.2,0.3h3.9l0.2-0.3l-1-1L64.4,15.1z"/>
<path class="st0" d="M180.2,105.2v8.1h-6.8v42.7c-2.9,2.1-6,0.9-9.2,1.3v-44h-7v-8.1H180.2z"/>
<path class="st0" d="M95.2,5.3V2.6l1.3-1.4h10.6c0.4,2.4,0.3,2.9-0.8,3.2c0.1,0.5,0.1,0.9,0,1.4c-0.1,0.4,0.3,1.3-0.8,1
	c-0.2,0.2-0.3,0.5-0.4,0.8c0,0.5,0,0.9,0,1.4l-0.9,0.2l0.3,0.2c-0.4,0.9-0.9,1.9-1.3,2.8c-0.1,0.3,0,0.7-0.1,1.1
	c-0.1,0.3-0.3,0.6-0.6,0.9c-0.1,0.1-0.3,0.2-0.3,0.3c0.4,1.7-1.6,2.8-0.9,4.6l-1,0.2c0,0.8,0.2,1.6-0.8,2.2
	c-0.5,0.4-0.4,1.6-0.6,2.6c-1.5,0.1-0.5,1.5-0.9,2.2l-0.8,0.1l-0.2,2.9c-0.9,0.2-0.9,0.2-0.9,1.9h-10c-0.2-0.3,0.4-1.5-0.9-0.7v-2
	c-1.8-0.2-0.6-1.6-1.1-2.4L83.4,26v-2.6c-1.8-0.1-0.4-1.6-1.2-2.3L81.4,21c0.2-1.7-0.1-2.7-1-2.9v-1.6c-1.7-0.7-0.6-2.1-1.1-3.2
	l-0.8-0.1c0-0.4,0-0.9,0-1.3c0-0.2,0-0.6-0.1-0.6c-1.1-0.3-0.7-1.2-0.8-1.9c0-0.4,0-0.7,0-1.1L76.5,8V6.3l-1.1-0.2
	c-0.1-0.7-0.2-1.4-0.2-2c0-0.4,0.4-1-0.5-1c-0.2-0.6-0.3-1.2-0.3-1.9h12c-0.1,0.7,0,1.4,0.2,2.1c0.5,0.9,0.7,1.9,0.7,2.9
	c0,0.2,0.1,0.3,0.2,0.4c1.2,0.6,0.9,1.7,0.9,2.7h0.9v2.8c1.9,0.5,0.5,2.1,1.3,3.2l0.7-0.6c0.8-0.8,1.2-1.9,1-3
	c0-0.1,0.5-0.3,0.9-0.6V8.1c1.7,0.2,1.1-1,1.2-1.8C94.4,5.8,93.9,4.8,95.2,5.3z"/>
<path class="st0" d="M175.2,1.3v9.1h-8.8v20.9h-10.1V18.6c0-2.2,0-4.5,0-6.7c0-1.4,0-1.5-1.4-1.5h-7.7v-9L175.2,1.3z"/>
<path class="st0" d="M297.6,188.6l-0.1-0.2l0.3,0.2h-0.1L297.6,188.6z"/>
<path class="st0" d="M369.1,117.5c-0.3-0.1-0.7-0.2-1-0.3c-1.8-0.1-3.6-0.1-5.4-0.2c-0.9-0.1-1.8-0.7-2.7-0.8c-1.6-0.1-3.2,0-4.7,0
	l-0.5-1.5l-0.2-0.2c-0.2-0.2-0.3-0.5-0.4-0.7c-0.2-0.5-0.2-1.1-0.4-1.6c-0.2-0.3-0.4-0.6-0.7-0.8l0.2-0.2l-1-0.1l-0.2-0.9l-1-0.2
	l0.1-0.8l-1.9-0.5v-1.3l-0.3,0.1c-0.3-0.5-0.5-1-0.6-1.6c0-0.6,0-1.3-0.1-1.9c-0.3-0.9-0.7-1.7-1.2-2.5c-0.3-0.3-1.5-0.3-1.5-0.5
	c-0.3-1.2-1.2-0.6-1.8-0.8c-0.1,0-0.2-0.1-0.3-0.2v-1h-1.8c0,0-0.1-0.1-0.1-0.1c-0.1-0.3-0.1-0.6-0.1-0.8l-1-0.1l-0.2-0.9
	c-0.3,0-0.7,0.1-0.8-0.1c-0.7-0.7-1.3-1.5-1.9-2.3c-0.7-1.4-1.8-2.5-3.2-3.1l-0.1-0.5c-0.4-0.1-0.7-0.2-1.1-0.4
	c-0.6-0.5-1.2-1.1-1.8-1.5c-0.9-0.6-2.2-0.7-2.3-2.2h-2.2V86c-0.5,0-1,0-1.5,0c-0.4,0-1.1-0.1-1.1-0.3c-0.2-0.9-0.8-0.6-1.4-0.7
	c-0.3,0-0.8,0-1-0.2c-1-1-2.1-0.6-3.3-0.8c-0.6-0.1-1.1-0.4-1.7-0.6l0.1-0.2h-12.9v0.9H300l-0.1,0.9h-2.8l0.1,0.3
	c-1,0.5-2.1,1.1-3.1,1.6c-0.2,0.1-0.4,0-0.6,0c-0.2,0-0.3,0-0.5,0.1c-1.1,0.7-2.2,1.5-3.3,2.2c-0.5,0.3-1,0.6-1.7,1.1
	c-0.4,0.5-0.8,1-1.3,1.5c-0.6,0.5-1.2,0.9-1.9,1.3v0.6l-2.8,2.7l-0.1,0.7l-0.8-0.1l-0.1,1c-0.8-0.1-1.3,0-0.9,1h-2.2l-0.1,1
	c-0.6,0.5-1.7-0.2-2,1.1c0,0,0,0-0.1,0c-1,0.1-1.8,1-1.7,2.1c0,0.9-0.2,1.6-1.3,1.8c0.7,1.6-0.4,3-1.2,4c-0.8,1-2.2,1.5-3.5,2.3
	c0,0.5-0.1,1.1-0.1,1.8c-2.1-0.2-0.7,1.5-1.3,1.9l-1.1,0.7c-1.7,0.6-3.7,0-5.5,0.9c-1.1,0.5-2.4,0.3-3.7,0.4
	c-1.2,0.1-2.7-0.2-3.7,0.4c-0.8,0.6-1.8,0.9-2.8,0.8c0,0.3,0.1,0.6,0.1,0.9c0,0.2-0.1,0.4-0.2,0.5c0,0.1,0,0.1,0,0.2v0.3
	c0,0.1,0,0.1,0,0.2v1l-0.2,0.3l0,0.9l-0.3,0.3v0.3l0.3,0.3l0.1,0.2v0.7l0.2,0.3v0.7l-0.2,0.3v0.7l0.2,0.3v0.7l-0.2,0.3v0.7l0.2,0.3
	v0.7l-0.2,0.3v0.7l0.2,0.3v0.7l-0.2,0.3v0.7l0.2,0.3v0.7l-0.2,0.3v0.7l0.2,0.3v0.6l-0.2,0.3v0.7l0.2,0.3v0.7l-0.2,0.3v0.7l0.2,0.3
	v0.7l-0.2,0.3v0.7l0.2,0.3v0.7l-0.2,0.3v0.7l0.2,0.3v0.7l-0.2,0.3l0,0.9l-0.3,0.3v0.3l0.3,0.3l0.1,0.2v0.7l0.2,0.3v0.7l-0.2,0.3v0.7
	l0.2,0.3v0.7l-0.2,0.3v0.7l0.2,0.3v0.7l-0.2,0.3v0.7l0.2,0.3v0.7l-0.2,0.3v0.7l0.2,0.3v0.7l-0.2,0.3v0.7l0.2,0.3v0.7l-0.2,0.3v0.7
	l0.2,0.3v0.7l-0.2,0.3v0.6l0.2,0.3v0.7c0.2,0.9,0.2,0.9-0.5,1.3c-0.1,0.1-0.2,0.2-0.2,0.4c0,0.8-0.5,0.8-1,0.8
	c-0.4,0-0.8,0.1-1.1,0.2l-5,1.7c-0.9,0.3-1.8,0.7-2.7,1c-0.4,0.1-1,0-1.3,0.2c-0.7,0.8-1.9,1.2-3,1l0.1,1h-2.8l-0.1,0.8
	c-1,0.1-1.9,0.2-2.8,0.4c-0.5,0.2-0.9,0.4-1.3,0.6l-1.2,0.6l0.1,0.4c-0.5,0-1,0-1.4,0c-0.4,0.1-1.1,0.2-1.2,0.4
	c-0.2,0.6-0.7,0.5-1.1,0.5c-0.4,0-0.8,0.1-1.3,0.1l0.3,0.9l-3,0.3c-0.1,0-0.3,0-0.4,0.1c0,1-0.7,0.6-1.2,0.7
	c-0.4,0.1-0.7,0.2-1.1,0.4c-0.6,0.2-1.1,0.5-1.7,0.7c-0.2,0.1-0.7,0-0.7,0.1c-0.5,0.9-1.7,0.4-2.3,0.9c-0.9,0.6-2,0.9-3.1,1
	c-0.1,0,0,0.1-0.3,0.3c-0.2,0.2-0.5,0.5-0.7,0.5c-0.9,0.1-1.9-0.2-2.6,0.9c-0.3,0.4-1.4,0.3-2.2,0.4l-0.1,0.8h-2.8
	c0.1,1.1-0.7,1-1.3,1s-1.7,0-1.7,0.2c-0.3,1.1-1,0.7-1.6,0.8c-0.6,0-1.2,0.1-1.8,0.2c-0.7,0.2-1.5,0.6-2,0.7
	c-0.5,0.1-1.4-0.2-1.6,0.1c-1,1.3-2.3,0.8-3.5,0.9c-0.2,0-0.4,0.3-0.6,0.5l-0.2,0.3l-0.3,0.2c-1.7,0.5-3.6,0-5.2,1.2
	c0,0-0.2-0.1-0.3-0.1c-1.1,0.1-2.2,0.2-3.2,0.3s-1.8,0.6-2.7,0.7c-1.5,0.2-3-0.3-4.4,0.8c-0.3,0.1-0.6,0.2-0.9,0.2
	c-2.5,0.1-5.1-0.4-7.4,0.9c-0.2,0.1-0.4,0.1-0.5,0.1c-3.2,0-6.4,0.1-9.6,0c-5.1-0.2-10.2,0.4-15.3-0.6c-2.2-0.3-4.5-0.4-6.7-0.4
	c-0.7,0-1.7,0.2-2.1-0.2c-0.8-0.9-1.7-0.7-2.5-0.7l-4.2-0.3l-0.2-0.2c-0.2-0.2-0.3-0.4-0.5-0.4c-0.8,0-1.6,0-2.5,0
	c-0.6,0-1.6,0.1-1.9-0.3c-0.5-0.7-1.2-0.5-1.8-0.6c-0.9-0.2-1.8,0-2.7-0.2c-0.5-0.2-1-0.4-1.4-0.7l0.2-0.3c-1,0-2.1,0-3.1,0
	c-0.3,0-0.5-0.2-0.8-0.3c-0.4-0.3-0.8-0.5-1.2-0.6c-0.8-0.1-1.6,0-2.4,0c-0.3,0-0.8-0.2-0.9-0.4c-0.2-0.7-0.7-0.5-1.2-0.5
	c-1.1,0-2.5,0.4-3.2-0.1c-1.3-1-2.7-0.7-4.1-0.8c-0.4,0-1.2-0.1-1.2-0.3c-0.1-1.2-1-0.6-1.5-0.7c-0.9,0-1.8,0-2.8,0
	c-0.3-0.1-0.5-0.2-0.8-0.3c-0.5-0.3-1-0.5-1.6-0.6c-1.3-0.1-2.7,0-4,0v-1.2c-1.4,0-2.8,0-4.1,0c-0.8,0-1.7-0.2-2.5-0.3l-0.2-0.2
	c0-0.1,0-0.2,0-0.2c-1.6-0.1-3.2-0.2-4.7-0.3c-1.1-0.1-2.1-0.2-3.2-0.3l-0.2-0.2c0-0.1,0-0.2,0-0.2c-1.1-0.1-2.2-0.3-3.4-0.3
	c-6.1-0.1-12.1-0.2-18.1-0.2c-3,0-5.9,0.1-8.9,0.3c-0.7,0-1.4,0.5-2.1,0.7c-1,0.1-2,0.2-3,0.2c-0.6,0-1.4-0.1-1.6,0.1
	c-0.8,1.1-2,0.7-3,0.9c-0.5,0.1-1.3,0.1-1.4,0.4c-0.3,0.9-1,0.8-1.6,0.8h-1.8l-0.1,0.8c-0.8,0.1-1.5,0.2-2.2,0.4
	c-0.8,0.2-1.5,0.7-2.5,1.1c-0.2,0.5-0.2,0.5-2.4,0.6l-0.1,0.9c-0.8,0.1-1.8-0.5-1.8,1h-2l0.1,1c-0.5,0-0.9,0.1-1.3,0.3
	c-0.7,0.5-1.2,1.2-1.9,1.7c-1.2,0.8-2.6,1.4-3.8,2.1c-0.5,0.4-0.8,0.8-1.1,1.3c-0.1,0.2,0,0.7,0,0.7c0.8,0,2.1,0.2,2.3-0.2
	c0.6-1.2,1.5-0.8,2.3-0.9c0.5-0.1,1-0.2,1.5-0.3c0.5-0.3,1.1-0.5,1.7-0.6c1.9,0,3.8,0,5.6,0c0.3,0,0.6-0.3,0.9-0.5l0.2-0.2l0.3,0.2
	c0.4-0.1,0.7-0.4,1.1-0.4c2.7,0.1,5.4-0.5,8.1,0.4l0.2-0.2l0.1,0.2l0.3,0.1c0.4,0.2,0.8,0.3,1.2,0.4c2.5,0,4.9,0,7.4,0
	c0.4,0,1,0,1.2,0.3c0.7,0.9,1.7,0.7,2.6,0.7c1.2,0,2.4,0,3.6,0c0.3,0,0.6,0.3,0.9,0.5l0.2,0l0.2,0.2c0,0.1,0,0.2,0,0.2l4.7,0.5
	c0.5,0.3,0.8,0.6,1.1,0.6c1.1,0.1,2.4-0.3,3.2,0.2c1.5,0.9,3.1,0.8,4.7,1c0.2,0,0.3,0.1,0.4,0.2c0.3,0.2,0.6,0.4,1,0.5
	c0.8,0.1,1.9-0.1,2.4,0.3c0.6,0.6,1.4,0.8,2.2,0.8c0.6,0,1.6,0,1.6,0.2c0.3,1.2,1.2,0.7,1.8,0.8c0.4,0.1,1.1,0,1.3,0.3
	c1,1.3,2.5,0.9,3.8,1v0.9c0.8,0,1.5,0,2.2,0c0.3,0,0.7,0,0.7,0.2c0.2,1,1,0.7,1.5,0.8c0.9,0.1,1.8-0.2,2.4,0.7
	c0.2,0.2,0.7,0.1,1.1,0.2c0.5,0.2,1.1,0.3,1.6,0.5c0.5,0.2,1,0.3,1.6,0.5c0.3,0.1,0.8,0,1,0.2c0.7,0.7,1.8,0.9,2.8,0.8l0.1,1
	c1.1,0.1,2.5-0.1,3,0.4c0.8,0.8,1.6,0.6,2.4,0.8c0.3,0,0.5,0.4,0.9,0.7l4.9,1.3c0.1,0,0.2,0.1,0.2,0.1c0.5,1,1.3,0.7,2.1,0.8
	c0.3,0,0.7,0.1,1,0.3c0.3,0.2,0.6,0.5,0.9,0.6c0.6,0.1,1.1,0.1,1.7,0.2v1.1h2.9l0.1,1h2.8v0.9c0.9,0.1,2-0.2,2.5,0.3
	c0.9,0.8,1.9,0.7,2.9,0.8c0.2,0,0.4,0.2,0.7,0.4c0.3,0.2,0.6,0.5,0.9,0.5c0.7,0.1,1.8-0.2,2,0.1c1,1.6,2.4,0.6,3.6,0.9
	c0.2,0,0.3,0.1,0.5,0.1l-0.1,1.1c1.4,0,2.6,0,3.9,0c0.5,0,1.3,0.2,1.3,0.3c0,1,0.8,0.6,1.2,0.6c1.5,0.2,3.1-0.3,4.5,0.8
	c0.2,0.1,0.4,0.1,0.6,0.1c1.9,0.1,3.8,0.1,5.6,0.3c1.2,0.1,2.3,0.7,3.5,0.7c5.8,0,11.5,0,17.3,0c1.2,0,2.4-0.2,3.6-0.3
	c0-0.1,0-0.2,0-0.2l0.2-0.2c1.5-0.1,3-0.2,4.5-0.3c1.1-0.1,2.3-0.2,3.4-0.4c0.6-0.1,1.2-0.4,1.8-0.5c0.8-0.1,1.7,0,2.5-0.2
	c0.8-0.2,1.5-0.6,2.4-0.8c0.9-0.2,1.8,0,2.7-0.2c0.3,0,0.6-0.4,0.9-0.6l-0.1-0.2l4.2-0.4l0.1-0.7c1.3-0.6,3,0.7,4-1.2h2.6l0.1-0.9
	h3.3v-0.8h2.8l0.2-1h2.9l-0.3-0.9c1.2-0.3,2.5-0.2,3.4-1.2c0.1,0,0.2,0,0.4,0c1.6,0.2,2.6-1.3,4.1-1.4c0,0,0.1-0.1,0.1-0.1
	c0.3-0.1,0.6-0.3,0.9-0.4c0.5-0.2,1.5-0.2,1.5-0.4c0.1-0.8,0.4-0.7,1-0.5c0.3,0.1,0.8,0,0.9-0.2c0.6-1.3,1.9-0.7,2.9-1.1v-1h2.4
	l0.1-1h1.8l0.1-0.6c1-0.4,1.9-0.8,2.8-1.1c0.5-0.2,1.3,0,1.4-0.3c0.5-1.3,1.6-0.8,2.5-0.9l0.1-1h1.8l0.1-0.8c1.5-0.5,2.8-1,4-1.4
	c0.1,0,0.1-0.2,0.1-0.2c0.2-0.2,0.4-0.4,0.7-0.6c0.4-0.2,0.8-0.2,1.2-0.3c1.5-0.5,2.7-1.8,4.5-1.8c0.1,0,0.1-0.2,0.3-0.3
	s0.4-0.5,0.6-0.5c0.6-0.1,1.2-0.1,1.8-0.1v-1c0.7-0.1,1.7,0,1.9-0.3c0.5-0.8,1-0.6,1.7-0.8c0.5-0.1,0.9-0.3,1.4-0.6l-0.1-0.4h1.8
	c0.5-1.8,2-0.5,2.9-1.1c0-0.3,0.1-0.5,0.1-0.9h2.3l0.1-0.9h2.9c-0.4-0.9,0.1-1.1,0.8-1.2c0.6-0.1,1.3-0.3,1.9-0.5
	c0.4-0.1,0.7-0.2,1-0.3c0.5-0.3,1.1-0.5,1.7-0.7c1.4-0.4,2.7-0.8,4-1.2c1.6-0.5,3.3-0.9,5-1.3c0,0,0.1,0,0.1,0
	c0.3-0.9,1.1-0.6,1.7-0.7c0.5-0.1,1-0.2,1.5-0.2l0-1.1h3.3v-1h3.4c0.1,0,0.4-0.1,0.4-0.2c0.2-1,0.8-0.8,1.6-0.8s1.5,0,2.3,0l0.1-0.8
	c0.8,0,1.5-0.1,2.2-0.1c0.9-0.1,2.1,0.2,2.6-0.3c1.3-1.1,2.6-0.4,3.9-0.6c0.2,0,0.3,0.1,0.5,0s0.5-0.2,0.5-0.3
	c0.2-0.7,0.8-0.6,1.4-0.6c1.2,0,2.3,0,3.5,0c0.1,0,0.2,0,0.4-0.1v-1.2c2.1,0,4.1,0,6.1,0c0.7,0,1.1-0.7,1.5-0.7
	c1.9-0.2,3.8-0.1,5.6-0.2c1.6-0.1,3.3-0.3,4.9-0.5l0.2-0.2l0.3,0.2c0.8-0.1,1.6-0.1,2.4-0.1c1,0.1,2-0.4,2-0.9
	c-1.1-0.8-2.1-1.7-3-2.8h-0.2l-0.2-0.2c-0.1-0.2-0.2-0.5-0.4-0.6c-1-0.5-1.8-1.5-2.1-2.6l-0.7,0l-0.5-1.2c-0.5,0.2-0.8,0.2-0.5-0.5
	c0,0-0.3-0.3-0.4-0.3c-0.7-0.2-1.4-0.4-2.1-0.5l-0.3-0.2l-0.2-0.1l-2.1-0.7v-31.7c1.5,0,3-0.1,4.5,0c0.2,0,0.7,0.4,0.7,0.6
	c0,2.1-0.1,4.1-0.1,6.3c0,2.2,0,4.5,0,6.7v10.6l1.9-0.4v-1.6c1.6-0.1,0.7-1.5,1.2-2.1h0.5c0.5-0.5,0.9-0.7,1.1-1.1
	c0.3-0.8,1.3-1.1,1.3-2.3c-0.1-5.1,0-10.2,0-15.3v-1.2h5.1v13.9h5l-0.1-0.9l1-0.2v-12.8h5.1v8.9c2.3,0.5,4.1,0.1,5.2-2l0.1-0.2
	l0.3-0.3v-0.3l-0.3-0.3v-2l-0.1-0.2l0-1.4v-0.3c-0.1-0.1-0.1-0.2-0.1-0.3c-0.2-0.8,0.3-1.5,1-1.7c1.2-0.1,2.4-0.2,3.7-0.1
	c0,2.1,0,4.1,0,6.1c0,1.3,0.5,1.8,1.8,1.8c3.7,0,7.3,0,11,0c0.5,0,1.5,0,1.5,0.3c0.5,1.4,1.7,0.8,2.5,1l-0.2,0.3l3.4,1.9v0.5h1.9
	v-20.5C371,118.2,370.1,117.9,369.1,117.5z M275.2,156.3h-1.4c-0.6,0-1.2-0.1-1.5,0.7c-0.1,0.2-0.6,0.2-1,0.4l-0.1-1.2l-0.8,0.1v-29
	l4.7,0V156.3z M286.2,155.2c-1.6,0.1-3.1,0.3-4.6,0.4c-0.1,0-0.3-0.2-0.3-0.4c-0.1-0.4-0.1-0.7-0.1-1.1v-26.9l5-0.1V155.2z
	 M297.1,155.3l-0.7-0.1l-0.1,1.1c-1.2-0.6-2.3-1.7-3.8-1v-28.1l4.7,0V155.3z M307.2,157.2c-1.3,0-2.6,0-4.1,0
	c-0.2-0.7-0.4-1.4-0.5-2.2v-0.2l0.1-2.2v-0.2l-0.2-0.2v-0.3c0-0.1,0-0.1,0-0.2v-0.3l0.2-0.2V151v-0.2v-0.2l-0.2-0.2V150
	c0-0.1,0-0.1,0-0.2v-0.3l0.2-0.2V149v-0.2v-0.2l-0.2-0.2V148c0-0.1,0-0.1,0-0.2v-0.3l0.2-0.2v-0.2v-0.2v-0.2l-0.2-0.2v-0.3
	c0-0.1,0-0.1,0-0.2v-0.3l0.2-0.2v-0.2V145v-0.2l-0.2-0.2v-0.3c0-0.1,0-0.1,0-0.2v-0.3l0.2-0.2v-0.2v-0.2v-0.2l-0.2-0.2v-0.3
	c0-0.1,0-0.1,0-0.2v-0.3l0.2-0.2v-0.2v-0.2v-0.2l-0.2-0.2v-0.3c0-0.1,0-0.1,0-0.2v-0.3l0.2-0.2v-0.2v-0.2V139l-0.2-0.2v-0.3
	c0-0.1,0-0.1,0-0.2V138l0.2-0.2v-0.2v-0.2V137l-0.2-0.2v-0.3c0-0.1,0-0.1,0-0.2v-0.3l0.2-0.2v-0.2v-0.2v-0.2l-0.2-0.2v-0.3
	c0-0.1,0-0.1,0-0.2v-0.3l0.2-0.2v-0.2v-0.2v-0.2l-0.2-0.2v-0.3c0-0.1,0-0.1,0-0.2v-0.3l0.2-0.2v-0.2v-0.2v-0.2l-0.2-0.2v-0.3
	c0-0.1,0-0.1,0-0.2v-0.3c0-0.1,0-0.1,0-0.2v-0.3c0-0.1,0-0.1,0-0.2v-0.3c0-0.1,0-0.1,0-0.2v-0.3c0-0.1,0-0.1,0-0.2v-0.3
	c0-0.1,0-0.1,0-0.2v-0.3l0.2-0.2h0.2c0.1-0.1,0.2-0.4,0.3-0.4c1.3-0.1,2.6-0.1,3.9,0c0.3,0,0.7,1,0.8,1.6c0.1,1.1,0,2.3,0,3.5
	c0,0.7,0,1.5,0,2.2c-0.1,2.2-0.2,4.5-0.2,6.7c0,1.6,0.2,3.2,0.2,4.8c0,0.4-0.1,0.8-0.3,1.1v0.2l0.2,0.2v0.3c0,0.1,0,0.1,0,0.2v0.3
	l-0.2,0.2v0.3v0.2v0.2l0.2,0.2v0.3c0,0.1,0,0.1,0,0.2v0.3l-0.2,0.2v0.3c0,1.4,0.1,2.7,0.1,4.1l0.2,0.3c0,0.1,0,0.1,0,0.2v0.3
	c0,0.1,0,0.1,0,0.2l-0.2,0.3l0.4,0.9C307.8,157,307.5,157.1,307.2,157.2z"/>
</svg>
