<?xml version="1.0" encoding="utf-8"?>
<!-- Generator: Adobe Illustrator 24.1.0, SVG Export Plug-In . SVG Version: 6.00 Build 0)  -->
<svg version="1.1" id="Layer_1" xmlns="http://www.w3.org/2000/svg" xmlns:xlink="http://www.w3.org/1999/xlink" x="0px" y="0px"
	 viewBox="0 0 288 373.6" style="enable-background:new 0 0 288 373.6;" xml:space="preserve">
<style type="text/css">
	.st0{fill:#FFFFFF;}
	.st1{fill:#002B1F;}
	.st2{fill:#803808;}
	.st3{fill-rule:evenodd;clip-rule:evenodd;fill:#FFFFFF;}
</style>
<path class="st0" d="M55.5,209.2L55.5,209.2C55.7,209.2,55.7,209.1,55.5,209.2z"/>
<path class="st0" d="M193.9,184.1c-1.3,0.4-3.3-1.6-4.1-2.8C193,177.4,193.9,184.2,193.9,184.1z"/>
<path class="st0" d="M181.7,184.8c-0.8,0.7-2.2,0.2-3.3,0.2c-0.3,0.4-0.7,0.7-0.8,1.3c1.8,0,3.2-0.1,4.7,0l0.8,3.2
	c-3.1,0.1-5.8,0-8.9,0.2l-1,1.1l10.3,0.1l0.4,2.9l-13.9,0.1c-0.2,0.5-1.1,1-1.1,1.4c4.8,0.4,10.1-0.4,15.2-0.1l0.1,2.2
	c-6,0.5-12.2,0.2-18.3,1.1c0.6-2,1.4-3.1,2.3-4.9c3.9-4.4,7.2-8.5,12.6-12.2C180.9,182.5,181.5,183.8,181.7,184.8z"/>
<path class="st0" d="M166,184.7c0,1.5-3.7,3-1.7,4.6c-0.4-0.1-0.1,0.4-0.4,0.4c-1.1,0.2-2.4-0.1-3.9,0.2
	C160,187.4,163.7,185,166,184.7z"/>
<path class="st0" d="M152.8,185.6c-2,1.8-5.6,4.9-10.8,8.6c-1,0.3-1.1-1.8-2.5-0.5l-0.6-0.5C142.8,189.9,151.2,186.3,152.8,185.6z"
	/>
<path class="st0" d="M168.9,188.8c-1,0.9-2.1,2.3-3.6,1.9c-0.2-1.5,1.8-2.2,2.3-3C167.8,188.2,168.1,188.7,168.9,188.8z"/>
<path class="st0" d="M191.4,189.1l-1.2,0.1c0,0-0.5-0.4-0.1-0.7s1-0.2,1.3,0C191.7,188.6,191.4,189.1,191.4,189.1z"/>
<path class="st0" d="M210.6,192.4l1.1,3.1l-5-6.5C208.7,190,209.9,190,210.6,192.4z"/>
<path class="st0" d="M208,190.7l1.1,3.1l-5-6.5C206,188.2,207.2,188.3,208,190.7z"/>
<path class="st0" d="M227.1,201.3l-0.3,0.6l-4.9-5.4C224,196.5,226.4,198.9,227.1,201.3z"/>
<path class="st0" d="M195.2,190.8c2.5,1.1,6.5,0.8,7.9,3.9c-1.1,0.2-4.3-0.2-6.5,0c0,0.4,0,0.8,0,1c2.3,0,8.3-0.8,9.9,2.3
	c0.5-0.2,1.7,0.8,2.1,1.1c-9.6-0.2-11.2-0.1-14.2-0.3c-0.1-0.9,0-3-0.4-3.9c-1.6-1.1-2.3-2.4-2.9-4.3
	C192.8,190.8,193.9,190.2,195.2,190.8z"/>
<path class="st0" d="M156.7,190.9c-1,1.3-4.1,2.9-3.2,4.5c-1.7-0.2-3.3,0.3-5.4-0.1C151.1,194.4,154.1,192.7,156.7,190.9z"/>
<polygon class="st0" points="147.2,193.8 150.3,191.9 151.4,192.1 "/>
<path class="st0" d="M188.5,193.4c0.5,0.5,1.1,1.1,1.6,1.6c0.7,0.8,1.8,1.7,2.1,2.8c-1,0.2-0.9,1.1-0.2,1.5c0.9,1.5,2,1,2.3,0.5
	c1.1-0.2,1.4-0.2,2.3,0.5l14.3,0.1c0.5,0.7,1.5,2,2.4,3.3c-3.5,0.2-6.3-0.1-10.5-0.4c-3.6-0.3-8.4-0.5-11.7-0.5
	c-0.7-2.5-2.7-6.4-3.4-7c0.5-0.5,1.2-0.8,1.2-0.8c-0.3-0.9-1.8-1.2-1-2.2C188.1,193,188.3,193.2,188.5,193.4z"/>
<path class="st0" d="M158.9,194.4c0.1,0.5-0.6,0.8-0.7,1.1h-0.8C157.7,195.3,158.4,194.4,158.9,194.4z"/>
<path class="st0" d="M159,198.7c0.9-0.9,2.8-2.6,4.5-2.1c-0.3,1.4-1.2,2.2-2.4,3l-20.3,0.1c4.5-3.8,7.9-2.9,12.6-2.7
	c0.3,1.2,1.8-0.8,4.4-0.3c-0.2,0.7-0.6,1.4-0.3,2.1C158.5,198.8,158.4,198.8,159,198.7z"/>
<path class="st0" d="M185.5,199.1c1.1,0.5,0.7,0.5,1.5,1.9l1.2,1.5l-26,0.8c0.6-0.9,1.9-3.1,3.1-3.7c5.8,0,10,0.9,15.6-0.7
	C182.2,198.7,184.5,198.7,185.5,199.1z"/>
<path class="st0" d="M146.3,201.2l14.6-0.1c-0.1,0.9-0.5,1.6-0.7,2.3c-10.4,0.4-29.8,0.6-31,0.3
	C134.3,202.1,138.4,200.1,146.3,201.2z"/>
<path class="st0" d="M212.6,217.8c-0.3,0.9-0.3,2.1-1,2.7l-5.9-0.8c0.1-0.2-0.1-0.3-0.2-0.6c-0.8,0.9-3.7,0.7-5.3,0.3
	c-0.1-0.3,0.2-0.9-0.2-1.1c-0.6,2.5-3.5,0.6-5.5,1.1c0.3-0.5,0-1,0.6-1.4l-0.6-0.6c0,3.4-4,1.5-5.9,1.6l0.9-2.4L212.6,217.8z"/>
<path class="st0" d="M213.1,220.6c-1.6-3.8,3.4-2.3,5.5-3C219.7,221.1,215.6,220.6,213.1,220.6z"/>
<path class="st0" d="M131.7,222.5c-0.1,0.5,0.3,0.6,0.5,0.8c1.8-1.5,4.6,0.7,7.2,0.3c0.6,0.5,0,1.6-0.6,2.2
	c-2.2-0.1-4.7-2.3-6.3-0.3l0.2,1.4h-2.8c-0.3-0.9,0.8-0.6,1.1-1c-0.8-2.6-6.6-0.3-4.7-4.1L131.7,222.5z"/>
<path class="st0" d="M191.9,222.3c0.1,3.9-3.8,1-5.5,1.8C186.1,221,190.1,222.1,191.9,222.3z"/>
<path class="st0" d="M197.4,222.5c-0.2,1-0.6,2.2-1.6,2.5c-0.9-0.7-2.2,0-3.1-0.6C191.4,221.4,195.8,222.3,197.4,222.5z"/>
<path class="st0" d="M203.3,223.3c0.5,2.8-3.7,1.7-5.5,1.7C197.5,221.3,201.3,223.7,203.3,223.3z"/>
<path class="st0" d="M210.6,223.9c-0.8,3.3-4.2,0.5-6.3,1.4C204.4,222.3,208.7,224,210.6,223.9z"/>
<path class="st0" d="M146.5,225c-0.4,0.6-0.4,1.4-1,1.8l-5.3-1l0.6-1.9L146.5,225z"/>
<path class="st0" d="M216.4,224.5c0,0.7-0.3,1.3-0.8,1.6l-4.5-0.6C211.1,222.3,214.7,224.8,216.4,224.5z"/>
<path class="st0" d="M223,224.7c0,3.3-3.8,1.6-5.5,1.7c-0.1-0.7,0.1-2.1,1.4-1.9C220.1,224.9,221.6,224.7,223,224.7z"/>
<path class="st0" d="M229.1,224.7c-0.2,0.9-0.8,1.7-1.4,2.5c-1.4-0.2-2.5-0.8-4.1-0.6C223.2,223.1,227.2,225.4,229.1,224.7z"/>
<path class="st0" d="M119,225.5c-0.7,1.6-3.2,0.5-4.1,1.1c-2.5,0.5-5.4,1.2-7.9,0.8v-0.6C110.9,226.4,114.9,225,119,225.5z"/>
<path class="st0" d="M152.8,226.1c0.3,3.5-3.5,1-5.4,1.4l0.4-2.3L152.8,226.1z"/>
<path class="st0" d="M159.1,228.9c-1.6,0.1-3.7-0.3-5.4-1c0.6-3.1,3.9,0.1,5.8-0.5L159.1,228.9z"/>
<path class="st0" d="M105.6,227.4c-1.1,1-2.8,1.9-4.5,1.9c-0.1-0.5-0.3-0.8-0.2-1.4C102.4,227.8,104.1,227.2,105.6,227.4z"/>
<polygon class="st0" points="164.7,229.6 160,229.2 160.3,227.8 165,228.6 "/>
<path class="st0" d="M87,228.2c-0.2,0.3-0.6,0.3-0.9,0.3v-0.6L87,228.2z"/>
<path class="st0" d="M144.6,228.5h-4.9v-0.6C141.3,228.2,143.1,228.2,144.6,228.5z"/>
<path class="st0" d="M201.3,228.8c-0.9,2.3-3.7,0.3-5.5,0.6C196.4,226.3,199.2,229.5,201.3,228.8z"/>
<path class="st0" d="M100.2,229c-0.6,1.4-2.9,0.5-4,1.1c-0.1-0.5,0-1-0.1-1.5C97.5,228.8,99.7,227.3,100.2,229z"/>
<path class="st0" d="M94.7,229.3c0.2,1.3-1.8,0.9-2.8,1.4c-0.5-0.3-0.6-0.8-0.6-1.4C92.4,229.1,94,228.1,94.7,229.3z"/>
<path class="st0" d="M123.4,228.8c0.4,1-0.8,1.4-1.1,1.9c-1-0.2-1.8,0.3-2.8,0.6c-0.5-0.3-0.2-0.9-0.2-1.4
	C120.4,228.8,121.8,228.8,123.4,228.8z"/>
<path class="st0" d="M170.7,231c-1.4,0.2-3.2-0.1-4.6-0.8l0.2-1.4C167.6,230,170.9,228.8,170.7,231z"/>
<path class="st0" d="M207.4,229.4c0.2,0.6-0.5,1-0.9,1.1l-4.1-0.3C202.6,227.4,205.7,229.6,207.4,229.4z"/>
<path class="st0" d="M90,229.6c0.2,2.2-2.5,0.6-3.6,1.4l-0.2-0.2C86.4,228.9,88.8,230,90,229.6z"/>
<path class="st0" d="M118.2,229.6c0.1,0.7,0,2.1-1.1,2.3c-1.3-0.5-2.2,0.8-3.2,0C114.3,230.5,116.5,230,118.2,229.6z"/>
<path class="st0" d="M213.7,229.6c0.6,0.6-0.1,1.3-0.6,1.7c-1.6-0.2-3.3-0.8-4.7-0.6C209,228.8,212,230.1,213.7,229.6z"/>
<path class="st0" d="M220,230c0.1,3-3.7,1-4.9,1.6C214.4,228.6,218.4,230.5,220,230z"/>
<path class="st0" d="M226.1,230.5c-0.5,2.4-3.7,1.1-5.3,1C221.3,229.2,224.5,230.4,226.1,230.5z"/>
<path class="st0" d="M232.2,230.2c-0.3,3.2-3.3,1.6-5.3,1.7C227.5,229.6,230.2,230.3,232.2,230.2z"/>
<path class="st0" d="M176.5,231.9v0.8c-1.1-0.3-4.8-0.2-4.1-2.2C173.8,230.9,175.7,230.5,176.5,231.9z"/>
<path class="st0" d="M199.6,232.4c0.1,2.8-2.4,1-3.8,1.1c-0.6-0.3-1.3-0.5-1.9-0.6C194.4,230.3,197.9,232.3,199.6,232.4z"/>
<path class="st0" d="M182.6,234.7c-0.6,0-4.8-1.4-4.8-1.6c-0.1-0.2,0-1,0.2-1.2c0.4-0.1,5.2,1.2,5.3,1.4
	C183.3,233.5,182.9,234.5,182.6,234.7z"/>
<path class="st0" d="M189.5,236.9c-0.6,0-4.8-1.4-4.8-1.6c-0.1-0.2,0-1,0.2-1.2c0.4-0.1,5.2,1.2,5.3,1.4
	C190.2,235.8,189.8,236.7,189.5,236.9z"/>
<path class="st0" d="M196.7,239c-0.7,0-4.8-1.4-4.8-1.6c-0.1-0.2,0-1,0.2-1.2c0.4-0.1,4.4,0.9,4.4,1.1
	C196.6,237.7,197,238.9,196.7,239z"/>
<polygon class="st0" points="187.9,241.4 182.6,239.7 182.8,238.7 188.1,240 "/>
<path class="st0" d="M106.9,232.6c-0.2,1.7-3,1-4.5,1.6c-0.5-0.1-0.1-0.7-0.2-1C103.8,233,105.5,232.4,106.9,232.6z"/>
<path class="st0" d="M142.4,232.7c-0.9,2.3-4.1,0.2-5.5,1C137.2,231.1,141.5,233.2,142.4,232.7z"/>
<path class="st0" d="M149.6,232.4c-0.7,2.1-3.7,0.8-5.5,1.1v-1.1H149.6z"/>
<path class="st0" d="M156.7,233.5l-5.7,0.2c0.5-1.9,3.8-0.7,5.7-1V233.5z"/>
<path class="st0" d="M163.4,233.5c-0.6,1.7-3.5,0.2-5.3,0.2C159,232,161.5,233.6,163.4,233.5z"/>
<path class="st0" d="M204.6,233.5c0.2,0.3-0.2,1.4-0.9,1.4l-3-0.6l0.2-1.4L204.6,233.5z"/>
<path class="st0" d="M100.7,233.4v0.8c-0.9,0.2-3.8,0.9-4.1-0.6C97.8,233.2,99.7,233.5,100.7,233.4z"/>
<polygon class="st0" points="169.3,235.1 164.4,234.9 164.7,233.8 169.3,234.3 "/>
<path class="st0" d="M94.8,234.1c0.5,2.1-2.1,0.5-2.8,1.4c-0.5-0.2-0.2-0.8-0.2-1.1C92.6,233.9,93.8,234.2,94.8,234.1z"/>
<path class="st0" d="M210.6,234.3c0.3,0.3-0.1,1.4-0.8,1.4c-1.5,0.2-2.5-0.3-3.8-0.6C206.6,233.5,208.8,234.7,210.6,234.3z"/>
<path class="st0" d="M90.8,235.7c-1.1,0.6-2.8,0.2-4.1,0.3v-1.7l4.1,0.3V235.7z"/>
<path class="st0" d="M175.4,236.8c-1.7-0.1-3.1-0.9-4.7-1.4C171.6,234.2,175.6,235,175.4,236.8z"/>
<path class="st0" d="M216.4,235.1c-0.5,2.5-2.9,0.8-4.5,0.9C212.3,234.1,215.1,235,216.4,235.1z"/>
<path class="st0" d="M120.9,235.7c-0.2,1.5-2.3,1.3-3,1.7c-0.3-0.2-0.3-0.6-0.3-0.9C118.5,235.7,119.9,236.3,120.9,235.7z"/>
<path class="st0" d="M124.5,240.4c-0.2,1.5-2.3,1.3-3,1.7c-0.3-0.2-0.3-0.6-0.3-0.9C122.1,240.4,123.4,241,124.5,240.4z"/>
<path class="st0" d="M223.3,235.7c-0.7,2.6-4.2,0.7-5.8,1.1C218,234.8,221.4,236,223.3,235.7z"/>
<path class="st0" d="M116.6,236.3c0.1,0.6-0.1,1.5-1.1,1.4h-1.1C114,236.4,115.8,236.7,116.6,236.3z"/>
<path class="st0" d="M181.3,239c-1.6,0.2-3.1-1.1-4.7-1.6l0.3-1.1C178.5,236.7,180.9,237.3,181.3,239z"/>
<path class="st0" d="M186.8,244.6c-1.6,0.4-3.2-0.8-4.8-1.1l0.2-1.2C183.8,242.6,186.3,243,186.8,244.6z"/>
<path class="st0" d="M146.8,238.2l-5,0.2c-0.2-0.5,0.3-1.3,1.1-1.4h3.9V238.2z"/>
<polygon class="st0" points="154,238.8 148.4,238.8 148.7,237.4 154,237.6 "/>
<path class="st0" d="M161.1,238.4c-0.6,1.7-3.8,0.7-5.5,0.6c-0.5-0.3-0.2-0.9,0.3-1.1L161.1,238.4z"/>
<path class="st0" d="M167.1,240.4c-1.6,0.1-3.7-0.1-5.2-0.8c1.3-1.1,3.4-0.5,5.5-0.4L167.1,240.4z"/>
<path class="st0" d="M201.9,240.6c-1.3-0.6-2.5-1.5-4.1-1.4c0.8-0.9,2.9-0.3,4.4-0.5L201.9,240.6z"/>
<path class="st0" d="M101.2,239.1c-0.5,1.8-2.5,0.6-3.6,1.3c-0.3-0.1-0.3-0.5-0.3-0.9C98.6,239.4,100,238.4,101.2,239.1z"/>
<path class="st0" d="M204.3,240.2c-0.3,0-0.2-0.7,0-0.9s1.1-0.2,1.1,0C205.5,239.5,204.6,240.2,204.3,240.2z"/>
<path class="st0" d="M91.3,240.9c-1.6,0.2-2.9,0.5-4.8,0.5c0-0.4,0-1.4,0.2-1.6c1,0.2,3.5,0.2,4.7,0.1L91.3,240.9z"/>
<path class="st0" d="M92,245.7c-1.6,0.2-2.9,0.5-4.8,0.5c0-0.4-0.2-1.1,0.1-1.2c1,0.1,3.6-0.2,4.8-0.3L92,245.7z"/>
<path class="st0" d="M102.2,244.5c-1.6,0.3-2.9,0.7-4.8,0.8c0-0.4-0.3-1,0-1.2c1,0,3.5-0.4,4.8-0.6V244.5z"/>
<path class="st0" d="M86,246.1c-1.6,0.2-2.9,0.5-4.8,0.5c0-0.4-0.2-1.1,0.1-1.2c1,0.1,3.6-0.2,4.8-0.3L86,246.1z"/>
<polygon class="st0" points="173.5,241.7 168.8,240.9 169.2,239.6 173.8,240.9 "/>
<path class="st0" d="M220.2,240.6c-1.3,0.6-4.1,1.5-6,0.3c0.8-1.5,3.2-0.8,4.6-0.6C219.2,240.9,219.8,240.6,220.2,240.6z"/>
<path class="st0" d="M119.9,240.9c-0.2,2.3-3-0.1-3.7,2.2c-0.1-0.3-0.2-0.4-0.5-0.4v-1C116.9,240.9,118.6,241.8,119.9,240.9z"/>
<path class="st0" d="M129.1,244.5c0.4,0.6,0.5,1.2,0.1,1.4c-1.3,0.6-4.6-0.8-5.3,1.6c-0.2-0.4-0.3-0.6-0.6-0.6v-1.4
	C124.9,244.5,127.3,245.8,129.1,244.5z"/>
<path class="st0" d="M175.7,241c0.9,0,3.8,1.1,4.3,1.1c0,0.2-0.2,0.5-0.2,0.7c-1.4,0.1-3.3-0.1-4.7-1
	C175.3,241.6,175.4,241.1,175.7,241z"/>
<path class="st0" d="M144.9,242.9c0,0.3-0.5,0.6-0.3,1h-4.4l0.2-1.4C141.8,242.3,143.2,243.1,144.9,242.9z"/>
<path class="st0" d="M104.7,242.8c-0.8,0.2-0.8,1.9-1.7,1C102.9,243,103.9,242.6,104.7,242.8z"/>
<path class="st0" d="M151.4,243.1c0.8,2.8-2.4,0.8-4.1,1.4c-0.6,0.1-1,0-1.4-0.6C146.8,241.7,149.5,243.8,151.4,243.1z"/>
<path class="st0" d="M158.1,243.7c-0.3,2.9-3.3,0.3-5.3,1C152.9,242,156.1,244.5,158.1,243.7z"/>
<path class="st0" d="M198,244.3c-0.1,0.2,0.1,0.3,0.2,0.5c-0.9,0.9-2.3,0.5-3.5,0.6c-0.7-0.2-0.7-1.1-0.2-1.6
	C195.5,244.3,197,243.6,198,244.3z"/>
<path class="st0" d="M164.4,244.8c-0.7,2.3-3.3,0.5-4.9,0.6v-1L164.4,244.8z"/>
<path class="st1" d="M201,244.8l0.9,0.3L201,244.8z"/>
<path class="st0" d="M171.3,245.7c0.1,0.3-0.5,0.6-0.2,1c-1.8,0.9-3.2-0.6-4.9-0.6C166.3,244.5,169.6,245.8,171.3,245.7z"/>
<path class="st0" d="M177.3,247l-0.2,1c-1.5-0.8-3.8,0.6-4.7-1.4C173.4,245,176.2,246.4,177.3,247z"/>
<path class="st0" d="M184.3,248l-0.2,1c-1.5-0.8-3.8,0.6-4.7-1.4C180.4,246,183.2,247.4,184.3,248z"/>
<path class="st0" d="M149.6,248.4v1.4c-1.5,0.2-3.8-0.5-4.7-0.6l0.2-1.4C146.6,248,147.9,248.7,149.6,248.4z"/>
<path class="st0" d="M198.2,248.1c-0.5,1-2.1,0.2-3,0.8v-1C196.3,248,197.4,247.6,198.2,248.1z"/>
<path class="st0" d="M155.3,249.5c0.1,0.6-0.2,0.8-0.6,1.1c-1-1-4.5,0.9-3.6-1.7L155.3,249.5z"/>
<path class="st0" d="M162,250.3c-0.7,2.3-3.3,0.5-5,0.6v-1L162,250.3z"/>
<path class="st0" d="M168.5,252l-5.2-0.8c1.1-1.8,3.6-0.2,5.5-0.3L168.5,252z"/>
<path class="st0" d="M175.7,253c-1.9,0.2-4.8,0.2-5.8-1.4c2-1.5,3.7,0.7,5.8,0.3V253z"/>
<path class="st0" d="M183.2,254.3c-1.9,0.2-4.8,0.2-5.8-1.4c1.9-1.5,3.7,0.7,5.8,0.3V254.3z"/>
<polygon class="st0" points="161.1,256.7 155.3,256.1 155.3,255 161.1,255.5 "/>
<polygon class="st0" points="177.6,257.8 169,257.2 169,256 177.6,256.6 "/>
<polygon class="st0" points="154.7,256 149.5,255.4 149.5,254.2 154.7,254.8 "/>
<path class="st0" d="M166.9,255.8l-0.4,1.1l-4.4-0.6C162.9,254.6,165.2,256.3,166.9,255.8z"/>
<path class="st0" d="M65.1,233.8c-1-0.2-3.8,0.9-3.1-1C62.7,233.1,65.2,231.8,65.1,233.8z"/>
<path class="st0" d="M69.7,233.6c-0.8-0.2-3,0.9-2.4-1C67.8,232.9,69.8,231.6,69.7,233.6z"/>
<path class="st0" d="M73.1,233.4c-0.8-0.2-3,0.9-2.5-1C71.2,232.7,73.2,231.4,73.1,233.4z"/>
<path class="st0" d="M72.7,243.6c-0.8-0.3-3,1.2-2.5-1.1C70.8,242.9,72.8,241.3,72.7,243.6z"/>
<path class="st0" d="M68.8,244.1c-1.2-0.2-4.6,1-3.7-1.1C65.9,243.4,68.9,242.1,68.8,244.1z"/>
<path class="st1" d="M57.4,254c-1.1-0.3-4.1,1.2-3.3-1.4C54.8,253.1,57.5,251.4,57.4,254z"/>
<path class="st0" d="M60.4,233.5c-1.6,0.1-3.9,1.6-4.7,0C57.3,233.5,59,232.3,60.4,233.5z"/>
<path class="st0" d="M60.2,239.1c-0.5,0.6-1.4,0.8-2.1,0.8l-0.1-0.7C58.8,239,60.1,239.2,60.2,239.1z"/>
<path class="st0" d="M56.8,239.5v0.6c-1.6,0.5-2.8,0.1-4.1,0.2v-0.8C54.2,239.8,55.4,238.7,56.8,239.5z"/>
<path class="st0" d="M67.3,238.8v0.8c-1.6,0.5-2.8,0.1-4.1,0.2v-0.9C64.7,239.1,65.8,238.9,67.3,238.8z"/>
<path class="st0" d="M73,238.5v0.9c-1.6,0.5-2.8,0.4-4.1,0.3v-1C70.4,239,71.5,238.7,73,238.5z"/>
<path class="st0" d="M54.1,245.7c0.1,0.3,0,0.4,0.1,0.9c-1-0.5-2.9,0.4-3.9,0.3c-0.2-0.1-0.5-0.8-0.6-1.2
	C50.6,245.8,53,245.8,54.1,245.7z"/>
<path class="st0" d="M60.8,245.6c0.2,0.3,0,0.4,0.2,0.9c-1.3-0.5-3.6,0.4-4.9,0.3c-0.3-0.1-0.7-0.8-0.8-1.2
	C56.5,245.7,59.5,245.8,60.8,245.6z"/>
<path class="st0" d="M229.1,237.3c-0.3,0-1.9-0.1-2.2-0.1s-1.4,0.2-1.9,0.1s-0.5-0.8-0.2-1.1s0.6-0.8,0.9-0.8s2.3,0.1,2.5,0.1
	s1.7,0.1,1.7,0.1L229.1,237.3z"/>
<path class="st2" d="M137.4,368.3c-1.5-0.1-2.6-0.8-3.9-1.3c-0.4-0.1-1.5-0.2-1.8-0.3c4.9-0.2,17.5,0.7,25.6,1.8L137.4,368.3z"/>
<path class="st1" d="M138,237.3L138,237.3L138,237.3z"/>
<g>
	<path class="st0" d="M284.7,97.6c0.6-1,1.2-2.1,1.5-2.6c1.8-3.7,1.8-4.6,1.8-4.9c0-0.4-0.1-1.4-0.6-5.1c-0.3-2.5-0.8-6.2-0.8-6.8
		c0-0.5-0.1-2.2-0.1-3.9c0-1.5,0-3,0-3.5c0.3-0.7,0.5-1.5-0.1-2.8c-0.6-1.2-2.2-2-7.8-4.2c-1.5-0.5-2.8-1-3.5-1.4
		c-0.5-0.3-1.1-0.6-1.7-0.9c-2.9-1.7-5.2-2.8-6.8-2.8H266c-1.5,0.3-9.6,1.5-9.7,1.5c-0.4,0-1.4-0.1-2.6-0.3c-2.7-0.4-5.7-0.9-7-0.4
		c-0.2,0-1.3,0.3-6.7,0.3h-2.1h-0.6c-0.3-0.1-0.8-0.6-1.1-0.8c-0.5-0.5-0.9-0.9-1.4-1c-0.4-0.2-1.8-1.4-1.8-1.2
		c-0.3-0.9-2.2-2.9-3.2-3.2c-0.2-0.1-1.5-0.4-3.2-0.7c-2.4-0.5-5.5-1.1-6.2-1.3c-0.8-0.4-3.7-4-4.1-6.8s1-6.4,1.8-6.8l0.7-0.1
		l0.5-0.4c0.3-0.3,1.8-1.2,2.8-1.9c4.1-2.7,4.9-3.2,4.9-4.5c0-0.2,0-0.7-0.8-3.8c0.1-0.5,0.1-1.2-0.1-2c-0.4-1.7-1.3-2.5-2.2-3.3
		c-0.5-0.3-1.9-1.5-3.4-2.7c-3-2.4-4-3.2-4.3-3.4c-0.5-0.4-2.6-2.9-3.8-4.4c-1.2-1.4-2.3-2.7-2.7-3.1l-0.4-0.3
		c-0.9-0.5-2.9-0.8-12-1.5c-3.4-0.2-6.6-0.5-7.8-0.7c-2.1-0.4-8.7-3.2-10-4s-3.6-1.3-5.6-1.7L173,0h-0.2c-0.1,0.1-17.6,0.8-19.9,1.4
		c-1.4,0.4-6,0.5-6.7,0.5c-0.4,0-1.9,0.1-4,0.2c-3.6,0.2-8.9,0.6-11.4,0.6c-2.2-0.1-6.8,0.3-8.6,0.6c-1.3,0.2-5.3,0.9-7.6,1.6
		c-0.8,0.1-2.6,0.7-7.3,2.4c-1.3,0.4-2.3,0.8-2.6,0.9c-0.3,0-1.8,0.5-3.5,1c-1.9,0.5-3.9,1.2-4.6,1.3c-0.5,0.1-1.4,0.4-2.5,0.8
		c-1,0.3-2.8,1-3.3,1c-0.8,0-2,0.4-4.7,1.3c-1.3,0.4-3.1,1-3.6,1.1c-1,0.1-3,0.9-6.9,2.5c-1,0.4-1.7,0.7-2,0.8
		c-0.4,0.1-1.2,0.4-2.1,0.7c-1.8,0.6-4.2,1.5-5.1,1.7c-0.5,0.1-0.8,0.3-1.2,0.5c-0.5,0.3-1.2,0.7-2.9,1l-1,0.2l-0.4,1
		c-0.4,1.1-1.2,3.5-1.3,4.5c-0.1,1.6,0.7,4.1,2.4,5.4c0.7,0.6,2.1,3.6,2.6,4.7l0.5,1.1c0.6,1.3,2.4,6.9,2.4,8.6s-2,6.9-3,7.8
		c-1,0.7-3.7,2.7-8.2,3.2c-2,0-11.2-3.1-13-3.8c-1.4-0.6-8.9-3.5-11.9-4.7c-3.4-1.3-5.5-1.8-8.4-0.1c-1.9,1.1-8.4,5.3-9.8,6.2
		c-0.5,0.3-2.8,1.2-4.4,1.8c-4.3,1.6-5.3,2-5.8,2.8C2.4,61.5,2.4,63,2.4,65v0.8c0,0.6-0.7,4-1.1,6.4c-0.9,5-1.3,7.3-1.3,8.1l0.4,1.1
		c0.4,0.6,0.9,1.8,1.5,2.7l0.5,0.8c1.7,2.6,2.9,4.5,3.9,5.4c1.3,1.2,0.6,5.8,0.3,7.6c-0.1,0.8-0.2,1.5-0.2,1.8c0,0.7-0.9,3.7-1.9,6
		c-0.9,2.1-0.9,7.6,0.3,9.7c0.4,0.6,0.6,1.1,0.9,1.6c0.5,0.9,0.9,1.7,1.3,2.2c0.5,1.1,2,8.1,2,9.7c0,0.6-0.1,1.6-0.2,2.6
		c-0.3,3.4-0.4,4.9,0.1,5.9l0.5,0.9c2.6,5.1,4.1,8.1,4.3,8.8s0.1,3.9-0.1,6.5c0,0-0.3,3.7-0.5,6.5c-0.2,1.6-0.4,2.2-0.7,2.8
		c-0.2,0.4-0.4,0.8-0.5,1.4c0,0.2-0.2,0.7-0.4,1c-0.6,1.1-1.3,2.5-0.6,3.9c0.1,0.3,0.2,0.6,0.3,0.9c0.5,1.4,1.2,3.2,2.3,4.1
		c0.8,0.9,3.4,7.1,4.6,10.1c0.7,1.6,1.3,3,1.6,3.7c1.1,2.4,5.7,16.9,6.1,18.9c0.4,1.9,1.1,7.9,1.2,8.3c0,0.2,0.2,0.5,0.3,0.9
		c0.3,0.6,0.6,1.3,0.8,2.1c1,3.3,1.5,5.4,1.6,5.7c0,0,0.2,7.2,0.5,8.5c0.2,0.9,1.6,4.4,3.4,7.1c0.5,0.7,1.1,1.3,1.5,1.8
		c0.2,0.2,0.3,0.4,0.3,0.3c0.1,0.3,0.4,1.8,0.6,2.9c0.8,3.8,1.7,9.2,4,11.7c0.2,0.3,1.2,1.6,2.6,3.4c7.1,9.3,9.5,12.3,10.4,12.9
		c0.8,0.7,3.5,5.1,4.8,7.2c1.7,2.7,2.1,3.4,2.5,3.8c2.8,2.8,3.6,3.7,3.8,4c0.6,0.9,4,8,4.3,9.7c0,0.2,0.1,0.5,0.1,0.9
		c0.2,2.2,0.3,3.3,0.7,4l0.3,0.4c1.2,1.2,5,4.1,8.1,4.9c0.3,0.3,1,1.3,1.5,2s1.1,1.5,1.6,2.2l0.4,0.5c0.2,0.2,0.2,0.3,0.3,0.4
		c0.6,1.2,0.8,2.7,0.8,2.7l0.2,0.5c0.6,1.2,3.9,7.6,4.7,8.4c0.7,0.6,7.5,8,8.1,9c-0.1,0.5-0.2,1.5,0.6,2.7c0.3,0.5,0.7,1.6,1.2,2.6
		c1.1,2.3,1.6,3.3,2.1,3.8c0.3,0.4,0.8,2.3,1,4l0.3,0.8c0.2,0.3,1.3,1.8,2.9,2c0.7,0.4,2.7,2.2,3.8,3.2c0.9,0.9,1.6,1.5,2.1,1.9
		l-0.5,0.6l0.5,1c0.3,0.6,1.8,3.7,3.5,5c1.1,0.9,3.4,2.1,5,2.9c0.6,0.3,6.5,2.9,8,3.5l0.4,0.2c2,0.8,8.2,3.4,13,4.4
		c1.5,0.3,9.4,1.9,13.5,1.9c1.1,0,2-0.1,2.7-0.7c2-0.9,3.8-1.7,6.3-3.3c1.5-1,2-1.5,2.7-2.2c0.3-0.4,0.7-0.8,1.4-1.4
		c1.4-1.1,3.7-3.3,4.4-4.7c0.2-0.5,1.6-2,2.1-2.4c0.6-0.4,1.5-1.1,2-2.2c0.1-0.3,0.6-0.9,1-1.4s0.8-1,0.9-1.2c0.4-0.7,3-3.2,4.1-4.3
		c1-0.9,1.7-1.6,1.8-1.8c0.6-0.7,2.9-5.8,3.2-7.6c0.2-1,0.8-2.2,1.3-3.2c0.3-0.5,2.7-2.3,3.9-3c0.1,0,4.3-2.4,4.3-5
		c0-0.7,0.6-3.2,1-3.9c1.7-1,8.5-6,9.2-6.7c0.4-0.4,5.5-4.9,6.3-5.6l0.7-0.5v-2.9c0-0.6,0.8-2.9,1.2-4.1l0.1-0.4
		c0.5-1.5,1.7-3.2,2.4-4.1c0.9-1.1,6.1-5.6,6.9-6.2c0.6-0.3,2.1-0.9,2.1-2.5c0-0.6-0.2-1.2-0.5-2c-0.1-0.4-0.3-0.9-0.4-1
		c0.1-0.8,1.8-4.4,2.4-5.5c0.2-0.4,1.2-1.2,3-2.6c1.5-1,2.5-3.1,2.2-4.5c-0.1-0.2-0.1-0.5-0.2-0.8c-0.2-0.5-0.4-1.3-0.4-2
		c-0.1-0.8,0.1-3,0.3-3.5c0.2-0.4,0.3-0.8,0.4-1.2c0.2-0.5,0.3-1.1,0.6-1.9c0,0,0.8-2.3,1.3-3.8c0.3-0.8,3.1-4.6,5.4-7.5
		c1-1.2,2.1-3.3,2.1-4.2c0-0.5,1-3.5,1.1-3.9c0.6-1,7.6-8.5,9.4-10.3c2-2,1.9-3.8,1.9-4.5c0-0.9,0.7-4.9,1.3-5.9
		c0.8-1.3,1.9-3.8,2.9-6.2c0.5-1.1,0.9-2.2,1.3-3c1-1.9,7.1-9.9,8.3-11.4c0.7-0.8,1.8-3.3,1.5-4.5c-0.1-0.5,0.1-1.9,0.2-3.2
		c0.1-1.2,0.2-2.3,0.2-2.8s0.2-1,0.4-1.4c0.2-0.4,0.3-0.6,0.3-0.8c0.1-0.3,0.5-1.1,0.9-2c0.5-1,1-2.1,1.1-2.5c0-0.1,1.3-4,0.7-5.7
		c-0.1-0.3-0.2-0.9-0.4-1.6c-0.5-1.8-1.2-4.3-1.7-5.5c-0.3-0.7-0.7-2.4-1.1-3.9c-0.4-1.7-0.7-2.8-1-3.6c0.8-1.4,4.1-5.6,5.4-7.2
		c0.7-0.9,1.3-1.5,1.5-1.9c0.3-0.5,0.8-1,1.2-1.6c1.8-2.4,2.5-3.3,2.5-4.3c0-0.4,0-2.5-0.1-4.6c0-1.8-0.1-3.4-0.1-3.7
		c0-1.9,0.2-3.6,0.6-4.6c0.2-0.4,0.5-1.1,0.8-2c2.5-6.6,2.8-7.9,2.7-8.8c-0.1-0.5-0.1-1.8-0.1-3.1c0-1.5,0-3.1-0.1-3.8
		c0-0.3-0.1-1.5,0.9-7.1c0.1-0.4,0.9-1.8,1.4-2.6c0.6-1.1,1.2-2.1,1.3-2.5c0.5-1.3-0.2-2.3-0.6-3c-0.2-0.3-0.4-0.6-0.5-0.9l-0.6-2
		c-0.6-1.7-1.3-3.9-1.4-4.2c0-0.1,0.1-0.4,0.4-1.2C283.5,99.6,284.1,98.6,284.7,97.6z M33.2,224.3c5.3-1.1,13.2-4.1,22.1-7.7
		c-0.5,0.3-0.7,0.9-1.5,0.8c-0.8,0.8,1.7,2,3.2,3c-0.5,0.1-0.9,0.2-1,0.3c-0.5,0.2-3.6,2.1-4,2.3s-3.6,1.2-3.9,1.3
		c-0.3,0-2.5,0.4-2.7,0.4s-6.7,1.9-7.3,2s-2.6,0.1-3,0.3c-0.2,0.1-1,0.2-1.8,0.3C33.3,226.2,33.2,225,33.2,224.3z M49.3,216.5
		c0.3-0.5,1-0.7,1.5-1c0,0.1,0.1,0.3,0.1,0.4C50.4,216.1,49.8,216.3,49.3,216.5z M55.8,216.4c0.1,0,0.1-0.1,0.2-0.1l0.1,0.1
		C56,216.4,55.9,216.4,55.8,216.4z M33.6,230.9c0-0.4-0.1-0.9-0.1-1.5c0.4-0.1,1.3-0.5,1.8-0.7c0.6-0.1,1.3-0.6,2-0.9
		c0.7-0.3,1-0.3,1.7-0.4c0.7-0.1,2.2-0.1,2.6-0.3c0.5-0.2,1.9-0.7,2.2-0.9c0.4-0.2,1.4-0.2,1.8-0.4c0.4-0.1,2.8-0.3,3.4-0.5
		c0.6-0.2,3-0.9,3.4-1.1c0.5-0.2,3-0.8,3.4-1c0.3-0.1,1.8-0.1,2.8-0.1c1.2,0.9,4,1.2,6.5,2.8c-0.2,0.2,0.2,0.5,0.9,0.8
		c-0.6,0-2.7,0.3-3.2,0.3s-1.5,0.4-1.7,0.5c-0.2,0-2.2,0.2-2.8,0.2s-4.5,0.5-4.9,0.5s-3.1,0.3-3.4,0.3s-2.9,0.6-3.1,0.6
		c-0.2,0-2.7,0.3-3,0.4c-0.2,0.1-3.1,0.6-3.4,0.7c-0.3,0.1-2.4,0.5-2.8,0.5c-0.5,0-1.7-0.4-2.1-0.3
		C35.3,230.4,34.4,230.6,33.6,230.9z M43.9,255.2c-0.6-0.7-1-1.3-1.2-1.6c2.7-0.1,6.9,0,9-0.8c-2.9-0.7-7.6-1.3-10.3-1.5
		c-0.3-0.9-0.6-1.8-0.9-2.9c2.7-0.5,5.7-1,8.2-1.2l-0.4-1.3l-8.3-0.2c-0.2-0.8-0.3-1.6-0.5-2.3v-0.1c4.1-0.8,8.3-1.2,11.9-2.8v-0.9
		c-4,0.6-8.3,1-12.4,1c-0.2-0.7-0.3-1.1-0.6-1.4c-0.1-0.1-0.3-0.4-0.6-0.7c-0.1-0.1-0.2-0.2-0.3-0.3c1.3-0.2,2.5-0.4,2.6-1.5
		l14.7-2.5c0-0.3-0.5-0.5-0.7-0.8c-6.3,0.4-12.6,0.8-18.4,2.1c-0.4-0.7-0.8-1.5-1.1-2.1c1.1-0.2,2.4-0.5,2.8-0.5
		c0.7-0.2,4-0.8,5.2-1.1c1.3-0.3,4.6-1,5.4-1.2c0.8-0.1,6-1,6.5-1.1s6.2-0.8,6.5-0.9c0.3-0.1,5.8-0.3,6.2-0.3c0.3,0,1.7-0.1,2.6-0.2
		c0.5,0.2,1,0.3,1.6,0.5c0,1.5-0.1,1.5,0.9,2.4c-0.3,0.5,0.5,12.3,0.1,14.2c-0.9,0.9-1.3,1.2-3.2,1.1c-1.3-0.1-3.7-1.8-2.4-3.2
		c-1.7-0.3-2-2.9-1.3-3.8c-0.7-0.1-2.1-0.9-2.2-3.9c-0.1,0.5-0.7,4-1.6,4.3c0.5,0.8-0.3,3.5-2.1,4c1.6,2.5-1.9,5.1-3.5,6.5
		c1.1,2.6-2.9,2-1.8,3.7c-1.8,0-2.6,1.8-4.6,1.8C47.5,255.9,45.4,255.6,43.9,255.2z M66.3,180.2c1.9-1.5,4.6,0,7.1-0.5
		c-1.4,1.2-1.9,4.8-4.9,4.2C65.4,184,68.4,181.3,66.3,180.2z M71.6,170.9c1.7,0.1,3.1-1.5,4.9-0.6c0.1,1.1-1.6,1.3-1.9,2
		C73.8,170.7,71.5,173.3,71.6,170.9z M78.6,265.1c-0.9,1-3.5,1.6-4.9,1.5c0,0-0.2-0.5-0.3-0.5C74.7,265.4,77.2,265,78.6,265.1z
		 M75,90.7v1c-0.8,0.6-2.2,0.4-2.4-0.8c0.1-1.3,1.8-5.7,3-2.8l0.8-0.8C76.2,87.9,77.2,90.7,75,90.7z M78,94.6
		c0.9,1.6-0.9,1.8-1.3,3.1h-0.9C75.3,96.3,76.7,94.5,78,94.6z M85.6,112.4c-0.3,4.4-0.2,7.8-2.2,11.5l-0.6-0.5
		c0.3-0.2,0.2-0.6,0.2-0.9l-1.4-0.8c-0.1-4,0.2-8.6,0.9-12.6C84.6,108.9,85.2,110.8,85.6,112.4z M83.9,90.6l1.1,2.2
		c0,0-0.2,0.6-0.9,1.2C83.7,93,83.9,90.6,83.9,90.6z M91.7,158c0.7,1-1.6,1.5,0,2.2c-2,0.8-5.7,0.8-8,0c-1.3-1.4,1.3-1.9,0.8-3.3
		C87.2,156.5,89.4,157.4,91.7,158z M86.2,145.8c0.2-1,1.3-1,2.2-1c-0.6,0.6-0.6,1.8-1.6,1.6L86.2,145.8z M107.1,220.1
		c0.9,0.4,2.6,1.2,3.4,1.4c0.9,0.2,3.9,0.4,4.4,0.5s4.7,0.5,4.9,0.4s0-1.3,0-1.3l0.8,0.2c0,0,0,1.2,0.2,1.3c0.1,0,4.2,0.6,4.2,0.4
		c0.1-0.2,0.6-2,0.4-2s-2.3-0.2-3.1-0.2s-2.6-0.2-3.1-0.2c-0.5-0.1-3.4-0.5-4.5-0.7c-1.1-0.1-3.5-0.9-3.9-1.2
		c-0.3-0.2-1.4-1.2-2.2-1.9c0.2-0.3,0.3-0.6,0.3-0.6s0.2-0.1,0.6-0.2c0.4,0.2,0.8,0.3,1,0.3c0.8,0.2,3.3,0.4,3.9,0.4
		c0.5,0,3.9,0.6,4.2,0.6s7.2,1.1,7.8,1.2c0.6,0.1,6.3,1.1,6.8,1.1s7.3,0.9,7.5,0.9s0-1.4,0-1.4s0.7,0,0.8,0.2
		c0.1,0.1,0.2,1.4,0.4,1.4s2.6,0.3,3.1,0.4c0.5,0,3,0.2,3,0.2v-1l0.6,0.1l0.2,1.2c0,0,2.6,0.5,2.8,0.5s2.4,0.6,2.5,0.6
		c0.1-0.1,0.3-1.1,0.3-1.1s0.5-0.1,0.6,0s0,1.2,0.2,1.3s2.8,0.7,2.9,0.7c0.1,0,1.9,0.6,1.9,0.6l0.1-0.6l0.8,0.1c0,0,0.3,0.7,0.6,0.8
		c0.3,0.2,6.1,1.8,6.5,1.9c0.4,0.2,12,3.2,12.3,3.2s7.4,1.9,7.9,2c0.2,0,0.7,0.2,1.4,0.4c-0.1,1.7-1,4.3-2.4,4.7
		c2,1.3-0.4,5.6-1.8,5.4c0.6,2.1,0.7,3.5-1,3.7c0,1.4-1,2.3-2,2.2c0.7,2.4-0.3,4.1-1.6,4.3c0.2,1.2,0.6,1.7-0.3,2.8
		c-0.9,1.2-2.4,1.1-2.4,1.1s-0.6,1.2-1.4,1.3c0.4,1,1.4,1.3,1.4,1.3l-0.2,0.5c0,0-1,0.2-1.4,0.8c-0.5,0.5-5.2,0.2-5.2,0.2
		s-8.1-0.7-9.7-0.5c-1.6,0.1-6.4-0.7-7.9-1.2c-1.4-0.5-5.5-0.1-6.8-0.5c-1.1-0.3-3.1-0.5-3.8-1.4c0-0.4,0.1-0.9,0.3-1.5l4.7,0.6
		v-1.2l-4-0.5c0.1-0.1,0.1-0.2,0.2-0.3c-2.5-0.6-2.2-2.6-1.6-4.2c0.6,0,1.2-0.1,1.6-0.3l-0.2-1.4c-0.3,0.1-0.5,0.1-0.8,0.2
		c0-0.1,0.1-0.1,0.1-0.2c-0.9,0.4-3.6-0.3-4-1.3c-0.5-1.5-0.8-2.7-0.1-4.2c-1.7,0.4-2.5-1.4-2.5-1.8c0-0.3,0.2-1.1,0.7-2l3.5-0.1
		v-1.2h-3.4c-1.1-0.6-1.7-2.6-1.5-4.1c0.3-0.4,0.4-0.9,0.3-1.2c-0.4,0.1-0.9,0.1-1.4,0.2c-0.4-0.4-0.5-1.2-0.2-1.9
		c-0.6,0.1-0.6-0.6-0.4-1.4c1.2,0,2.6,0.1,3.4-0.1c0.5-0.4,0.7-0.5,0.8-1.1c-1.3-0.3-3-0.1-4.5,0c-1.5-1.1-2-5.1-2-5.1
		s-0.4,5-2.3,5.1c0,0.1,0.1,0.3,0.1,0.5c-1.4,0-3.1,0.5-4.6,0.6c0.2,0.4-0.2,1.1,0.3,1.2c1.3-0.4,3.3-0.2,4.4-0.8
		c-0.1,0.8-0.4,1.4-1,1.5c0.4,1.2,0.1,1.9,0.1,1.9s-0.4,0.8-1.7,0.2c0.1,0.6,0.1,2.2-1.4,2.5c1,0.5,2.3,1.6,1.7,2.3S126,238,126,238
		s0.9,2,0.5,2.8s-0.4,0.6-1.3,1c0.2,2.3-0.6,3.4-1.8,3.7c0.3,1.2,0,3.1-0.7,4.3c-1.7,0.4-3.7,0.2-5.3,0.7c-0.8-0.5-1.3-1.3-0.8-2.2
		c0,0.1,0.1,0.1,0.1,0.2c0.7-2.4,4-1,5.3-1.6c0.4-0.2,0.3-0.8-0.1-1.4c-1.8,1.3-4.2,0-5.8,1v1.3c-1-0.6-1.5-2.8-0.7-3.8
		c-0.6-0.4-0.9-1.2-0.8-2.7c-1,0.1-2-1.2-2-3c0.7-0.3,0.9-1.1,0.9-1.5c-0.2,0-0.4,0-0.6,0c0.1-0.2,0.2-0.5,0.3-0.7
		c-0.5,0.2-1.2,0.4-1.8,0.4c-0.6-0.6-0.8-2-1.1-3.6c1.2-0.1,2.3-0.2,2.4-1.3c-0.8-0.2-1.7-0.1-2.6,0.1c-0.1-0.9-0.3-1.8-0.5-2.5
		c-0.3,0.9-0.4,1.8-0.5,2.8c-0.4,0.1-0.7,0.2-1.1,0.2c0.1,0.3-0.3,0.9,0.2,1c0.2-0.1,0.5-0.1,0.7-0.2c-0.1,0.9-0.3,1.8-0.6,2.4
		c-0.5,0.6-1.1,0.8-1.6,0.5c0,0.9,0.7,1.5-0.7,1.9c0,0.1,0.1,0.3,0.2,0.4c-1.2-0.3-2.4,0.4-3.5,0.5c0,0.3,0,0.7,0.3,0.8
		c1-0.4,2.6,0.3,3.4-0.6c0.5,1.5,0.8,3.4-0.9,3.4c0.7,1.3,0.4,4.1-1.7,4.1c0.4,0.5,0.7,1.1,0.8,1.6c-0.5,0-0.9,0-1.1,0
		c-0.2,0.2,0,0.8,0,1.2c0.3,0,0.7,0,1.1,0c-0.2,0.3-0.6,0.5-1.1,0.3c0.2,0.5,0.1,1.1,0,1.8c-1.1-0.3-2.1-0.2-3.1-0.1
		c0.1-0.1,0.1-0.2,0.2-0.4c-0.9-0.1-1.5-0.6-1.8-1.3c1.3-0.1,2.5-0.3,3.5-0.4v-1c-0.7,0.1-2.3,0.1-3.7,0.2c0-0.1,0-0.3,0.1-0.4
		c-1.1,0-1.9-1.7-1.6-3.5c-1.1,0.5-1-1.8-1.3-3.9c0.4-0.1,0.7-0.4,0.8-0.9c-0.3-0.2-0.7-0.2-1-0.2c0-0.1,0-0.1-0.1-0.2
		c0,0.1,0,0.1-0.1,0.2c-0.9,0.1-1.9,0.5-2.7,0.5c0,0.3,0,0.7,0.3,0.8c0.6-0.3,1.4-0.1,2.1-0.1c-0.5,2.2-1,4.6-2.1,4.2
		c0.5,1.7,0.3,3.2-1.7,3.9c-0.1,1.9,0.4,2.3-2.5,4.4c-0.5-0.1-1.6,0-1.8-0.7c-0.5,0-1.4,0.8-1.8,0.4c0-0.4,0-1.2,0-2.1l5.1-0.2
		c-0.1-0.4,0-1-0.1-1.7l-4.9,0.5c0.1-2,0.3-4.1,0.3-4.8c-0.9-2.6-0.4-16.8-0.4-17.9s0.5-0.9,1.1-1.1c0.5-0.2,7.8-0.2,7.8-0.2
		l10.3-1.4l0.9-1.1l3.4-0.2C107.8,222.4,107.2,220.6,107.1,220.1z M110.5,193h0.5l-0.4,0.2L110.5,193z M204.8,281.6
		c-0.6,0-2.9,0.8-5.5,0.5c0.2-0.8-0.9-0.7-1.4-1l-0.5,0.8l-25.2-3.9v-0.8C183.3,277.8,194.2,280.1,204.8,281.6z M189,273.6l0.4-0.9
		l5.7,1.1L189,273.6z M196.8,274.3c1-0.5,3.3,0,4.6,0.6L196.8,274.3z M212.1,281.6l0.1,0.7l-6.3-0.5v-0.6L212.1,281.6z M211.4,276
		c1.6-0.2,2.9,0.4,4.4,0.5C214.5,277.2,211.9,276.6,211.4,276z M203.8,274.9c1.8,0.3,4.3,0.4,6.1,1.2
		C209,276.9,204.4,276.1,203.8,274.9z M83.5,189.5v-1.1c1.4,0.7,0.9-1.6,2.4-0.8c0.1,0.3-0.2,0.9,0.3,1.1c1.3,0-0.2-2.1,1.4-1.7
		c0.3,2.1,0.6,5.5-0.3,7.8c1.7-0.1,1.4,2.1,1.1,2.8c-1,0.3,0,1.9-1.6,1.4l-0.6-1.4l-0.8,0.8c0-0.2-0.1-0.5-0.3-0.6
		c-0.2-0.1-0.3,0.1-0.6,0.2C83.8,196.2,85.1,191.8,83.5,189.5z M84.8,184.1c-0.3-0.2-0.8-0.8-1.1-0.2v0.2c-0.7,0.4-0.9-0.6-1.4-0.8
		c0.8-1.7,3.3-1.8,4.9-2.7c1.8-0.2,3.3-0.8,5.3-0.6c0,0.7-1.6,1.5-2.5,1.9C88.9,183.5,86.9,185.8,84.8,184.1z M83.7,170.4V169
		c3.1,0.8,6,1.7,8.8,3v0.6C89.1,174,86.4,171.6,83.7,170.4z M91.4,170.1c-2.9-0.6-5.7-0.9-8.3-2.5l-0.5-3.3c4.2,0.9,8.1,2.6,12,4.5
		v0.5C93.9,169.4,92.2,168.9,91.4,170.1z M82.9,177.5c2.6,0,4.5-1,6.9,0c-2.1,1.1-4.6,2.4-7.1,3.1C81.5,179.8,81.5,178.3,82.9,177.5
		z M82.9,264.2c-0.3,1.1-2.3,0.4-3,1.1l-0.1-0.6C80.7,264.5,81.9,264.1,82.9,264.2z M87.6,269.2c-1.4,1.4-3.6,1.6-4.7,0.8
		C83.5,269.3,86.1,269.1,87.6,269.2z M87,263.8c-0.1-1,2.4-0.6,3-0.7C89.7,263.2,87.8,264.1,87,263.8z M89.8,275.5
		c-1.1,1-3.4,1.2-5,1.9l-0.6-1.5C86.3,275.7,87.6,274.4,89.8,275.5z M89.3,268.9c1.5-1.3,4.1-1.4,5.4-1.3c0.6,0.1,0,0.5,0.4,0.4
		C93.3,268.4,91.8,269.2,89.3,268.9z M96.8,272.9l1.7,0.8c-2.1,0.6-4.6,1.3-6.6,1.4C92.5,273.4,95.2,273.7,96.8,272.9z M117.4,265.9
		c-0.9,0.1-4.8,1.7-3.9,0.1L117.4,265.9z M116.9,252.9c0,0,0.1-0.1,0.3-0.2c0.1,0.1,0.1,0.2,0.2,0.3c0.1-0.3,0.2-0.5,0.3-0.7
		c0.1-0.1,0.2-0.2,0.3-0.4c1.2-1.1,3.4-0.6,4.8-1c0.9,0.9,0.2,1.6,0.2,1.6s-1.7,0.9-2.7,1.3C117.5,254.9,116.9,252.9,116.9,252.9z
		 M115.3,271.6v0.3c-2.2,0.5-4.7,2.1-6.3,0.5C111,271.8,113.3,272,115.3,271.6z M104.9,267.4l0.3-0.9l4-0.1
		C108.7,266.9,105.7,268.1,104.9,267.4z M106.3,272.4l0.2,0.7l-5.7,0.8C102.1,272.6,104.2,272.3,106.3,272.4z M102.2,254.1
		c-0.5,0.5-2,0.2-2,0.2s-0.3-1-0.2-2c1.1,0,2.4,0.1,3.3-0.4C103,252.9,102.5,253.8,102.2,254.1z M102.1,266.9
		c-0.6,1-3.2,1.6-4.6,1.1C97.3,266.4,101,267.2,102.1,266.9z M94.9,280.6c2.3,0,4.8-2.4,6.5-0.4c0.2-0.2,1.5-0.4,1.5-0.4
		c0-0.3,0.1-0.5,0.2-0.8c2.2,0.5,4.8-2.4,6.7-0.4c0.4,0,3.5-0.1,3.7-1c1.8-0.3,4-0.5,5.7-0.2v0.5h0.2c-8.1,1.6-24.8,4-24.6,3.9
		C94.8,281.5,94.3,280.8,94.9,280.6z M118.1,271.4c1-1.1,3.1-0.4,4.7-0.6C121.4,272.2,119,271.9,118.1,271.4z M128.5,277.1l-7.1,0.8
		l-0.2-0.7C123.6,276.6,126.2,276,128.5,277.1z M126.2,271.1c1.4-1.6,3.2-1,4.6-1.1l-0.7,0.8L126.2,271.1z M129.9,276.6
		c2.1-0.2,3.9-0.5,6.1-0.3v0.6c-2.2-0.4-3.9,0.6-6.1,0.2V276.6z M134.6,270.6c-0.4,0,0.3-0.4,0.2-0.6c0.7-0.5,3.3-0.8,4.3-0.3
		C138.4,270,135.4,270.6,134.6,270.6z M144.7,276.2c-0.3,0.7-6.5,1.2-7.3,0.3C139.8,276,142.2,275.8,144.7,276.2z M143.5,270
		l0.7-0.8l5.7,0.3C149.3,270.3,144.9,270.3,143.5,270z M153.6,276.5c-0.2,0.8-6.3,0.7-6.9,0C147.8,275.9,151.8,276.3,153.6,276.5z
		 M156.9,282.9v0.3c-2.4,0.7-5.4,0.1-8-0.3C150.5,281.2,154.4,282.9,156.9,282.9z M154.2,269.4l4.1,0.4
		C158,270.2,152.3,271.1,154.2,269.4z M155.6,276.9c2-1.9,5,0.1,7.2,0.2L155.6,276.9z M161.6,269.9l5,0.6
		C166.2,271.4,162.3,271.1,161.6,269.9z M170.7,277.1l0.2,0.3c-1.8,0.2-5.3,0.6-6.9-0.3C165.5,276.7,168.6,276.7,170.7,277.1z
		 M168.2,271.3l0.2-0.8l5.9,0.9L168.2,271.3z M176.5,271.6l5.7,0.8C180.7,272.9,176.4,272.6,176.5,271.6z M183.5,272.8v-0.3
		c1.4,0.1,3-0.6,3.9,0.5L183.5,272.8z M94.7,207.3c-1.3,1.1-2.8,1.2-4.1,2.8c-1.3,0.5-2.4,0.7-3.5-0.3c-0.2-1.3-0.5-1.6-0.8-3
		c2.1-1.7,7-2.3,9.5-2.9l1.3,1l-2.6,2.1L94.7,207.3z M92.2,128.5c-1.3-1.9,2.1-2.6,2.4-4.7c0.4,0.6,1.4-0.1,1.4,0.9
		C94.7,126,94.3,128.8,92.2,128.5z M93.8,116c-2.4-0.3-1.2-2.2-0.7-3.2c0,0,1.5-0.4,1.7,0.2S93.8,116,93.8,116z M92.7,120
		c0.3,0,0.7-0.1,0.9,0.2c0.2,0.8-0.6,0.8-0.9,1.1c0.2,0.5,0.8,0.2,1.1,0.2c-0.8,0.7-0.2,4.4-3.8,2.8C90.3,123.1,90.8,121.8,92.7,120
		z M92.7,139.7c0,0.5,0.6,0.7,0.9,1c-1,1.4-2.6,0.9-3.9,1.4c-0.6-0.4-0.6-0.9-0.2-1.4C90.2,140,91.7,138.3,92.7,139.7z M83,136.5
		c-0.3,1.4,0,4.2-2.2,3.6c-1.3-3.1,0-5.6,0-9.1C82.4,132,83.4,134.2,83,136.5z M79.4,93c0.7-2.6-0.3-6.1,1.4-8
		C81.1,87.6,81.6,90.6,79.4,93z M80.7,270.6c-1.3,0.8-2.9,0.7-4.4,1.1c0,0-0.4-0.3-0.1-0.5C77.2,270.6,79.6,270.3,80.7,270.6z
		 M67,267.3c1.2-0.6,3.8-0.7,5.1-0.8c-0.2,0.1,0.3,0.4-0.2,0.6c-1.1,0.3-3.6,0.5-4.7,0.7C67.5,267.5,66.7,267.4,67,267.3z
		 M64.8,262.4c1-0.1,2.9-0.8,4.1-0.5C69.1,262.8,65.5,263.3,64.8,262.4z M70.9,261.6c0.3-0.1,2.2-0.7,2.9,0.1L70.9,261.6z
		 M69.7,206.4c0.9-2,1.4-4.9,3.6-5.7l0.8,1.1C72.5,203.3,72.1,206,69.7,206.4z M63.8,263.3c-0.3,0.1-3.5,1.4-4.1,1.6
		c-0.7,0.3-0.6-1.4-0.6-1.4c4.1-0.9,4-0.9,4.7-0.9C64.1,262.7,64.1,263.3,63.8,263.3z M52,265.7c-0.3-0.4-0.7-0.9-1-1.3l5.8-0.7
		c0.2,0.3,0.7,0.7,0.6,1.1C55.7,265.2,53.8,265.4,52,265.7z M56.3,270.5c-0.5-0.7-0.9-1.1-1.3-1.3c-0.1,0-0.1-0.1-0.2-0.2l10.8-1.9
		l0.4,0.8C63.4,269.5,59.9,270.2,56.3,270.5z M59.4,275.3c-0.3-0.5-0.7-1.1-1-1.5c5.2-0.9,10.5-2,15.6-2.6c0.3,0,0.3,0.3,0.2,0.9
		C70.3,273.9,64.8,274.7,59.4,275.3z M62.6,280.5c-0.2-0.3-0.6-0.8-1-1.6c5.5-0.2,10.4-0.9,15.5-2.4c1.2-0.2,3.2-1.1,4.5-0.8
		c0.5,0.1,0.9,0.5,1,1.3c-2.1,0.9-3.6,1.5-6.1,1.6l-4.9,1c-3.8,0.7-2.9,0.5-7.1,1C63.9,280.5,63.3,280.5,62.6,280.5z M67.4,285.9
		c-0.3-0.5-0.5-0.8-0.6-1c0-0.1-0.1-0.1-0.2-0.2c8.9-0.5,17.2-2.9,26-4.2l0.2,1.4c-1.4,1.4-3.5,0.7-5,1.6c-0.3-0.4-0.7-0.5-0.5-1.2
		c-0.4-0.2-1.1,0-1.2,0.1c-0.4,0.8,0.4,1.3,0.1,1.5C79.9,284.8,73,286.1,67.4,285.9z M161.4,362.3c-12.2,0.1-26.7,0.1-39.7-0.8
		c-1.3-0.6-2.3-1-2.5-1.1c-0.4-0.2-0.7-0.3-1-0.5c6.6,0.2,12.2-0.3,19.2,0.2l2-1.1c0.6,0.2,1.1,0.6,1.1,0.8
		c-0.3,0.4-0.5,0.5-0.9,0.7c6.9,0.8,14.9,0.5,21.9,0.8L161.4,362.3z M145.6,355.7c-2.6,0.6-8.8,0.9-15.8-0.5
		c-6.8,0.1-11.8,0.2-17-0.1c0,0-0.1-0.1-0.1-0.2c0.1-0.4,0.2-0.9,0.1-1.7c1.2,0,2.2,0,4.1-0.3c16.5,0.6,33.1,0.9,49.7,1.1
		c0.8-0.1,2.3,0.2,2.2,1.1C160.6,354.4,152.8,355.5,145.6,355.7z M177.6,347.5c-0.2,0.1-0.3,0.3-0.4,0.4c-5.7-0.1-14,0.4-23.8,0.6
		c-1.3,0.2-2.2-0.1-3.1,0.1c-0.4,0.1,0.5,1.2-1.2,1.3c-7.6,0.3-15.3,1.8-22-1.5c-6.4-0.2-11.8,0.6-17.7,0.6c-0.1,0-0.1-0.1-0.1-0.1
		c-1.5-1.3-2.5-2.2-3.3-2.9c25.5-0.4,48.5,0.7,72.3,0.7C178.1,347,177.9,347.2,177.6,347.5z M180.9,341.8c-16.5,0-32.5,2.3-49.3,1
		c-9.3-1.2-19.9-0.8-29-1.3c-0.2-0.7-0.5-1.3-0.8-1.8c1.4-0.1,2.8-0.2,3.8-0.3c41.8-0.5,65.3,1.2,75.6,1.3
		C181.2,341.1,181.1,341.4,180.9,341.8z M183.3,335.7c-6.5,1.1-13.1,0.5-19.8,0.3c-8,1.1-16.9,1.6-25,0.6c-12.3-4-26.5,1.9-38.7-0.7
		c-0.4-0.8-0.8-1.7-1.1-2.4c1,0.1,2.1,0.2,3,0.2c26.7-2.4,56.5-0.4,82.1,1.3C183.5,335.3,183.4,335.5,183.3,335.7z M217,294.5
		c-10,0.4-20.2-2.3-31.5-0.3c-4-0.9-8-1.7-12-2.3c0.4,0.3,0.7,0.6,1,0.9c0.7,0.9,1.7,2.3,2.4,3.7c11.9,1.5,23.6,3,35.5,3.1
		c-0.3,0.4-0.7,1-1.1,1.6c-6.9,0-14.5-0.5-20.5-1.1c-4.2,1.4-8.8,0.8-13.1,0.6c0,0.7-0.1,1.5-0.3,2.5c0,0.1-0.1,0.2-0.1,0.3
		c1.9,0.3,3.8,0.6,5.7,1c8.7,0.2,17,3.1,25.9,2.2c-0.2,0.5-0.3,1-0.4,1.4c-6.1-0.6-13.7-0.4-19.3-1.6c-3.1,0.1-6.5-1.5-9.3,0.2
		c-1.1,0.1-2.2,0.2-3.3,0.2c0.2,0.6,0.4,1,0.2,1.7c-0.3,0.7-0.6,1.2-0.9,1.6c-0.2,0.5-0.6,0.8-0.6,0.8s0,0-0.1,0.1
		c10,1.1,20.2,1.9,30.3,2.4c-0.3,0.3-0.6,0.5-0.9,0.8l-6.5-0.7l-6.3,0.9c-6.4-0.2-12.3-0.7-18.1-1.4c0.2,0.8,0.4,1.2,0.6,1.6
		c0.3,0.5,0.3,1,0.6,1.1s0.9,0.2,0.5,1.3c-0.1,0.2-0.2,0.4-0.3,0.7c3,0.6,6,0.9,9.2,0.5l1.7,0.8c3.2-0.4,7.8,0.6,11.9,0.6
		c-0.6,0.4-1.2,0.9-1.8,1.3c-4.4-0.1-9.4-0.9-13.4,0.1c-2.8-0.4-5.6-0.8-8.3-1.2c-0.3,0.8-0.5,1.7-0.6,2.2c-0.1,0.6-0.1,1-0.1,1.4
		c6,0.5,12.8,2,18.4,1.1c-0.2,0.4-0.3,0.8-0.5,1.2c-4,0.1-8.2-0.4-11.6-0.6c-2.3,0.3-4.6,0.4-6.8,0.4c0,0.7-0.1,1.9-0.1,1.9
		s0.2,0.6-0.5,0.6c-0.6,0-2.7,0-3.1,0c-0.4,0-0.7,0.1-0.6-0.4c0.1-0.6,0.2-1.9,0.6-2.1c0.1,0,0.2-0.1,0.3-0.2
		c-7.6-0.5-15-2.2-22.6-3.1c-0.5,0.5-0.9,0.8-1.3,1.6c-0.6,1.1-0.6,1.1-0.7,1.5c-0.2,0.4-0.4,0.3-0.5,0.6c0,0.1,0,0.3,0,0.5
		c7.6,0.6,14.8,1.5,21.4,2c11.5,0.9,20.7,1,24.6,1c-0.2,0.2-0.5,0.5-0.9,0.9L165,331c-7.5-0.5-13.7-2-20.5-2.9c0,0,0,0-0.1,0
		c-1.5,0-2.7,0-3.4,0c-0.5,0-0.5-0.2-0.4-0.5c-6.8-0.6-14.6-0.3-24.9,2.6c-5.3,0.7-13.9,0-18.6-0.5c-0.4-0.5-1-1.1-1.6-1.9
		c9.9,0.6,17.4-1.4,27.4-1.5c6.1-0.6,12.4-0.5,18.5-0.2c0.1-0.2,0.2-0.3,0.3-0.4c0.1-0.3,0-0.4-0.3-1.4c-0.1-0.3-0.6-1.7-1-2.6
		c-1.5,0-3,0-4.5,0c-8.9,0.8-17.1,3.2-26.7,2.3c-5.5-1.3-11.7,0.2-17.5-0.4c-0.7-0.8-1.4-1.5-1.8-2c8.4,0.5,16-1.1,24.5-1.9l0.6,0.5
		c8.9-0.8,17-0.8,24.9-0.3c-0.1-0.3-0.2-0.5-0.4-0.7c-0.5-0.3-1.3-1.2-1.5-1.6c-0.1-0.3-1.4-1-1.9-1s-3.8-0.6-4.5-1.1
		c-0.4-0.3-1.4-0.8-2.2-1.2c-2.4,0-4.8,0.2-7.2,0.4c-0.1,0.1-0.2,0.2-0.3,0.5c-0.3,0.5-1,1.8-1.2,2.2c-0.9,1.9-1.7,1.6-1.7,1.6
		s-0.9,0.4-2.1-1.6c-0.4-0.7-0.8-1.3-1.1-1.7c-9.2,1.6-18.2,3.9-28.2,2.2c-0.3-0.5-0.6-1.1-0.9-1.7c8,0.6,15.8-0.5,23.7-2.2
		c-0.1-0.1-0.2-0.2-0.3-0.3c-0.3-0.5-0.7-1.2-0.8-2.2c-7.9,1.5-15.8,2.6-24,1.6c-0.1-0.4-0.2-1-0.4-1.6h4.4
		c6.6-1.1,13.1-2.2,19.6-3.1c-0.1-0.2-0.2-0.3-0.2-0.4c-0.1-0.4-0.6-0.9-0.9-1.9c0-0.1-0.1-0.3-0.1-0.4c-8.5,0.9-17.1,1.4-25.5,1.6
		c-0.2-0.2-0.3-0.5-0.5-0.7c-0.1-0.1-0.2-0.3-0.3-0.4c8.4-0.7,17-2,25.5-3.5v-0.1c-0.7-0.9-1-2.7-1.1-3.4c-10.5,1.6-20.9,3-31.3,2.2
		c-1.1-0.7-2-1.4-2.5-1.8l0,0c3.2,0,9.4,0.1,8.6,0.1h5.7c5.2-0.9,10.9-1.1,16.2-2.5c1.1-0.2,2.2-0.4,3.4-0.6c0-0.7,0-1.4,0.2-2.4
		c0.3-0.8,0.4-1.5,0.9-2.1c-12,1.9-24.4,5.3-35.2,3.9c-0.1-0.3-0.2-0.7-0.3-1.1c11.5,0,25-2.4,37.8-4.6c0.3-0.4,0.7-0.7,1.1-0.9
		c0.9-0.4,2-1.2,2.8-1.2s1-0.5,2.6-0.2c1.5,0.3,2.7,0.6,3.7,0.5c1-0.2,2-0.2,2.9-1.4c0.9-1.2,1.7-2.4,2.1-2.6
		c0.1-0.3,0.5-0.7,0.9-1.1c-19.3,0.9-36.2,9.3-55.4,7.8c-0.2-0.3-0.3-0.7-0.5-1c7.6,0.6,13.5-2.7,21.2-2.8
		c13.9-3.8,23.1-4.9,38.6-5.7c1-0.3,2.3-0.5,3.6-0.6c3.9-0.2,3.4,0.2,7.1,0.6c0.5,0,1.4,0.2,2.3,0.3c0.3,0.1,0.8,0.1,1.4,0.2
		c1.2,0,2.3,0.1,3.2,0.2v0.4c1.3,0.5,2.8,1.2,3.7,1.4c1.1,0.2,1.9,0.5,2.8,0.8c0.9,0.3,1.4,0.6,2.2,0.9s3,1.2,5,1.6
		c2,0.5,3.4,0.5,5,0.9h0.1c17.4,1.5,34.4,4,51.7,5.6L217,294.5z M220.1,289.6c-14.4-2.5-30.6,0.2-44.2-4c-6.6-1.3-11.7-0.6-17.9-2.5
		l1.1-0.6c20.7,1.5,41.3,4.6,61,6.6C220.1,289.3,220.1,289.5,220.1,289.6z M222.9,282.3c0,0-0.2,0.4-0.5,1c-2.9-0.3-7.6-0.8-9.3-1.1
		c-0.4-0.1-0.2-0.4-0.4-0.8c3.9-0.4,7.8,0.4,10.3,0.7C223,282.2,222.9,282.2,222.9,282.3z M217.7,277.1v-0.6c0.8,0,1.6,0.1,2.2,0.6
		H217.7z M221,277.5l0.6-1l5.7,0.4C225.1,277,223.3,277.7,221,277.5z M229.9,262.5c-0.4,0.9-0.8,2.1-1.1,3c-1-0.1-2-0.1-2.8-0.1
		l0.4,0.7c0,0-0.1,0-0.1,0.1l0.1,0.2c-4.5,2.5-15,0.9-14.8,0.8c-8.7-1-6.9-1-13.8-1.9c-0.6-0.1-9.9-1.6-11.8-3
		c0.1,0,0.2-0.1,0.3-0.1c-0.1-0.1-0.2-0.1-0.3-0.2c5.4-1.4,6.8-2.9,9-3.7c1.5-0.1,3.4,0.5,5.2-0.5c2.6,0.2,5.2-1.6,7.5-0.6
		c4-1,8.6-2.5,12.6-1.9c3.3-1.5,7.6-0.3,11.2-0.4c0.2,1,1.5,1.1,2.7,1.2C232.5,258.4,230.3,261.3,229.9,262.5z M238.2,248.1
		c-2.5,0-7.3,0.5-7.9,0.6c-0.6-0.5-1.4-0.9-2-1.6c0.4,0,0.8,0,1.1,0c0.8,0,2.5,0.2,3.8,0.2s3.1-0.3,4-0.1c0.4,0.1,0.8,0.2,1.2,0.3
		C238.3,247.7,238.3,247.9,238.2,248.1z M239.4,245.6c-0.5,0-1.4-0.1-1.8-0.1c-0.4,0-1.8,0.1-2,0.2c-0.2,0.1-2.1-0.2-2.9-0.2
		s-2.2,0-3.3,0.1c-1,0.1-1.7,0.1-2,0.2c-0.1-0.2-0.2-0.4-0.2-0.6c-0.1-0.4-0.4-1.3,0.2-1.7c-0.1-0.1-0.3-0.2-0.4-0.4
		c0.4,0,0.8,0,1.1-0.1c0.4-0.1,1.5,0,1.8,0c0.4,0,1.7,0.3,2.6,0.4c0.9,0.1,2.8,0.4,3.6,0.5c0.5,0,2.9,0,4.7-0.1
		C240.3,244.5,239.7,245.1,239.4,245.6z M255.5,216.7c-0.1,0.3-0.3,0.6-0.5,1c-1.7,0.4-3.2,1.2-5.5,0.7c-1.4-0.3-2.5,1.7-3.6,0.2
		c-0.5-0.1-0.5-0.6,0-0.8c-0.8-0.1-1.8,0.5-2.4-0.5c-8.1,0.7-15.7,0-23.8,0.6c0.3,1.1-0.6,1.7-0.3,2.7c2.1-0.3,5.6,2.2,6.1-1
		l0.6,1.6l27.4,0.1c-0.2,0.5-0.4,1-0.6,1.4c-7.7,0.9-14.7,1-22.5,2c-0.2,1-1.3,2.2-0.8,2.8c1.5-0.3,3.3,1.1,4.4-0.6
		c0.3,0.3,0.7,0.4,0.6,0.9c0,0,11.7-0.5,16.2-0.6c-0.2,0.6-0.3,1.2-0.5,1.8c-0.6,0-1.1,0.1-1.2,0.1c-0.3,0-2.2,0.2-2.8,0.3
		s-2.4,0-2.9,0.1c-0.4,0.1-3.4,0.2-4,0.2s-4.1,0.1-4.6,0.1s-0.9,0.5-1,0.7s-0.6,0.8-0.7,1.1c-0.1,0.2-0.4,1-0.2,1.3s1.5,0.3,2.2,0.3
		c0.8,0,6.3,0.3,7.1,0.3c0.6,0,4.9,0.1,7.4,0.1v0.1c0.1,0.3,0.1,0.7-0.5,1.3c-0.7,0-1.4,0-1.6,0c-0.6,0-2.3,0.2-3,0.1
		c-0.6,0-4.2,0.2-4.8,0.1c-0.6,0-4.8,0.3-5.4,0.3c-0.7,0-2.6,0.2-2.8,0.3c-0.2,0-1,0.9-1.1,1.1c0,0.2-0.5,1.2-0.3,1.4s2,0.1,2.3,0.1
		s4.9,0,5.6-0.1s4.7,0.2,5.7,0.2c0.4,0,1.3,0,2.1,0c-0.5,0.5-1,1-1.5,1.6c-0.6,0-1.2-0.1-1.4-0.2c-0.3,0-1.5,0.1-2.4,0.1
		s-2.3,0-2.7,0.1s-2.9-0.1-3.4-0.1c-0.4,0-3.1,0.6-4.8,0.5c-1.7,0-2.4-0.1-2.9-0.1c-0.1,0-0.3,0-0.6,0.1c0-0.2,0.1-0.4,0.3-0.6
		c-1.1,0.1-1.4-1.9-1.8-2.8c-0.4,0.9-1.2,2.8-1.8,2.8c0.2,0.4,0.2,1.8-0.8,2.3c0.7,0.9,0,2.8-1.1,2.1c-0.6,1-1.4,1.9-2.7,1.7
		c-1,0.8-1.9,1.4-2.9,0.9c-1.3-1.1-1-2.1-3.2-2c-0.3-0.4,0.7-1.3,0.9-1.3c-0.6-0.2-1.9-0.2-1.9-0.2s-0.6-0.4-0.2-1
		c-0.6-0.2-1-1.3-0.5-1.8c-0.7-0.3-1.2-1.3-0.6-1.9c-0.7-0.4-0.8-1.2-1.2-2.1c-0.2,0.8-0.4,1.8-0.9,2.1c0.4,0.5,0.4,1.6-0.5,2.1
		c0.8,0.9,0.1,1.8-0.3,2.4c-0.5,0-1.2,0.1-1.6-0.3c0,0,0.4,1.6-0.3,2.4c0.7,0.4,0.2,0.9-0.1,1.2c-0.6,0-0.9-0.1-1.6-0.2
		c-0.2-1.7-0.3-2.2,0.4-3.3c-0.8-0.1-0.3-0.3-1.1-0.6c-0.4-0.7-1.2-3.8-1.2-3.8c-0.5,1.1-0.9,3.2-2.2,3.3c0.6,1.2,0.9,2.7-0.9,3.7
		c1.6,1.2,0.9,3.2,0.1,3.6c-0.6,0.2-1.1,0.7-2.3,0.2c-0.5-0.2-1.5-1.1-0.3-2.7c-1.7-1.6-0.9-5.3-0.1-6.2c-1.3,0.2-2.6-2.1-0.9-3.4
		c-1.2-0.5-2.1-2.4-2.4-4c0.3-0.2,1-1.1,1.1-1.4c0.1-0.3,0-0.7-0.3-0.8c-0.1,0-0.4-0.1-0.7-0.1c0-0.1,0.1-0.2,0.1-0.3
		c-0.6-0.2-0.9-0.7-1.1-1.3c0-0.2,0.1-0.4,0.2-0.4c0.2,0,2.4,0.3,2.7,0.3c0.3-0.1,1-1.2,0.5-1.3s-3.1-0.4-3.5-0.6
		c-0.1,0-0.2,0-0.4-0.1c-0.1-0.2-0.1-0.4-0.2-0.6c-0.1,0.2-0.1,0.3-0.2,0.5c-0.8-0.2-1.9-0.5-2.2-0.5c-0.4-0.1-2.9-0.9-3.3-1.1
		c-0.4-0.1-3.7-1.1-3.8-1.3c-0.1-0.1,0.2-0.5,0.3-0.7c0.1-0.1,3.5,0.6,3.6,0.6c0.2,0,0.6-1.7,0.6-2c0-0.2-2.3-0.4-2.6-0.4
		s-4.1-0.3-4.6-0.4c-0.5-0.1-4.6-0.7-5.2-0.8c-0.5-0.1-4.8-0.8-5.4-0.9c-0.6-0.2-2.7-0.4-2.8-0.6c0-0.1,0.5-0.6,0.8-0.7
		c0.3-0.1,6.6,0.3,7,0.3c0.3,0.1,5.2,0.3,5.7,0.3c0.6,0,7.9,0.6,8.3,0.6c0.4,0,0.6-0.6,0.7-0.8c0.2-0.3,0.8-1.5,0.8-1.7
		c0.1-0.2-0.4-0.5-0.6-0.5c-0.2-0.1-5.2,0.1-5.7,0.1s-6.8,0.1-7.2,0.1c-0.4-0.1-5.6-0.2-6.3-0.2s-11.9-0.4-12.3-0.4
		c-0.4,0-11.1-0.2-11.1-0.2s-0.4,0.3-0.1,0.4s3.4,0.7,3.7,0.7s5.9,1.1,6.3,1.2c0.4,0.1,9.6,2.4,10.2,2.5c0.6,0.1,7.5,2.3,8,2.5
		c0.6,0.2,5,1.8,6,2.3c0.9,0.5,4.1,1.5,5.1,1.7s5,1.2,5.1,1.3s0.2,1.3,0.2,1.3s-0.2,0.1-0.5,0.1s-7.7-1.8-8.3-2s-11.6-3.3-12.7-3.7
		c-1.1-0.4-10.6-2.8-11.2-3c-0.7-0.1-9.5-1.9-10.1-2c-0.6-0.2-5.2-0.9-5.7-1s-7.8-0.9-8.5-1s-7.6-0.9-8.7-1.1
		c-1.1-0.1-6.5-1.2-7.6-1.4c-0.6-0.1-2.2-0.8-3.5-1.4c-0.2-0.4-0.1-1,0.3-1.5c0.2-0.3,0.6-0.4,1-0.4c0.6,0.4,1.4,0.8,1.9,0.9
		c0.9,0.2,3.2,0.6,4.2,0.7c1,0.1,6.6,1.1,7.5,1.1c0.9,0,5.5,0.3,6.3,0.3c0.7,0,7,0,7.9-0.3c0.9-0.2,6.8,0,7.4,0.1
		c0.6,0.1,9.8-0.2,10.6-0.4s20.6,0.1,22-0.1c1.4-0.2,14.2,0.1,15.5,0s17.6,0.6,18.6,0.6s17.9,1.3,19.2,1.3s8.3,0.5,9.1,0.2
		c0.6-0.2,8.1-0.1,11.8-0.2C255.9,215.9,255.7,216.4,255.5,216.7z M258.1,212.7l-2.7-0.1c-0.3,0.1-10.6-2.4-11.5-2.7
		c-0.9-0.4-9-4.4-9.7-4.7c-0.3-0.1-12.4-4-13.7-3.4c-0.4,0.2,9.6,8.8,8.8,8.8c-1.4,0.1-1.6,0.1-1.9,0.1c-0.8,0-8.2-0.3-8.9-0.3
		s-16.7,0.4-17.5,0.3c-0.8-0.1-18.9-0.3-19.7-0.3s-25.6,0.3-26.5,0.4c-1,0.1-5.8-0.2-8.2,0.4c-2.4,0.6-22.3-0.5-23.1-0.8
		c-0.8-0.3-0.5-0.7-0.5-0.7l-4.2-0.4l0.3-1c0,0,8.2,0.2,9.8,0.2c1.6,0,12.2,0.2,13.3,0.2s10.6-0.3,11.5-0.4
		c0.9-0.1,25.1-0.7,26.1-0.7s12.4,0,13.6-0.1c1.2-0.1,13.5,0.2,15,0.4s12.4,0.8,13.8,0.7c-0.4-0.2-3.8-1.5-4.6-1.9s-1.2-0.9-1.5-1.2
		s-2-0.4-2.5-0.4s-12.7-0.1-12.7-0.1c0.7,0-9.2-1.1-9.2-1.1s1.1,1.1,1.4,1.2c0.3,0.1,1,0.2,1,0.2s-1.4,1.4-1.8,1.3
		c-0.4-0.1-1.4-1.5-1.6-1.5c-0.3,0-0.9-0.3-1.7-0.8c-0.7-0.1-8.2,0.1-9.5,0.3c-1.2,0.1-8.1,0.3-9.4,0.3c-1.2,0-8.3-0.3-8.8-0.3
		s-0.8,1.4-1.2,2s-0.9,0.5-1.2,0.6c-0.3,0-0.5-0.5-0.5-0.8s0.8-1.6,0.8-1.6s-2.6-0.5-3.9,0.1c-1.3,0.6-3.6,0.9-5,1.1
		c-1.4,0.3-12.5,0-13.3,0s-2.2-0.5-3.5-0.8c-0.9-0.2-6.8-0.6-10.3-0.8c0.1-0.2,0.2-0.4,0.2-0.6c0.2-0.4,0.9-2.4,1.1-2.9
		c0.1-0.5-0.3-1.9-0.5-2.2c-0.1-0.3,1.5-1.9,1-2.1c-0.4-0.1-2.1-0.3-2.1-0.3s-2.8,0.3-3.1,0.3c-0.3,0,0.1-0.5,0.1-0.5
		s1.3-0.6,1.6-0.8c0.5-0.4,1.9-0.7,2.2-0.9s1.3-1,1.9-2.2c-0.3,0.1-4,0.7-5.8,0.5c-0.2,0-0.3,0-0.4-0.1l7-2.4
		c1.1-0.2,2.6-1.3,4.2-2.5l0.8-0.6c4.6-3.8,8.9-6,13.4-7l3.7-0.2c5.1-0.3,9.9-0.6,15.1-0.6l0.5-0.1c2.2-1.1,3.7-2.5,5.2-3.8
		c1.7-1.5,3.2-2.9,5.7-3.8l2.9-1.3c1.8,0.7,3.3-0.1,4.6-0.8c0.4-0.3,0.9-0.5,1.8-1c0.4-0.3,1.8-2,2.4-2.9l3.4-1.8
		c2.6,2.2,5,5.1,7.2,7.9c1.1,1.4,2.2,2.8,3.2,3.8c0.7,1.9,2.4,2.8,3.9,3.5c0.8,0.4,1.6,0.8,2.4,1.5c0.7,0.5,1.4,0.8,2.2,1.1
		c1.1,0.5,2.2,0.9,3.1,1.9l0.4,0.3c0.6,0.2,1.3,0.4,1.9,0.6c1.3,0.4,2.5,0.8,3.1,1.7l0.3,0.3c0.1,0.1,10.2,6.4,14.9,10.5
		c1.3,0.6,2.3,1.5,3.4,2.5c1.2,1.1,2.4,2.2,3.9,2.8c1.6,0.9,3,1.7,4.4,2.6c1.7,1,3.3,2,5.3,3.1l5.4,3.1
		C256.3,211.7,257.3,212.3,258.1,212.7L258.1,212.7z M282.5,93.5c-0.2,0.5-0.8,1.5-1.3,2.4c-0.7,1.3-1.4,2.5-1.6,2.9
		c-0.5,1.2-0.9,2.6-0.4,3.8c0.2,0.4,0.9,2.4,1.4,4.1l0.7,2.1c0.2,0.7,0.6,1.3,0.8,1.7c0,0.1,0.1,0.1,0.1,0.2c-0.2,0.4-0.5,1-0.9,1.6
		c-1.1,2.1-1.6,3-1.8,4c-0.9,5.7-1,7.2-0.9,7.9c0.1,0.7,0.1,2.1,0.1,3.5c0,1.5,0,3,0.1,3.3c-0.1,0.8-1.8,5.3-2.5,7.2
		c-0.3,0.9-0.6,1.6-0.8,2.1c-0.7,1.8-0.8,4.2-0.8,5.8c0,0.3,0,2.1,0.1,3.9c0.1,2,0.2,4.1,0.2,4c-0.2,0.4-1.2,1.7-1.8,2.5
		c-0.5,0.6-0.9,1.2-1.3,1.7c-0.3,0.3-0.8,0.9-1.4,1.7c-5.8,7.2-6.8,9-6,10.6c0.2,0.3,0.7,2.2,1,3.4c0.5,1.8,0.9,3.5,1.3,4.4
		c0.4,1,1.1,3.5,1.5,5.1c0.3,0.8,0.4,1.5,0.5,1.6c0.1,0.6-0.3,2.7-0.6,3.5c-0.2,0.3-0.6,1.2-1,2.1c-0.6,1.1-1.1,2.3-1.3,3
		c-0.2,0.7-0.6,1.6-0.6,2.7c0,0.4-0.1,1.4-0.2,2.5c-0.3,3-0.3,3.7-0.2,3.9c0,0.4-0.5,1.6-0.7,1.9c-0.1,0.1-2.5,3.1-4.8,6.3
		c-0.8-0.5-1.9-1.1-3.2-1.9l-5.4-3.1c-1.9-1.1-3.6-2.1-5.2-3.1c-1.5-0.9-2.9-1.8-4.6-2.7c-1.2-0.5-2.3-1.4-3.4-2.4
		c-1.1-1-2.3-2-3.6-2.6c-4.4-3.7-13.3-9.5-14.8-10.4c-1-1.4-2.7-1.9-4.2-2.4c-0.5-0.2-1-0.3-1.4-0.5c-1.2-1.2-2.6-1.8-3.8-2.3
		c-0.7-0.3-1.3-0.5-1.8-0.8c-0.9-0.8-1.8-1.2-2.8-1.7c-1.3-0.7-2.4-1.2-3-2.6c-1.2-1.3-2.3-2.7-3.4-4.1c-2.5-3.1-5.1-6.3-8.2-8.7
		l-0.6-0.4l-5,2.6l-0.4,0.2l-0.2,0.4c-0.2,0.4-1.5,2.1-1.7,2.4c-0.6,0.2-1.1,0.5-1.6,0.8c-1.4,0.8-2,1-2.8,0.5l-0.5-0.3l-3.9,1.7
		c-2.9,1.1-4.7,2.7-6.4,4.2c-1.4,1.2-2.7,2.3-4.5,3.3c-5.1,0-9.9,0.3-14.9,0.6l-3.9,0.2c-5.1,1.1-9.7,3.5-14.5,7.5l-0.8,0.6
		c-0.8,0.6-2.6,1.9-3.4,2.1l-2.7,0.9c-0.6-0.1-1.2-0.2-1.9-0.4c-4.4,0.2-5.2,0.3-9.3-2.5c-0.2-0.6,0.5-0.9,0.6-1.4
		c1-0.1,1.8,0.3,2.8,0.3c0.1-1.5-0.2-3-1.4-3.7c0.5-1.6,2.9-0.3,2.5-2.4c-0.4-1.4-1.3-1.8-2.5-1.9c0.7-2.1-1.7-1.1-2.4-2.2
		c0.2-2.6,1.8,0.3,3.2-0.6c-2.3-4-8.1-3.2-11.8-5.7c0.1-0.7,0.1-1,0-1.4l-0.8-0.9c0-2.2-2.9-1.1-3.9-3c-0.2-2.6,3.1,0.8,3.1-2
		l0.6,0.6c0.7-0.2,1.1-0.6,1.4-1.4c1-1.7,3.3-1,4.4-2.8c-0.6,0.1-1.3-0.2-1.6,0.2c0.4-0.8-0.9-2.6,1-2.8c1.1-2.5,4.4-3.1,6.3-4.4
		c0.7-1,1-2.2,0.9-3.6c0.3-3.7-4.1-3.6-5.1-4.9c-1.4-0.5-1.3-2.2-2.2-2.7c-1.6-1.5-3.3,0.6-5.2-1.1l1-1.1c-0.3-0.8-0.5,0.1-1.1-0.8
		c-0.8-0.6-2-4.3-0.7-5.6l-0.1-0.6l-0.8-0.8c1.6-2.3,5.5-0.1,5.2-3.9c2.3-2.5-1.2-2.8,1.1-3.8c0-0.9-1.2-2.6-2.1-3.8
		c-0.6-0.1-1.1,0.1-1.3-0.1c-0.4-0.4-0.5-0.6-0.7-1.1l0.9-0.1c-0.2-2.4,1.3-2.2,1.3-2.2c0-0.4,0-1.1,0.2-1.4
		c1.3-2.1,1.6-3.7,2.4-5.5c-0.5-0.7-0.6-1.3,0-2.2c0.1-0.4,0.6-1.8,0.6-2.4c0-0.4-0.6-0.2-1-0.3l-0.7,1.9h-0.6
		c0.7-2.5,1.4-5.8,0.3-8.2c0.2-0.1-0.2-0.2,0-0.3l0.4-1.7c-0.4,0-0.6-1.5-0.6-1.5c-1.4,0-4.2,0.1-5.7,0.1c-1.5,0.3-1.2,2.2-2.9,2.6
		c-1.1-0.3-0.8,2-2.1,1.7c-0.3,0.5-0.3,0.6-0.3,0.6c0.3,0.2,0.5,0.4,0.6,0.5c1.2,1.2-2,0.5-1.7,1.7c-0.3,0.1-0.4,0-0.6,0.1
		c-0.2-0.9-1.3-0.9-1.3-2.1c0.1-0.1,0.6-0.7,0.8-0.6c0-0.7-1-0.6-0.8-1.4c-0.7-0.5-1.7-0.4-2.4-0.8c0-0.3-0.3-1-0.4-1.6
		c-0.1-0.7,0-1.5,0-1.8c-2.7-0.4-0.2-1.7-0.1-2.2c0.6-1.1,0.2-2.5-0.6-3.8c0.5-1.1-0.2-2.2-1.6-2.4c-1.1-1.7,0-2.3,0.1-3.7h-0.8
		c-0.1-1.1,0-1.5,0.1-2.2c2.5-0.8-0.1-3,2-4.5c-0.1-2.7-2.9-1.9-3.3-3c-0.3-0.5-5.4-1.9-8.2,0.6c-4.7,0-3.5,4.3-8.5,6.3
		c1.5,1.9,5.8,0.5,5.6,3.7c-2,3.1-4.9-1.2-6.7-1.1c-1.3,0.1-2.2,1.3-3.2,2.4c0,0.8,0.4,1.3,0.1,2.4c-0.5,2.8-3.4,2-4.2,4.3
		c0.8,0.8,2.1,1.1,3.1,0.7c1.4,0.5,1.7,1.4,1.7,3c0.7-0.1,2.3,0.2,2.6-0.6c0.4,0.5-0.1,1.3,0.5,1.8c-1.3,1.7-2.1,3.5-2.4,5.6
		c0.2,3.3,4.6,2.2,3.7,6.1c1.8,0.3,4.9,2,6.6-0.5c0.4,0.5,0.8,0.2,1.1,0.8c1.2,3.3,0.6,7.8-0.4,11.1c-0.9,0-2.5,1.9-3.4,0.5l0.3-7.4
		c-0.3-0.8-0.2-2.9-1.9-2.2c-2.3,0-4.1,0.8-4.1,3.3l0.6-0.6c0.2,0,0.3,0.1,0.5,0.3c0.1,1.1,0.1,3.1-1,4.1c-0.6-0.6-0.2-1.5-0.4-2.3
		c-0.8,0.9-0.7,2.9-1,4.1c2.2-1,1.8,2.6,3.8,1.9c1,1.4,0.5,2.5,0.9,3.6c-0.3,0.1-0.5-0.1-0.6-0.2l-1.7,1.6c-1.5,1.7-2.4-1-4.1-0.4
		c-1-2.9-1.1-6.5,0-9.6c-1.6,0.4-4.4-1.5-6.9-0.4c-0.6,0.8,0.1,1.8-1.5,1.5l-0.7,1c-3.4,3.6-1,4.7-1,4.7c-1.5,1.5-3.9,2.6-4.8,4.9
		c1.5,0.2,2.6,0.1,2.2,2c4.6,2.2-2.5,4.6-0.2,7.1c-0.6,0.6,0,1.6,0,1.6c5.2,0.6-0.7,4,0.3,6.8c3.9-0.1,4.9,1,8.4,1.3
		c3,0.3,6.8,0,10.2-0.2l0.7-0.6c1.5,0.5,3.1,2.3,5,2.4l-3.5,2.8c-1.5,0.7-3.3,0.2-4.4-1c-2.2,0.4-4.7-0.7-6.6,1l1.2,1.3l-2,1
		c-2.5,0-6.2,0.9-7.5,3.2c-0.1-0.2-0.4-0.5-0.4-0.8c-1.3,1.6-4.1,2.6-5.1,4.7c1.8-0.5,5.5,0.2,7.4,1.4c-1.4,2.6-5.5,0.9-7.7,1.9
		c-0.8,0.6-2.5,0.5-2.5,1.9h1.4c0.8-0.1,2.5,1,2.2,1.6c-2.6-0.8-4.9,1.7-6.3,3.6c0.9,1.8,3,2.1,4.5,3.1c-2.6,4.5,4.9,3.4,7.1,6
		c-0.5,0.6,1.1,0.6,1.1,0.6c0.8,0.7,1.3,1.4,1,2.5l0.6-0.6c0.5-0.1,0.6,0.3,0.8,0.6c-0.8,3.7-4.9,4.8-8.5,5.7c0,0.3-0.1,0.7,0.2,0.8
		c-1.8,4.1-6.2,3.4-8.7,6.6c-0.1,0.9-0.1,1.7,0.8,2.2c-0.6,0.3-1.8,1.2-1.8,1.7c3.4,1.4,6.6,1.1,10.6,1.1c0.9-2,2.2-4.2,4.4-5.2
		c0.8,0.7,2.5-0.6,3,1c-0.3,0.2-0.2,0.6-0.2,0.8c1.5-0.5,2.9,1.1,4.1-0.2c0-2.5,2.9-3.9,4.4-5.7c3-1.4,5.7-0.5,8,1.6
		c0.3,1,0.2,3.6,1.9,3.9c-0.9,1.1-2.3,0.8-3.3,1.6l0.6,1.1c-5.9,2.3-11,0.8-17.1,0.8c1.3,2.3-3.1,3.1-3,5.7l4.6,0.6
		c1.6,0.6,1.9,2.1,2.5,3c-0.1,0.9-0.7,1.5-1.1,2.3c-0.8,0.2-1.8,1-2.4-0.2c-0.4,0.3-1.9,0.9-3.1,1c-1.1,2.5-5.4,0.9-7.7,1.4
		c0.4,0-0.5,1.1-1,0.8c-2.5,1.9,1.3,1.5,1.4,3.3c-0.4,0.5-1.5,0.1-1.2,1c0.8,0.3,1.8,0.6,2.8,0.7c-5.4,2.1-10.3,3.7-13.7,4.5
		c-0.2-1-0.7-2.5-1.5-5.3c-0.3-0.8-0.6-1.7-0.9-2.4c-0.1-0.2-0.2-0.4-0.2-0.3c-0.1-0.7-0.7-6.2-1.2-8.3s-5.2-16.9-6.4-19.6
		c-0.3-0.7-0.9-2-1.5-3.6c-3.4-8.4-4.5-10.7-5.5-11.5c-0.5-0.3-1.1-1.9-1.4-2.6c-0.2-0.4-0.4-0.8-0.4-0.7c0.1-0.1,0.3-0.7,0.5-1
		c0.3-0.6,0.7-1.2,0.8-1.9c0-0.2,0.1-0.4,0.2-0.7c0.3-0.8,0.7-1.8,0.9-3.9c0.3-2.8,0.5-6.5,0.5-6.5c0.1-1.8,0.4-6.3-0.1-7.9
		c-0.3-1-1.6-3.7-4.5-9.4l-0.4-0.7c-0.1-0.5,0.1-2.9,0.2-4.1c0.1-1.1,0.2-2.2,0.2-2.9c0-1.7-1.6-10.3-2.7-11.8
		c-0.4-0.5-0.6-1.1-1-1.8c-0.3-0.6-0.6-1.1-1-1.8c-0.5-1-0.6-5.3-0.1-6.5c0-0.1,2.2-5.3,2.2-7.5c0-0.3,0.1-0.7,0.2-1.3
		c0.5-3.1,1.3-8.4-1.5-10.9c-0.7-0.6-2.2-3-3.2-4.6l-0.5-0.8c-0.5-0.8-1-1.8-1.3-2.4c0.1-1.2,0.8-4.6,1.2-6.9c0.8-4.3,1.2-6.2,1.2-7
		v-0.9c0-0.6,0-1.7,0-2.2c0.8-0.4,2.8-1.1,4.1-1.6c2.6-1,4.3-1.7,5.1-2.2c1.4-0.9,7.8-5,9.7-6.1c0.9-0.5,1.4-0.6,1.8-0.6
		c0.8,0,1.8,0.4,3.4,1c3,1.2,10.4,4.2,11.8,4.7c0.7,0.3,11.1,4,14.7,4c5.5-0.6,8.7-3,10.1-4c2-1.5,4.3-8.4,4.3-10.6
		c0-2.4-2-8.6-2.8-10.2l-0.5-1.1c-1.3-2.7-2.4-5.1-3.6-6c-0.6-0.5-1-1.7-1-2.2c0.1-0.3,0.4-1.4,0.8-2.6c1.5-0.4,2.4-0.8,3.3-1.3
		c1-0.2,3.1-0.9,5.5-1.8c0.9-0.3,1.6-0.6,2-0.7c0.3-0.1,1.2-0.4,2.3-0.9c1.6-0.6,5.1-2.1,5.9-2.2s2.2-0.5,4.4-1.3
		c1.3-0.4,3.1-1,3.5-1.1c0.9,0,2.3-0.5,4.5-1.3c0.9-0.3,1.7-0.6,2.1-0.7c0.7-0.2,2.8-0.8,4.8-1.4c1.5-0.4,2.9-0.8,3.2-0.9
		c0.2-0.1,1.5-0.5,3.1-1.1c1.8-0.6,5.5-2,6.6-2.2c2.5-0.7,6.3-1.3,7.9-1.6c1.1-0.2,5.6-0.6,7.5-0.5h0.6c2.1,0,7.3-0.3,11.2-0.6
		c1.9-0.1,3.4-0.2,3.7-0.2c0.1,0,5.6,0,7.7-0.6c1.5-0.4,15.1-1,18.9-1.2l0.5,0.1c1,0.3,3.5,0.8,4.4,1.3c1.4,0.9,8.4,4,11.3,4.5
		c1.4,0.3,4.5,0.5,8.1,0.8c3.7,0.3,9.2,0.8,10.3,1c0.4,0.6,1.3,1.6,2.2,2.7c3.3,4,4,4.8,4.6,5.1c0.5,0.3,2.3,1.8,4.1,3.2
		c1.5,1.2,3,2.4,3.4,2.7c0.6,0.5,0.7,0.7,0.9,1.3c0.1,0.3,0.1,0.4,0.1,0.4l-0.3,0.5l0.2,0.7c0,0,0.4,1.7,0.6,2.7
		c-0.8,0.6-2.2,1.5-3.1,2.1c-1.5,1-2.4,1.6-2.9,2c-0.6,0.2-1.3,0.7-2.1,1.6c-1.7,2.2-2.7,6.3-2.2,9.3c0.6,3.9,4.4,9,6.6,9.7
		c0.8,0.3,4.1,1,6.6,1.5c1.4,0.3,2.6,0.6,2.5,0.5c0.3,0.2,1.1,1,1.2,1c0.4,1.2,3.3,3.3,3.8,3.4c0.1,0.1,0.2,0.3,0.4,0.4
		c0.8,0.7,1.9,1.8,3.4,1.8h2.8c5.7,0,7.2-0.3,7.9-0.5c0,0,0.2,0,0.5,0c1.2,0,3.2,0.4,4.8,0.6c1.4,0.2,2.6,0.4,3.6,0.4
		c0,0,8.4-1.2,9.8-1.5c0.8,0,3.7,1.6,5.1,2.3c0.7,0.3,1.3,0.6,1.8,0.9c0.7,0.4,2.1,1,3.7,1.6c1.7,0.7,4.9,1.9,5.7,2.4
		c-0.1,0.3-0.2,0.7-0.2,1.2c0,0.4,0.1,1.9,0.1,3.5c0.1,1.7,0.1,3.3,0.1,3.9s0.2,2.7,0.8,7.3c0.3,2.2,0.6,4.2,0.6,4.5
		C283.9,90.5,283.3,91.8,282.5,93.5z M97.4,155.8c1.2-0.6,2.3-1.3,3.6-1.4c-0.3,0.9-1.9,2.2-3,2.2L97.4,155.8z M70.5,136.5
		c-0.7-0.2-1.3,0.6-1.4,1c-2.3,0-4.8,2.3-6.9-0.5c0.1-1.7,1.6-2.2,2.5-2.8c1-0.6,5.3-0.4,5.3-0.4l-0.4,0.8
		C70.1,135.4,70.7,135.7,70.5,136.5z M60.6,171.1c-0.3,2.6-3.3,1.4-3.9,3.6c-0.9-0.9-2.9-0.2-2.5-2.2
		C56.4,172.2,59,169.7,60.6,171.1z"/>
	<path class="st0" d="M154.2,313.7c-0.2,0-0.3,0.1-0.5,0.1c0.3,0,0.6,0.1,0.9,0.1C154.6,313.7,154.4,313.7,154.2,313.7z"/>
	<path class="st0" d="M150.3,318.3c-0.2,0.6-0.5,1-0.8,1.6c-0.2,0.4-0.3,0.5-0.7,0.9c6.6,0.6,13.2,1.5,20.2,2.4c0.6,0,1.3,0,1.9,0
		c0-0.1,0.1-0.2,0.1-0.3c0.2-0.5,0.1-1.2,0.2-1.6c0.2-0.3,0.4-1.3,0.5-2c-6.9-1-13.8-2-20.8-2.9C150.7,317,150.5,317.6,150.3,318.3z
		"/>
	<path class="st0" d="M124.4,313.2c0.8,0,1.5-0.1,2.2-0.1c-0.3-0.2-0.6-0.3-0.8-0.3C125.5,312.8,125,312.6,124.4,313.2z"/>
	<path class="st0" d="M161.7,312.1c-0.6,0.3-1.9,0.9-3,1.5c-0.5,0.2-0.9,0.5-1.3,0.7c1.3,0.2,2.6,0.4,4,0.6c3.5,0.3,6.8,1.2,10.2,2
		c-0.1-0.4-0.3-0.8-0.7-1.2c-1.2-1.5-2.3-2.1-3.2-2.7c-0.5-0.3-1-0.7-1.6-0.9c-1-0.1-2.1-0.3-3.1-0.4
		C162.5,311.8,162,311.9,161.7,312.1z"/>
	<path class="st0" d="M176.2,300.9c0-0.1,0-0.3-0.1-0.5c-0.3-0.1-0.5-0.2-0.8-0.2c0,0.2-0.1,0.5-0.1,0.8c-0.2,1.7-0.2,1.6-0.4,2.2
		c0.4,0,0.8,0.1,1.1,0.1C176.1,302.5,176.3,301.4,176.2,300.9z"/>
	<path class="st0" d="M174.8,311c-0.1-0.3,0.1-0.7-0.2-1.1c-0.2-0.4-0.7-1-0.6-1.4c0.1-0.4,0.1-0.9,0.6-1.5c-0.5,0-1,0-1.5,0
		c-0.1,0.3-0.3,0.6-0.3,1c-0.2,1,0,1.5,0.5,2.9C173.7,310.9,174.2,311,174.8,311z"/>
</g>
<path class="st0" d="M141.1,328.2h-0.3l-0.5-0.3c-0.2-0.3-0.1-0.6,0.1-0.9c0.3-0.7,0.6-1.2,0.9-1.5l0.1-0.6l-0.2-0.8
	c-0.1-0.4-1.1-3.2-1.3-3.4l-0.2-0.5c-0.1-0.3-0.1-0.7-0.3-0.8c-0.5-0.4-1.4-1.3-1.6-1.7c-0.1-0.2-1.2-0.8-1.6-0.8
	c-0.6,0-3.9-0.6-4.8-1.1c-0.4-0.2-1.3-0.7-2.1-1.1c-0.7-0.4-1.3-0.7-1.5-0.8c-0.6-0.4-1.8-0.9-2-0.9l-0.5-0.5v0.4
	c-0.2,0-0.4,0-0.7,0.3c-0.6,0.6-1,0.8-1.3,1c-0.2,0.1-0.3,0.2-0.4,0.3c-0.3,0.3-0.3,0.3-0.4,0.5c-0.5,0.8-1.1,2-1.3,2.4
	c-0.8,1.6-1.6,1.9-2.1,1.9c-0.8,0-1.6-0.3-2.6-1.8c-1.2-2-1.8-2.8-1.8-2.8c-0.1-0.1-0.5-0.3-0.8-0.3l-0.5,0.1
	c-0.5,0.1-1.3,0.2-1.7,0.2h-0.5c-0.4,0-1,0-1.5-0.7c-0.4-0.7-1.1-1.7-0.9-3.3c0.1-0.9-0.2-1.6-0.4-2.1l-0.2-0.5
	c0-0.1-0.1-0.3-0.2-0.5c-0.2-0.3-0.5-0.8-0.7-1.4c-0.1-0.4-0.2-0.8-0.3-1.2c-0.1-0.7-0.2-1.5-0.6-2.2c-0.8-1.2-1.1-3.7-1.1-3.8
	c0-0.1-0.1-0.6,0.1-1.7c0.1-0.4,0.1-0.8,0.1-1.2c0-0.6,0-1.3,0.2-2.2c0.4-1.3,0.6-2.4,1.9-3.3c0.3-0.2,0.6-0.5,0.8-0.8
	c0.5-0.5,0.9-1,1.6-1.3c0.3-0.1,0.6-0.3,1-0.5c0.9-0.5,1.7-0.6,2.5-0.9c0.4-0.1,0.9-0.3,2.1-0.1l0.7,0.1c1.2,0.2,2.1,0.4,2.9,0.3
	c1.2-0.2,1.9-0.3,2.7-1.2l0.6-0.9c0.8-1.1,1.2-1.6,1.6-1.9c0.4-0.2,2.2-1.4,2.2-1.4c0.2-0.1,3-1.4,6.6-1.6c2.5-0.2,3.2,0,4.4,0.2
	c0.6,0.1,1.4,0.3,2.8,0.4c0.5,0,1.4,0.2,2.3,0.3c0.3,0,0.6,0.1,1.1,0.1c0.9,0.1,2.1,0.2,3.1,0.5c0.5,0.2,1.1,0.4,1.7,0.7
	c0.9,0.4,1.8,0.8,2.5,0.9c1.1,0.2,1.9,0.5,2.8,0.8c0.5,0.2,0.9,0.3,1.2,0.5c0.3,0.1,0.6,0.2,1,0.4c1.4,0.5,3.3,1.2,5,1.6
	c1,0.2,1.9,0.4,2.7,0.5s1.5,0.2,2.3,0.4l1,0.2c1.2,0.3,2.2,0.5,3.3,1s3.7,1.9,4.8,3.4c0.9,1.2,2.8,3.7,3.1,5.8
	c0.2,1.9,0.4,2.9-0.1,4.9c-0.2,0.8-0.4,1.4-0.5,1.9c-0.2,0.7-0.4,1.2-0.3,1.5c0.3,0.9,0.5,1.4,0.2,2.1c-0.2,0.5-0.4,0.8-0.6,1.1
	l-0.3,0.5c-0.3,0.5-0.7,0.9-0.8,0.9l-0.6,0.3c-0.2,0-0.4-0.1-0.5-0.4c-0.1-0.2-0.1-0.5-0.1-0.7s0-0.4,0-0.5
	c-0.4-0.7-0.8-1.2-0.7-1.7s0.2-1.1,0.7-1.8c0.4-0.6,0.5-1.1,0.5-1.1c0.1-0.2,0.6-0.8,0.7-1.5c0.2-1,0.4-2.6,0.4-3
	c0-0.1,0-0.4-0.1-0.6c0,0.2,0,0.4-0.1,0.7l-0.1,0.9c-0.1,0.9-0.1,0.9-0.4,1.6L175,304c-0.4,0.8-0.7,1.5-1,2
	c-0.3,0.6-0.6,1.1-0.7,1.6c-0.2,0.7,0,1.1,0.3,2.2l0.9,2.8c0.2,0.7,0.3,1.1,0.5,1.3c0.1,0.2,0.2,0.5,0.3,0.6
	c0.3,0.3,0.7,0.4,0.9,0.8c0.2,0.3,0.2,0.8,0,1.3c-0.1,0.3-0.3,0.8-0.5,1.3c-0.5,1.2-1,2.7-1.1,3.6c-0.1,0.8-0.1,1.4-0.1,1.8
	l-0.1,0.6l-0.5-0.1l0.1,0.5v0.5c0,0.6-0.2,2.1-0.2,2.1l-0.1,0.6c-0.1,0.1-0.3,0.3-0.8,0.3h-2.6h-0.5c-0.5,0-0.7,0-0.9-0.2l-0.1-0.2
	l0.1-1.1c0.1-0.9,0.3-1.5,0.7-1.8c0.3-0.2,0.8-0.6,1-0.8c-0.1-0.1,0.1-1,0.2-1.5c0.1-0.2,0.1-0.5,0.1-0.8s0-0.6,0.2-0.9
	c0.1-0.4,0.5-1.8,0.5-2.2c0.1-0.9,0.2-1.8-0.7-2.9c-1.1-1.3-2-1.9-2.9-2.4c-1.7-1.1-2.7-1.6-3.6-1.7c-0.7,0.1-1.7,0.3-2.2,0.6
	l-0.5,0.3c-0.7,0.3-1.6,0.8-2.5,1.2l-1.4,0.8c-0.8,0.4-1.5,0.7-1.8,0.9l-0.6,0.2c-0.5,0-0.9-0.4-1-0.9l-0.1-0.7
	c-0.6,0.1-0.8,0.1-1.4,0.4c-0.5,0.1-1.1,0.7-1.3,1.4l-0.8,2.7c-0.1,0.4-0.3,0.7-0.5,1c-0.1,0.2-0.2,0.4-0.4,0.7
	c-0.2,0.6-0.5,0.8-1.1,1.3l-1.2,1.1c-0.5,0.5-0.9,0.8-1.2,1.5c-0.5,1-0.6,1.1-0.7,1.4c-0.2,0.4-0.3,0.5-0.4,0.6l-0.1,1.4
	c0,0.1,0,0.5-0.2,0.8l-0.4,0.2h-2.5L141.1,328.2L141.1,328.2z M125.4,312h0.5c0.6,0,2.4,1,2.5,1.1c0.2,0.1,0.8,0.4,1.5,0.8
	c0.8,0.4,1.7,0.9,2.1,1.1c0.7,0.4,3.8,1,4.3,1c0.7,0,2.1,0.8,2.3,1.2c0.1,0.2,0.9,1.1,1.3,1.4c0.5,0.3,0.6,0.9,0.7,1.3
	c0.2,0.6,1.3,3.5,1.4,3.9l0.2,0.7c0.1,0.4,0.2,0.6,0.1,0.9l-0.3,0.5c-0.2,0.3-0.5,0.6-0.7,1.2h-0.1v0.4v-0.4h0.9h2.5l-0.1-1.7v-0.2
	l0.3-0.4c0.3-0.5,0.4-0.6,0.9-1.6c0.5-0.9,0.9-1.3,1.4-1.8l1.2-1.1c0.6-0.5,0.7-0.6,0.9-1c0.1-0.3,0.2-0.5,0.4-0.8
	c0.1-0.3,0.3-0.5,0.4-0.8l0.8-2.6c0.4-1.1,1.2-1.8,1.9-2s1-0.3,1.6-0.3c1.1,0,1,0.7,1,1.1l0.2,0.5c0.5-0.2,1.2-0.6,2-1l1.1-0.6
	c0.8-0.4,1.8-0.9,2.5-1.2l0.5-0.2c0.6-0.3,1.6-0.7,2.5-0.7c1.2,0.1,2.4,0.6,3.9,1.6c1.2,0.8,2.2,1.4,3.3,2.8c1.2,1.4,1,2.6,1,3.2
	c0,0.8-0.4,2.4-0.6,2.8c-0.1,0.1-0.1,0.4-0.1,0.6c0,0.3,0,0.6-0.1,0.9c-0.1,0.5-0.3,1.6-0.3,1.6c-0.2,0.3-0.9,1-1.3,1.2
	c-0.1,0.1-0.2,0.8-0.3,1.2c0,0.2-0.1,0.5-0.1,0.6l3.1-0.1c0.3-0.2,0.4-1.6,0.4-2.2c0-0.5,0-0.6,0.1-0.9l0.1-0.1l0.4-0.4
	c-0.1-0.5-0.1-1.2,0-2c0.1-1,0.7-2.5,1.2-3.8c0.2-0.5,0.4-1,0.5-1.3c0.2-0.5,0.1-0.7,0.1-0.7c-0.7-0.2-0.8-0.6-0.9-0.9
	c-0.1-0.2-0.1-0.3-0.2-0.5c-0.2-0.4-0.3-0.8-0.6-1.6l-0.8-2.8c-0.4-1.1-0.6-1.7-0.4-2.7c0.1-0.6,0.4-1.2,0.8-1.9
	c0.3-0.5,0.6-1.1,0.9-1.9l0.3-0.8c0.3-0.6,0.3-0.6,0.4-1.4l0.1-0.9c0.2-1.5,0.1-2,0-2.4c0-0.2-0.1-0.4-0.1-0.6v-0.2l0.3-0.6h0.3
	c0.3,0,0.7,0.3,0.9,0.5l0.3,1c0,0.1,0.2,1.8,0.2,2.4c0.1,0.5-0.1,1.7-0.3,3c-0.2,1.1-0.7,1.8-0.8,1.9c0,0-0.1,0.6-0.5,1.3
	c-0.4,0.6-0.5,1-0.5,1.4c0,0.3,0.3,0.8,0.4,1c0.3,0.5,0.3,0.8,0.3,1.1c0.1-0.1,0.2-0.3,0.3-0.5l0.3-0.6c0.2-0.3,0.4-0.6,0.5-1.1
	c0.2-0.4,0.1-0.6-0.1-1l-0.2-0.4c-0.2-0.6,0-1.1,0.3-2c0.1-0.5,0.3-1.1,0.5-1.8c0.4-1.8,0.3-2.7,0.1-4.4c-0.2-2-2.1-4.4-2.9-5.6
	c-1-1.3-3.7-2.7-4.5-3.1c-0.9-0.5-1.9-0.7-3.1-1l-1-0.2c-0.7-0.2-1.5-0.3-2.2-0.4c-0.8-0.1-1.7-0.3-2.7-0.5
	c-1.8-0.4-3.6-1.1-4.7-1.5c-0.8-0.3-1.1-0.4-1.4-0.5c-0.4-0.1-0.7-0.3-1.2-0.5c-0.9-0.3-1.7-0.5-2.7-0.8c-0.7-0.2-1.7-0.6-2.6-1
	c-0.6-0.2-1.2-0.5-1.7-0.7c-0.9-0.3-2-0.4-2.9-0.5c-0.4,0-0.8-0.1-1.1-0.1c-0.9-0.2-1.8-0.3-2.3-0.3c-1.4-0.1-2.2-0.3-2.9-0.4
	c-1.1-0.2-1.8-0.3-4.2-0.2c-3.4,0.2-6.2,1.5-6.3,1.5c0,0-1.8,1.1-2.1,1.4c-0.2,0.1-0.8,0.9-1.3,1.6l-0.6,0.9c-0.9,1.2-2,1.4-2.9,1.5
	c-0.5,0.1-0.7,0.1-1,0.1c-0.8,0-1.6-0.2-2.6-0.4l-0.7-0.1c-0.8-0.2-1.2-0.1-1.6,0.1c-0.5,0.2-1.3,0.2-2.4,0.8
	c-0.4,0.2-0.7,0.4-1.1,0.6c-0.5,0.2-0.9,0.6-1.3,1.1c-0.3,0.3-0.6,0.7-1,0.9c-1,0.7-1.2,1.5-1.6,2.8c-0.2,0.8-0.2,1.4-0.2,2
	c0,0.4,0,0.9-0.1,1.3c-0.1,1-0.1,1.4-0.1,1.4s0.3,2.4,1,3.4c0.5,0.9,0.6,1.8,0.7,2.6c0.1,0.4,0.1,0.8,0.2,1.1
	c0.2,0.5,0.4,0.9,0.6,1.2c0.2,0.3,0.3,0.5,0.4,0.7c0.4,0.8,0.8,1.7,0.6,2.8c-0.1,1.3,0.4,2.1,0.8,2.8c0.2,0.3,0.4,0.3,0.7,0.3h0.5
	c0.4,0,1.1-0.1,1.6-0.2l0.5-0.1c0.8,0.1,1.5,0.5,1.6,0.6s0.6,0.9,1.9,2.9c0.8,1.3,1.4,1.4,1.6,1.4c0.5,0,1-0.3,1.6-1.4
	c0.2-0.4,0.9-1.7,1.2-2.2c0.3-0.5,0.4-0.7,0.8-1c0.2-0.2,0.4-0.3,0.6-0.4c0.3-0.2,0.6-0.3,1.1-0.8C124.6,312.1,125,312,125.4,312
	L125.4,312z"/>
<path class="st3" d="M116.7,294.1c0.4-0.9,0.1-1.1-0.1-2.2s0-1.8,1.6-0.2c1.5,1.6,1.4,3.6,1.4,3.6s0.2,1.3-1.6,2.9
	c-0.1-2.4-2.2-2.2-2.2-2.2S116.3,294.9,116.7,294.1z"/>
<path class="st3" d="M113.2,299.9c0.5,0,0.6,0.4,1.3,0.6c0.6,0.1,0.4,0.6,0,0.7c-0.3,0.1-0.6,0.2-1.2,0.2c-0.4,0.1-0.6,0.1-1.2,0
	s-0.2-0.6,0-0.7s0.3-0.2,0.4-0.4C112.6,300.2,112.7,299.9,113.2,299.9z"/>
<path class="st3" d="M134.7,158.8c1.7,0.5,3.9,0.8,5.7,0.8c4.3,0,8.4-1.3,8.4-6.3c0-6.9-9.1-4.8-9.1-7.9c0-1.7,2.1-1.8,3.4-1.8
	c1.5,0,2.9,0.3,4.3,0.9l0.3-4c-1.3-0.4-3.1-0.7-4.9-0.7c-3.8,0-8.4,1.3-8.4,5.9c0,7,9.1,4.7,9.1,8.3c0,1.5-1.5,1.9-3.2,1.9
	c-2.1,0-4-0.6-5.3-1.3L134.7,158.8z"/>
<polygon class="st3" points="152,159.3 165.8,159.3 165.8,155.7 157.1,155.7 157.1,151.4 165,151.4 165,147.7 157.1,147.7 
	157.1,143.8 165.5,143.8 165.5,140.1 152,140.1 "/>
<path class="st3" d="M183.3,154.1c-1-2.3-1.1-3.8-2.7-4.2v-0.1c2.5-0.6,3.7-2.3,3.7-4.8c0-3.3-2.8-4.8-6.2-4.8H169v19.1h5.1v-7.6
	h1.1c1.9,0,2.6,0.8,3.6,4.1l1.1,3.5h5.3L183.3,154.1z M175.4,148.1h-1.3v-4.3h1.3c2,0,3.7,0.3,3.7,2.1
	C179.1,148.1,177,148.1,175.4,148.1z"/>
<polygon class="st3" points="192.8,159.3 199.2,159.3 205.7,140.1 200.4,140.1 196.2,155.2 196.1,155.2 191.9,140.1 186.4,140.1 "/>
<rect x="208.3" y="140.1" class="st3" width="5.1" height="19.2"/>
<path class="st3" d="M233.2,154.9c-1.4,0.6-3.1,1-4.8,1c-3.7,0-6.4-2.3-6.4-6c0-3.6,2.4-6.2,6-6.2c1.8,0,3.4,0.4,5,1.3l0.4-4.1
	c-1.8-0.6-3.7-1-5.7-1c-6.3,0-11,3.3-11,10c0,7.2,5.9,9.8,11,9.8c2.6,0,4.2-0.4,5.7-0.8L233.2,154.9z"/>
<polygon class="st3" points="235.9,159.3 249.7,159.3 249.7,155.7 241,155.7 241,151.4 249,151.4 249,147.7 241,147.7 241,143.8 
	249.4,143.8 249.4,140.1 235.9,140.1 "/>
<path class="st3" d="M161.8,112.7h-6.1v19.2h5.1v-6.7h2c4.8,0,7.6-2.3,7.6-6.2C170.4,114.7,167.7,112.7,161.8,112.7z M162.1,121.5
	h-1.3v-5.2h1.3c1.8,0,3.2,0.6,3.2,2.6S163.9,121.5,162.1,121.5z"/>
<path class="st3" d="M183.6,112.7h-6.3l-7.2,19.2h5.2l1.5-4.1h7.2l1.4,4.1h5.6L183.6,112.7z M177.9,124.1l2.5-7.5h0.1l2.3,7.5H177.9
	z"/>
<path class="st3" d="M207.4,126.7c-1-2.3-1.1-3.8-2.7-4.2v-0.1c2.5-0.6,3.7-2.3,3.7-4.8c0-3.3-2.8-4.8-6.2-4.8h-9.1v19.1h5.1v-7.6
	h1.1c1.9,0,2.6,0.8,3.6,4.1l1.1,3.5h5.3L207.4,126.7z M199.6,120.6h-1.4v-4.3h1.4c1.9,0,3.7,0.3,3.7,2.1
	C203.3,120.6,201.2,120.6,199.6,120.6z"/>
<polygon class="st3" points="212.1,131.9 217.2,131.9 217.2,123.2 217.3,123.2 223.3,131.9 229.8,131.9 222.1,121.6 229.2,112.7 
	223.1,112.7 217.3,120.5 217.2,120.5 217.2,112.7 212.1,112.7 "/>
<polygon class="st3" points="120.1,104.4 124.8,104.4 124.6,91.3 124.7,91.3 131.4,104.4 137.7,104.4 137.7,85.2 133,85.2 
	133.1,98.3 133.1,98.3 126.6,85.2 120.1,85.2 "/>
<path class="st3" d="M153.6,85.2h-6.3l-7.2,19.2h5.1l1.6-4.1h7.2l1.4,4.1h5.6L153.6,85.2z M147.9,96.7l2.5-7.5h0.1l2.2,7.5H147.9z"
	/>
<polygon class="st3" points="165.9,104.4 171,104.4 171,89 175.7,89 175.7,85.2 161.1,85.2 161.1,89 165.9,89 "/>
<rect x="178.6" y="85.2" class="st3" width="5.1" height="19.2"/>
<path class="st3" d="M196.6,84.9c-6.3,0-9.6,3.8-9.6,9.9s3.4,9.9,9.6,9.9c6.3,0,9.6-3.8,9.6-9.9C206.2,88.6,202.9,84.9,196.6,84.9z
	 M196.6,100.9c-3,0-4.3-2.9-4.3-6.1c0-3.3,1.2-6.1,4.3-6.1s4.3,2.8,4.3,6.1C200.9,98,199.7,100.9,196.6,100.9z"/>
<polygon class="st3" points="209.5,104.4 214.2,104.4 214,91.3 214.1,91.3 220.8,104.4 227.1,104.4 227.1,85.2 222.4,85.2 
	222.5,98.3 222.5,98.3 216,85.2 209.5,85.2 "/>
<path class="st3" d="M229.5,104.4h5.2l1.5-4.1h7.2l1.4,4.1h5.6L243,85.2h-6.3L229.5,104.4z M242.2,96.7h-4.8l2.5-7.5h0.1L242.2,96.7
	z"/>
<polygon class="st3" points="252.7,104.4 265.7,104.4 265.7,100.6 257.8,100.6 257.8,85.2 252.7,85.2 "/>
</svg>
