<?xml version="1.0" encoding="utf-8"?>
<!-- Generator: Adobe Illustrator 24.1.0, SVG Export Plug-In . SVG Version: 6.00 Build 0)  -->
<svg version="1.1" id="Layer_1" xmlns="http://www.w3.org/2000/svg" xmlns:xlink="http://www.w3.org/1999/xlink" x="0px" y="0px"
	 viewBox="0 0 683.9 683.9" style="enable-background:new 0 0 683.9 683.9;" xml:space="preserve">
<style type="text/css">
	.st0{fill:#FFFFFF;}
</style>
<path class="st0" d="M646.2,0H37.8C16.9,0,0,16.9,0,37.8v608.4c0,20.9,16.9,37.8,37.8,37.8h327.5V419h-89.1V315.8h89.1v-76.1
	c0-88.3,53.9-136.4,132.8-136.4c37.7,0,70.2,2.8,79.6,4.1v92.3H523c-42.8,0-51.2,20.4-51.2,50.3v65.9h102.2L560.8,419h-88.9v264.9
	h174.3c20.9,0,37.8-16.9,37.8-37.8V37.8C683.9,16.9,667,0,646.2,0z"/>
</svg>
