<?xml version="1.0" encoding="utf-8"?>
<!-- Generator: Adobe Illustrator 24.1.0, SVG Export Plug-In . SVG Version: 6.00 Build 0)  -->
<svg version="1.1" id="Layer_1" xmlns="http://www.w3.org/2000/svg" xmlns:xlink="http://www.w3.org/1999/xlink" x="0px" y="0px"
	 viewBox="0 0 367 367" style="enable-background:new 0 0 367 367;" xml:space="preserve">
<style type="text/css">
	.st0{fill:#FFFFFF;}
</style>
<path class="st0" d="M296.1,0H70.9C31.8,0,0,31.8,0,70.9v225.2C0,335.2,31.8,367,70.9,367h225.2c39.1,0,70.9-31.8,70.9-70.9V70.9
	C367,31.8,335.1,0,296.1,0z M316.4,42.3l8.1,0v62.2l-62,0.2l-0.2-62.2L316.4,42.3z M131.1,145.8c11.8-16.3,30.8-26.9,52.4-26.9
	c21.5,0,40.6,10.7,52.4,26.9c7.6,10.6,12.2,23.6,12.2,37.7c0,35.6-29,64.6-64.6,64.6c-35.6,0-64.6-29-64.6-64.6
	C118.9,169.4,123.5,156.4,131.1,145.8z M331.2,296.1c0,19.4-15.8,35.2-35.1,35.2H70.9c-19.4,0-35.2-15.8-35.2-35.2V145.8h54.8
	c-4.7,11.7-7.4,24.4-7.4,37.7c0,55.4,45,100.4,100.4,100.4c55.4,0,100.4-45,100.4-100.4c0-13.3-2.7-26-7.4-37.7h54.8L331.2,296.1
	L331.2,296.1z"/>
</svg>
