<?xml version="1.0" encoding="utf-8"?>
<!-- Generator: Adobe Illustrator 24.1.0, SVG Export Plug-In . SVG Version: 6.00 Build 0)  -->
<svg version="1.1" id="Layer_1" xmlns="http://www.w3.org/2000/svg" xmlns:xlink="http://www.w3.org/1999/xlink" x="0px" y="0px"
	 viewBox="0 0 464.5 377.5" style="enable-background:new 0 0 464.5 377.5;" xml:space="preserve">
<style type="text/css">
	.st0{fill:#FFFFFF;}
</style>
<path class="st0" d="M464.5,44.7c-17.1,7.6-35.5,12.7-54.7,15c19.7-11.8,34.8-30.5,41.9-52.7c-18.4,10.9-38.8,18.9-60.5,23.1
	C373.7,11.6,349,0,321.6,0c-52.6,0-95.3,42.7-95.3,95.3c0,7.5,0.9,14.8,2.5,21.7c-79.2-4-149.4-41.9-196.4-99.6
	c-8.2,14.1-12.9,30.4-12.9,47.9c0,33.1,16.8,62.2,42.4,79.3c-15.6-0.5-30.3-4.8-43.2-11.9v1.2c0,46.2,32.9,84.7,76.4,93.4
	c-8,2.2-16.4,3.4-25.1,3.4c-6.2,0-12.1-0.6-17.9-1.8c12.1,37.9,47.3,65.5,89,66.2C108.5,320.7,67.4,336,22.7,336
	c-7.7,0-15.3-0.5-22.7-1.4c42.2,27.1,92.3,42.9,146.1,42.9c175.2,0,271.1-145.2,271.1-271.2c0-4.1-0.1-8.2-0.3-12.3
	C435.6,80.6,451.7,63.8,464.5,44.7L464.5,44.7z"/>
</svg>
