<svg xmlns="http://www.w3.org/2000/svg" viewBox="0 0 318 148">
  <defs>
    <style>
      .cls-1 {
        fill: #fff;
      }
    </style>
  </defs>
  <g id="Layer_1" data-name="Layer 1">
    <g>
      <g>
        <path class="cls-1" d="M18.16,26.66V21.93H46.38v4.73H35V58.39H29.52V26.66Z"/>
        <path class="cls-1" d="M54.86,26.82a3.35,3.35,0,0,1-2.38-.93,3,3,0,0,1-1-2.23,3,3,0,0,1,1-2.26,3.5,3.5,0,0,1,4.75,0,3,3,0,0,1,1,2.26,3,3,0,0,1-1,2.23A3.34,3.34,0,0,1,54.86,26.82ZM52.17,58.39V31h5.32V58.39Z"/>
        <path class="cls-1" d="M74.88,58.92a10.48,10.48,0,0,1-5.9-1.7,11.32,11.32,0,0,1-4.06-4.86,17.87,17.87,0,0,1-1.47-7.59,17.64,17.64,0,0,1,1.49-7.58A11.23,11.23,0,0,1,69,32.36a10.67,10.67,0,0,1,5.89-1.67,8.62,8.62,0,0,1,4.1.84,7.49,7.49,0,0,1,2.42,2,16.76,16.76,0,0,1,1.35,2h.32V21.93h5.32V58.39h-5.2V54.13h-.44a14,14,0,0,1-1.38,2,7.79,7.79,0,0,1-2.47,2A8.69,8.69,0,0,1,74.88,58.92Zm1.18-4.54A6.17,6.17,0,0,0,80,53.16a7.48,7.48,0,0,0,2.42-3.39,14.18,14.18,0,0,0,.83-5.05,14.07,14.07,0,0,0-.82-5A7.39,7.39,0,0,0,80,36.4a7,7,0,0,0-7.92.06,7.51,7.51,0,0,0-2.41,3.4,13.68,13.68,0,0,0-.81,4.86,13.93,13.93,0,0,0,.82,4.93,7.66,7.66,0,0,0,2.43,3.46A6.2,6.2,0,0,0,76.06,54.38Z"/>
        <path class="cls-1" d="M104,59a11,11,0,0,1-4.7-1A7.69,7.69,0,0,1,96,55.2a8.09,8.09,0,0,1-1.22-4.54,7.41,7.41,0,0,1,.89-3.81A6.76,6.76,0,0,1,98,44.48a12.2,12.2,0,0,1,3.38-1.31,33.68,33.68,0,0,1,3.81-.68l4-.47a5.72,5.72,0,0,0,2.22-.62,1.49,1.49,0,0,0,.69-1.38v-.13a4.82,4.82,0,0,0-1.3-3.61A5.34,5.34,0,0,0,106.93,35a6.77,6.77,0,0,0-4.23,1.18,6.35,6.35,0,0,0-2.13,2.63l-5-1.14a9.57,9.57,0,0,1,2.61-4,10.64,10.64,0,0,1,4-2.24,15.63,15.63,0,0,1,4.72-.7,17.53,17.53,0,0,1,3.48.38,10.45,10.45,0,0,1,3.45,1.4,7.72,7.72,0,0,1,2.64,2.89,10,10,0,0,1,1,4.87V58.39h-5.2V54.65h-.22a7.52,7.52,0,0,1-1.55,2,8.23,8.23,0,0,1-2.65,1.66A10.47,10.47,0,0,1,104,59Zm1.16-4.27a7.71,7.71,0,0,0,3.78-.87,6.26,6.26,0,0,0,2.41-2.29,5.89,5.89,0,0,0,.82-3V45a2.66,2.66,0,0,1-1.09.53,17,17,0,0,1-1.84.41l-2,.3-1.63.22a12.91,12.91,0,0,0-2.83.66,4.9,4.9,0,0,0-2,1.33,3.33,3.33,0,0,0-.75,2.28,3.39,3.39,0,0,0,1.46,3A6.4,6.4,0,0,0,105.13,54.72Z"/>
        <path class="cls-1" d="M129.87,21.93V58.39h-5.32V21.93Z"/>
        <path class="cls-1" d="M150.74,58.39V21.93h13.35a14.33,14.33,0,0,1,6.43,1.27,9,9,0,0,1,3.81,3.44,9.48,9.48,0,0,1,1.26,4.87,8,8,0,0,1-.84,3.83,6.83,6.83,0,0,1-2.23,2.5,10,10,0,0,1-3.07,1.36v.35A7.36,7.36,0,0,1,173,40.72a8.55,8.55,0,0,1,2.88,3.05A9.49,9.49,0,0,1,177,48.58a9.7,9.7,0,0,1-1.31,5,9,9,0,0,1-4,3.51,16.26,16.26,0,0,1-7,1.29Zm5.5-20.69h7.37A7.72,7.72,0,0,0,167,37a6,6,0,0,0,2.37-2,5.35,5.35,0,0,0,.88-3.06,5.06,5.06,0,0,0-1.59-3.79,6.75,6.75,0,0,0-4.86-1.53h-7.51Zm0,16h7.94q3.94,0,5.66-1.53a4.93,4.93,0,0,0,1.71-3.83,6,6,0,0,0-.87-3.17,6.21,6.21,0,0,0-2.49-2.29,8,8,0,0,0-3.81-.86h-8.14Z"/>
        <path class="cls-1" d="M191.06,59a11,11,0,0,1-4.7-1A7.69,7.69,0,0,1,183,55.2a8.09,8.09,0,0,1-1.22-4.54,7.41,7.41,0,0,1,.89-3.81,6.81,6.81,0,0,1,2.4-2.37,12.39,12.39,0,0,1,3.39-1.31,33.68,33.68,0,0,1,3.81-.68l4-.47a5.72,5.72,0,0,0,2.22-.62,1.49,1.49,0,0,0,.69-1.38v-.13a4.82,4.82,0,0,0-1.3-3.61A5.34,5.34,0,0,0,194,35a6.77,6.77,0,0,0-4.23,1.18,6.35,6.35,0,0,0-2.13,2.63l-5-1.14a9.57,9.57,0,0,1,2.61-4,10.64,10.64,0,0,1,4-2.24,15.61,15.61,0,0,1,4.71-.7,17.55,17.55,0,0,1,3.49.38,10.45,10.45,0,0,1,3.45,1.4,7.72,7.72,0,0,1,2.64,2.89,10,10,0,0,1,1,4.87V58.39h-5.2V54.65h-.22a7.52,7.52,0,0,1-1.55,2,8.23,8.23,0,0,1-2.65,1.66A10.47,10.47,0,0,1,191.06,59Zm1.16-4.27a7.71,7.71,0,0,0,3.78-.87,6.17,6.17,0,0,0,2.4-2.29,5.81,5.81,0,0,0,.83-3V45a2.66,2.66,0,0,1-1.09.53,17,17,0,0,1-1.84.41l-2,.3-1.63.22a12.91,12.91,0,0,0-2.83.66,4.9,4.9,0,0,0-2,1.33,3.33,3.33,0,0,0-.75,2.28,3.39,3.39,0,0,0,1.46,3A6.4,6.4,0,0,0,192.22,54.72Z"/>
        <path class="cls-1" d="M232.13,37.72l-4.82.85a5.75,5.75,0,0,0-1-1.76,4.78,4.78,0,0,0-1.75-1.37,6.29,6.29,0,0,0-2.76-.53,6.66,6.66,0,0,0-3.77,1,3,3,0,0,0-1.52,2.59,2.71,2.71,0,0,0,1,2.21,8.07,8.07,0,0,0,3.27,1.37l4.35,1a11.63,11.63,0,0,1,5.62,2.69,6.29,6.29,0,0,1,1.86,4.71,7.17,7.17,0,0,1-1.42,4.37,9.33,9.33,0,0,1-3.93,3,14.56,14.56,0,0,1-5.84,1.09A13.09,13.09,0,0,1,214,57a8.25,8.25,0,0,1-3.56-5.6l5.14-.78a5,5,0,0,0,2,3,6.8,6.8,0,0,0,3.9,1,7.16,7.16,0,0,0,4.18-1.1,3.17,3.17,0,0,0,1.57-2.67,2.82,2.82,0,0,0-.95-2.16,6.47,6.47,0,0,0-2.91-1.32l-4.63-1a11,11,0,0,1-5.65-2.78,6.68,6.68,0,0,1-1.83-4.82,6.9,6.9,0,0,1,1.35-4.24,9,9,0,0,1,3.74-2.84,13.79,13.79,0,0,1,5.47-1,11.43,11.43,0,0,1,7,1.91A9,9,0,0,1,232.13,37.72Z"/>
        <path class="cls-1" d="M241.19,26.82a3.34,3.34,0,0,1-2.37-.93,3,3,0,0,1-1-2.23,3,3,0,0,1,1-2.26,3.5,3.5,0,0,1,4.75,0,3,3,0,0,1,1,2.26,3,3,0,0,1-1,2.23A3.35,3.35,0,0,1,241.19,26.82ZM238.5,58.39V31h5.33V58.39Z"/>
        <path class="cls-1" d="M256.31,42.15V58.39H251V31h5.11v4.45h.34a7.77,7.77,0,0,1,3-3.48,9.12,9.12,0,0,1,5.1-1.32,10,10,0,0,1,4.89,1.16,8,8,0,0,1,3.26,3.47A12.55,12.55,0,0,1,273.81,41V58.39h-5.33V41.64A6.62,6.62,0,0,0,266.94,37a5.53,5.53,0,0,0-4.26-1.68,6.64,6.64,0,0,0-3.28.8,5.61,5.61,0,0,0-2.26,2.34A7.65,7.65,0,0,0,256.31,42.15Z"/>
      </g>
      <g>
        <path class="cls-1" d="M108.73,115.21l-2,.3-1.64.22a13.56,13.56,0,0,0-2.82.66,4.83,4.83,0,0,0-2,1.33,3.81,3.81,0,0,0,.71,5.27,6.4,6.4,0,0,0,3.72,1,7.71,7.71,0,0,0,3.78-.87,6.14,6.14,0,0,0,2.4-2.28,6,6,0,0,0,.83-3v-3.53a2.72,2.72,0,0,1-1.1.53A14.52,14.52,0,0,1,108.73,115.21Z"/>
        <path class="cls-1" d="M50.06,105.68a7,7,0,0,0-7.93,0,7.59,7.59,0,0,0-2.41,3.4,15.11,15.11,0,0,0,0,9.79,7.76,7.76,0,0,0,2.43,3.46,6.82,6.82,0,0,0,7.87.06,7.59,7.59,0,0,0,2.42-3.39,14.24,14.24,0,0,0,.83-5.06,14,14,0,0,0-.82-5A7.34,7.34,0,0,0,50.06,105.68Z"/>
        <path class="cls-1" d="M81.15,105.3a6.77,6.77,0,0,0-3.61-.94,6.91,6.91,0,0,0-3.9,1.09,7.42,7.42,0,0,0-2.57,2.85,8.33,8.33,0,0,0-.87,3.3H84.4a7.92,7.92,0,0,0-.86-3.73A6.57,6.57,0,0,0,81.15,105.3Z"/>
        <path class="cls-1" d="M205.7,115.21l-2,.3-1.64.22a13.56,13.56,0,0,0-2.82.66,4.83,4.83,0,0,0-2,1.33,3.8,3.8,0,0,0,.7,5.27,6.46,6.46,0,0,0,3.73,1,7.71,7.71,0,0,0,3.78-.87,6.14,6.14,0,0,0,2.4-2.28,6,6,0,0,0,.83-3v-3.53a2.72,2.72,0,0,1-1.1.53A14.52,14.52,0,0,1,205.7,115.21Z"/>
        <path class="cls-1" d="M237.84,105.73a7,7,0,0,0-7.92,0,7.28,7.28,0,0,0-2.41,3.33,13.75,13.75,0,0,0-.82,5,14,14,0,0,0,.84,5.06,7.67,7.67,0,0,0,2.42,3.39,6.82,6.82,0,0,0,7.87-.06,7.76,7.76,0,0,0,2.43-3.46,15,15,0,0,0,0-9.79A7.47,7.47,0,0,0,237.84,105.73Z"/>
        <path class="cls-1" d="M314,0H0V148H318V0ZM27.14,127.66h-5.5V91.2h5.5Zm31.37,0h-5.2v-4.25h-.44a14.57,14.57,0,0,1-1.38,2,7.79,7.79,0,0,1-2.47,2,8.53,8.53,0,0,1-4.06.84,10.56,10.56,0,0,1-5.9-1.7A11.51,11.51,0,0,1,35,121.64a17.92,17.92,0,0,1-1.47-7.6A17.67,17.67,0,0,1,35,106.46a11.2,11.2,0,0,1,4.09-4.82A10.59,10.59,0,0,1,45,100a8.5,8.5,0,0,1,4.1.85,7.47,7.47,0,0,1,2.42,2,16.76,16.76,0,0,1,1.35,2h.32V91.2h5.32Zm31.1-12.07H70.19a10,10,0,0,0,1,4.29,6.84,6.84,0,0,0,2.72,2.93,8,8,0,0,0,4.07,1,8.32,8.32,0,0,0,2.76-.44,5.94,5.94,0,0,0,2.16-1.31,5.79,5.79,0,0,0,1.39-2.15l5,.91a9.19,9.19,0,0,1-2.17,3.89,10.48,10.48,0,0,1-3.9,2.58,14.56,14.56,0,0,1-5.33.91,13.3,13.3,0,0,1-6.95-1.73,11.59,11.59,0,0,1-4.49-4.9,16.41,16.41,0,0,1-1.57-7.41,16.62,16.62,0,0,1,1.57-7.41A11.81,11.81,0,0,1,77.51,100a13.35,13.35,0,0,1,4.48.77,10.86,10.86,0,0,1,3.9,2.4,11.38,11.38,0,0,1,2.73,4.25,17.86,17.86,0,0,1,1,6.33ZM117,127.66h-5.2v-3.74h-.21a7.37,7.37,0,0,1-1.55,2,8.16,8.16,0,0,1-2.65,1.66,10.26,10.26,0,0,1-3.88.66,11.19,11.19,0,0,1-4.7-1,7.83,7.83,0,0,1-3.32-2.82,8.12,8.12,0,0,1-1.22-4.54,7.36,7.36,0,0,1,.89-3.81,6.5,6.5,0,0,1,2.4-2.37,12.73,12.73,0,0,1,3.39-1.32,33.91,33.91,0,0,1,3.8-.68c1.64-.18,3-.34,4-.47a5.86,5.86,0,0,0,2.23-.61,1.52,1.52,0,0,0,.69-1.39v-.12a4.81,4.81,0,0,0-1.31-3.62,5.36,5.36,0,0,0-3.89-1.28,6.74,6.74,0,0,0-4.22,1.18,6.41,6.41,0,0,0-2.13,2.63l-5-1.14a9.61,9.61,0,0,1,2.6-4,10.68,10.68,0,0,1,4-2.25,16,16,0,0,1,4.72-.7,17.53,17.53,0,0,1,3.48.38,10.72,10.72,0,0,1,3.46,1.4,7.8,7.8,0,0,1,2.64,2.89,10.08,10.08,0,0,1,1,4.87Zm26.7-3.53a9.53,9.53,0,0,1-3.94,3,14.68,14.68,0,0,1-5.83,1.08,13.09,13.09,0,0,1-7.49-2,8.23,8.23,0,0,1-3.56-5.6l5.14-.78a4.86,4.86,0,0,0,2,3,6.8,6.8,0,0,0,3.9,1,7.16,7.16,0,0,0,4.18-1.09,3.19,3.19,0,0,0,1.57-2.68,2.82,2.82,0,0,0-.95-2.15,6.26,6.26,0,0,0-2.91-1.32l-4.63-1a11.06,11.06,0,0,1-5.66-2.77,6.72,6.72,0,0,1-1.82-4.83,6.94,6.94,0,0,1,1.35-4.24,8.89,8.89,0,0,1,3.74-2.83,13.62,13.62,0,0,1,5.47-1,11.31,11.31,0,0,1,7,1.92,9,9,0,0,1,3.37,5.11l-4.82.86a5.73,5.73,0,0,0-1-1.76,4.8,4.8,0,0,0-1.75-1.38,6.44,6.44,0,0,0-2.76-.53,6.64,6.64,0,0,0-3.77,1,3,3,0,0,0-1.52,2.59,2.69,2.69,0,0,0,1,2.2,8.21,8.21,0,0,0,3.27,1.38l4.35,1a11.63,11.63,0,0,1,5.62,2.69,6.29,6.29,0,0,1,1.85,4.72A7.18,7.18,0,0,1,143.69,124.13Zm43,3.53h-22V91.2h5.5v31.73h16.52Zm27.29,0h-5.2v-3.74h-.21a7.37,7.37,0,0,1-1.55,2,8.16,8.16,0,0,1-2.65,1.66,10.26,10.26,0,0,1-3.88.66,11.16,11.16,0,0,1-4.7-1,7.83,7.83,0,0,1-3.32-2.82,8.12,8.12,0,0,1-1.22-4.54,7.36,7.36,0,0,1,.89-3.81,6.5,6.5,0,0,1,2.4-2.37,12.8,12.8,0,0,1,3.38-1.32,34.5,34.5,0,0,1,3.81-.68c1.64-.18,3-.34,4-.47a5.86,5.86,0,0,0,2.23-.61,1.52,1.52,0,0,0,.69-1.39v-.12a4.81,4.81,0,0,0-1.31-3.62,5.36,5.36,0,0,0-3.89-1.28,6.74,6.74,0,0,0-4.22,1.18,6.41,6.41,0,0,0-2.13,2.63l-5-1.14a9.61,9.61,0,0,1,2.6-4,10.68,10.68,0,0,1,4-2.25,16,16,0,0,1,4.72-.7,17.53,17.53,0,0,1,3.48.38,10.72,10.72,0,0,1,3.46,1.4,7.8,7.8,0,0,1,2.64,2.89,10.08,10.08,0,0,1,1,4.87Zm31-6a11.49,11.49,0,0,1-4.05,4.86,10.54,10.54,0,0,1-5.9,1.7,8.66,8.66,0,0,1-4.07-.84,7.63,7.63,0,0,1-2.46-2,15.34,15.34,0,0,1-1.37-2h-.45v4.25h-5.19V91.2h5.32v13.55h.32a15.21,15.21,0,0,1,1.33-2,7.7,7.7,0,0,1,2.42-2A8.5,8.5,0,0,1,235,100a10.63,10.63,0,0,1,5.91,1.68,11.34,11.34,0,0,1,4.09,4.82,20.2,20.2,0,0,1,0,15.18ZM314,74H4.05L4,4H314Z"/>
      </g>
    </g>
  </g>
</svg>
